<svg width="103" height="86" viewBox="0 0 103 86" fill="none" xmlns="http://www.w3.org/2000/svg">
<path d="M48.6465 85.3535L0.646478 85.3535L0.646482 44.2763C0.646484 25.9063 10.105 12.8092 29.0222 4.98498C32.7349 3.45416 36.978 2.00837 41.7515 0.647636L48.5139 14.4251C37.641 18.0821 31.0553 22.8021 28.757 28.5853C27.6962 31.1366 27.1658 34.1983 27.1658 37.7702L48.6465 37.7702L48.6465 85.3535Z" fill="#CBCBCB" fill-opacity="0.48"/>
<path d="M102.293 85.3535L54.293 85.3535L54.293 44.2763C54.293 25.9063 63.7515 12.8092 82.6687 4.98498C86.3814 3.45416 90.6245 2.00837 95.3979 0.647636L102.16 14.4251C91.2874 18.0821 84.7018 22.8021 82.4035 28.5853C81.3427 31.1366 80.8123 34.1983 80.8123 37.7702L102.293 37.7702L102.293 85.3535Z" fill="#CBCBCB" fill-opacity="0.48"/>
</svg>
