<svg width="120" height="21" viewBox="0 0 120 21" fill="none" xmlns="http://www.w3.org/2000/svg">
<path d="M112.999 17.2532C112.999 15.6882 114.415 14.4186 116.158 14.4186C117.903 14.4186 119.318 15.6882 119.318 17.2532C119.318 18.8183 117.903 20.0879 116.158 20.0879C114.415 20.0879 112.999 18.8183 112.999 17.2532Z" fill="#CBCBCB"/>
<path d="M12.2119 9.74527C12.2119 7.94947 11.8256 6.6168 11.0513 5.74884C10.277 4.88248 9.10397 4.4489 7.526 4.4489H5.84835V15.4313H7.13262C8.88414 15.4313 10.1684 14.9642 10.9854 14.03C11.8025 13.0957 12.2119 11.6672 12.2119 9.74527ZM18.1962 9.55843C18.1962 12.8298 17.2154 15.3507 15.2548 17.1201C13.2941 18.8912 10.5378 19.7759 6.98666 19.7759H0.0820312V0.171404H7.46815C10.8929 0.171404 13.538 0.976278 15.4016 2.58443C17.2644 4.19419 18.1962 6.51779 18.1962 9.55843Z" fill="#CBCBCB"/>
<path d="M37.3179 19.7769H42.811V0.089344H37.3179V19.7769Z" fill="#CBCBCB"/>
<path d="M50.5264 12.4301C50.5264 13.6854 50.7088 14.6427 51.0737 15.3007C51.4395 15.9594 52.0527 16.2884 52.9143 16.2884C53.7669 16.2884 54.3685 15.9594 54.7201 15.3007C55.0707 14.6427 55.2461 13.6854 55.2461 12.4301C55.2461 11.1813 55.0681 10.2399 54.7129 9.60428C54.3561 8.96629 53.7482 8.6477 52.8858 8.6477C52.0429 8.6477 51.4395 8.96469 51.0737 9.5971C50.7088 10.2295 50.5264 11.1733 50.5264 12.4301ZM60.8371 12.4301C60.8371 14.8216 60.1384 16.6869 58.7375 18.0243C57.3376 19.3626 55.3769 20.0317 52.8582 20.0317C50.4418 20.0317 48.5194 19.3474 47.0919 17.9788C45.6625 16.611 44.9487 14.7617 44.9487 12.4301C44.9487 10.0458 45.6483 8.19336 47.0491 6.87266C48.45 5.55196 50.4142 4.89161 52.9427 4.89161C54.5065 4.89161 55.8886 5.19743 57.0866 5.80827C58.2854 6.41991 59.2101 7.29506 59.8607 8.4353C60.5122 9.57474 60.8371 10.9066 60.8371 12.4301Z" fill="#CBCBCB"/>
<path d="M63.0166 19.7769H68.5097V5.15339H63.0166V19.7769Z" fill="#CBCBCB"/>
<path d="M63.0166 3.3833H68.5097V0.0879395H63.0166V3.3833Z" fill="#CBCBCB"/>
<path d="M79.6429 16.0441C80.3843 16.0441 81.2681 15.8756 82.2987 15.5403V19.2197C81.5573 19.5111 80.8533 19.7203 80.1841 19.8441C79.5148 19.9695 78.7298 20.0317 77.83 20.0317C75.9859 20.0317 74.6563 19.6165 73.8402 18.7861C73.0267 17.9557 72.62 16.6805 72.62 14.9605V8.93197H70.6958V5.15114H72.62V1.41741L78.1549 0.553453V5.15114H81.6597V8.93197H78.1549V14.6244C78.1549 15.5706 78.6515 16.0441 79.6429 16.0441Z" fill="#CBCBCB"/>
<path d="M92.3577 16.0441C93.099 16.0441 93.9819 15.8756 95.0134 15.5403V19.2197C94.2738 19.5111 93.5681 19.7203 92.8988 19.8441C92.2286 19.9695 91.4454 20.0317 90.5447 20.0317C88.7007 20.0317 87.371 19.6165 86.5566 18.7861C85.7414 17.9557 85.3347 16.6805 85.3347 14.9605V8.93197H83.4087V5.15114H85.3347V1.36072L90.8696 0.553453V5.15114H94.3762V8.93197H90.8696V14.6244C90.8696 15.5706 91.3662 16.0441 92.3577 16.0441Z" fill="#CBCBCB"/>
<path d="M101.945 10.6497C102.021 9.84958 102.275 9.26269 102.71 8.8874C103.147 8.51291 103.688 8.32606 104.333 8.32606C105.036 8.32606 105.596 8.53686 106.011 8.95926C106.43 9.38087 106.647 9.9438 106.664 10.6497H101.945ZM109.691 6.61649C108.387 5.46747 106.534 4.89335 104.137 4.89335C101.617 4.89335 99.679 5.55291 98.3199 6.87441C96.9627 8.19511 96.2827 10.0899 96.2827 12.5597C96.2827 14.9511 97.017 16.7956 98.4819 18.09C99.9477 19.3843 102.006 20.0327 104.657 20.0327C105.93 20.0327 107.026 19.9545 107.944 19.7996C108.856 19.6462 109.74 19.3692 110.597 18.9683L109.753 15.6738C109.129 15.9013 108.536 16.077 107.977 16.1928C107.169 16.3605 106.282 16.4451 105.317 16.4451C104.257 16.4451 103.421 16.2127 102.809 15.748C102.197 15.2833 101.869 14.6413 101.833 13.8245H111.652V11.5799C111.652 9.41919 110.998 7.76472 109.691 6.61649Z" fill="#CBCBCB"/>
<path d="M25.4869 10.6487C25.5617 9.8486 25.8171 9.26171 26.2523 8.88642C26.6884 8.51193 27.2286 8.32508 27.8757 8.32508C28.577 8.32508 29.1368 8.53588 29.5533 8.95829C29.9707 9.37989 30.1888 9.94282 30.2066 10.6487H25.4869ZM33.2344 6.61552C31.9287 5.46649 30.0758 4.89238 27.6781 4.89238C25.1585 4.89238 23.2201 5.55193 21.8628 6.87343C20.5047 8.19413 19.8247 10.0889 19.8247 12.5587C19.8247 14.9502 20.5581 16.7947 22.0248 18.089C23.4897 19.3834 25.5483 20.0317 28.1987 20.0317C29.4723 20.0317 30.5679 19.9535 31.4855 19.7986C32.3978 19.6453 33.2815 19.3682 34.1386 18.9674L33.2949 15.6728C32.6719 15.9004 32.0791 16.076 31.5202 16.1918C30.7103 16.3595 29.8239 16.4441 28.8591 16.4441C27.8009 16.4441 26.9634 16.2118 26.3511 15.747C25.7379 15.2823 25.4121 14.6403 25.3748 13.8235H35.1942V11.5789C35.1942 9.41822 34.5409 7.76375 33.2344 6.61552Z" fill="#CBCBCB"/>
</svg>
