<svg width="20" height="20" viewBox="0 0 20 20" fill="none" xmlns="http://www.w3.org/2000/svg">
<g clip-path="url(#clip0_273_326)">
<g clip-path="url(#clip1_273_326)">
<g clip-path="url(#clip2_273_326)">
<path d="M10.115 0.882324C4.78679 0.882324 0.465332 5.20297 0.465332 10.532C0.465332 14.7956 3.22997 18.4126 7.06492 19.6888C7.54661 19.7781 7.70261 19.4789 7.70261 19.2248V17.4283C5.01838 18.0121 4.4595 16.2896 4.4595 16.2896C4.02044 15.1743 3.38758 14.8776 3.38758 14.8776C2.51188 14.2786 3.45432 14.2914 3.45432 14.2914C4.42331 14.3589 4.93315 15.2861 4.93315 15.2861C5.79357 16.7609 7.19037 16.3347 7.74121 16.0879C7.82725 15.4647 8.07734 15.0384 8.35396 14.798C6.21092 14.5527 3.95772 13.7253 3.95772 10.0286C3.95772 8.97439 4.33486 8.11397 4.95164 7.43849C4.85192 7.19483 4.52142 6.21298 5.04572 4.88454C5.04572 4.88454 5.8563 4.62561 7.70019 5.87363C8.46976 5.65972 9.29481 5.55278 10.115 5.54876C10.9353 5.55278 11.7611 5.65972 12.5323 5.87363C14.3746 4.62561 15.1836 4.88454 15.1836 4.88454C15.7086 6.21378 15.3781 7.19564 15.2784 7.43849C15.8976 8.11397 16.2716 8.97521 16.2716 10.0286C16.2716 13.7349 14.0143 14.5511 11.8657 14.79C12.2114 15.0891 12.5274 15.6761 12.5274 16.5768V19.2248C12.5274 19.4813 12.6818 19.7829 13.1716 19.688C17.0033 18.4102 19.7647 14.794 19.7647 10.532C19.7647 5.20297 15.444 0.882324 10.115 0.882324Z" fill="#111111"/>
</g>
</g>
</g>
<defs>
<clipPath id="clip0_273_326">
<rect width="20" height="20" fill="white"/>
</clipPath>
<clipPath id="clip1_273_326">
<rect width="20" height="20" fill="white"/>
</clipPath>
<clipPath id="clip2_273_326">
<rect width="20" height="20" fill="white"/>
</clipPath>
</defs>
</svg>
