<svg width="17" height="17" viewBox="0 0 17 17" fill="none" xmlns="http://www.w3.org/2000/svg">
<path d="M8.59775 0.75C4.06875 0.75 0.395508 4.42255 0.395508 8.95224C0.395508 12.5763 2.74545 15.6507 6.00516 16.7355C6.41459 16.8114 6.54719 16.5571 6.54719 16.3411V14.8141C4.2656 15.3103 3.79055 13.8462 3.79055 13.8462C3.41735 12.8982 2.87942 12.646 2.87942 12.646C2.13507 12.1368 2.93615 12.1477 2.93615 12.1477C3.75979 12.2051 4.19315 12.9932 4.19315 12.9932C4.92451 14.2468 6.11179 13.8845 6.58 13.6747C6.65314 13.145 6.86571 12.7827 7.10084 12.5783C5.27926 12.3698 3.36404 11.6665 3.36404 8.52436C3.36404 7.62826 3.68461 6.8969 4.20887 6.32274C4.12411 6.11563 3.84318 5.28106 4.28884 4.15188C4.28884 4.15188 4.97783 3.93179 6.54514 4.99261C7.19927 4.81079 7.90056 4.71989 8.59775 4.71647C9.29494 4.71989 9.99692 4.81079 10.6524 4.99261C12.2184 3.93179 12.906 4.15188 12.906 4.15188C13.3523 5.28174 13.0714 6.11632 12.9866 6.32274C13.5129 6.8969 13.8308 7.62895 13.8308 8.52436C13.8308 11.6747 11.9121 12.3685 10.0858 12.5715C10.3797 12.8258 10.6483 13.3247 10.6483 14.0903V16.3411C10.6483 16.5591 10.7795 16.8155 11.1958 16.7348C14.4528 15.6487 16.8 12.5749 16.8 8.95224C16.8 4.42255 13.1274 0.75 8.59775 0.75Z" fill="black"/>
</svg>
