<svg width="439" height="38" viewBox="0 0 439 38" fill="none" xmlns="http://www.w3.org/2000/svg">
<mask id="path-1-outside-1_303_1969" maskUnits="userSpaceOnUse" x="-2" y="-2" width="443" height="42" fill="black">
<rect fill="white" x="-2" y="-2" width="443" height="42"/>
<path d="M33.576 20.984V0.767999H41.024V21.768C41.024 24.1573 40.6693 26.248 39.96 28.04C39.288 29.832 38.3173 31.344 37.048 32.576C35.7787 33.808 34.2853 34.816 32.568 35.6C30.888 36.3467 29.04 36.888 27.024 37.224C25.0453 37.56 22.9547 37.728 20.752 37.728C18.4747 37.728 16.3093 37.56 14.256 37.224C12.2027 36.888 10.3173 36.3467 8.6 35.6C6.92 34.816 5.464 33.808 4.232 32.576C3 31.344 2.02933 29.832 1.32 28.04C0.648 26.248 0.312 24.1573 0.312 21.768V0.767999H7.76V20.984C7.76 23.8213 8.32 25.9867 9.44 27.48C10.56 28.936 12.0907 29.944 14.032 30.504C16.0107 31.0267 18.2507 31.288 20.752 31.288C23.1787 31.288 25.344 31.0267 27.248 30.504C29.1893 29.944 30.72 28.936 31.84 27.48C32.9973 25.9867 33.576 23.8213 33.576 20.984ZM77.2013 0.767999H86.2733L69.1373 20.76L68.9133 20.984L56.2013 37H47.1293L64.7693 16L64.9373 15.832L77.2013 0.767999ZM56.7613 0.767999L68.8573 15.944L68.9693 16.112L86.4413 37H76.9773L64.4333 20.76L64.2653 20.648L47.6893 0.767999H56.7613ZM127.18 0.767999C131.25 0.767999 134.647 1.25333 137.372 2.224C140.098 3.19466 142.263 4.52 143.868 6.2C145.511 7.84266 146.668 9.74666 147.34 11.912C148.05 14.0773 148.404 16.3547 148.404 18.744C148.404 21.1333 148.012 23.4293 147.228 25.632C146.482 27.8347 145.268 29.7947 143.588 31.512C141.946 33.192 139.762 34.536 137.036 35.544C134.348 36.5147 131.063 37 127.18 37H106.46V0.767999H127.18ZM113.908 30.616H127.012C129.7 30.616 131.922 30.2987 133.676 29.664C135.468 28.992 136.887 28.096 137.932 26.976C138.978 25.856 139.724 24.5867 140.172 23.168C140.62 21.7493 140.844 20.2747 140.844 18.744C140.844 17.2133 140.62 15.7573 140.172 14.376C139.724 12.9947 138.978 11.7627 137.932 10.68C136.887 9.59733 135.468 8.73867 133.676 8.104C131.922 7.46933 129.7 7.152 127.012 7.152H113.908V30.616ZM163.127 21.88V30.784H191.071V37H155.679V0.767999H191.015V6.984H163.127V16H185.975V21.88H163.127ZM196.31 24.792H203.87C204.02 26.0613 204.598 27.2187 205.606 28.264C206.652 29.272 208.014 30.0747 209.694 30.672C211.374 31.232 213.26 31.512 215.35 31.512C217.254 31.512 218.822 31.3067 220.054 30.896C221.286 30.4853 222.201 29.9067 222.798 29.16C223.396 28.4133 223.694 27.5173 223.694 26.472C223.694 25.464 223.321 24.6987 222.574 24.176C221.828 23.616 220.652 23.168 219.046 22.832C217.441 22.4587 215.332 22.0853 212.718 21.712C210.665 21.4133 208.724 21.0027 206.894 20.48C205.065 19.92 203.441 19.2107 202.022 18.352C200.641 17.4933 199.54 16.448 198.718 15.216C197.934 13.9467 197.542 12.4533 197.542 10.736C197.542 8.608 198.14 6.74133 199.334 5.136C200.566 3.53066 202.377 2.28 204.766 1.384C207.156 0.487998 210.086 0.0399985 213.558 0.0399985C218.785 0.0399985 222.798 1.16 225.598 3.4C228.436 5.60267 229.817 8.64533 229.742 12.528H222.462C222.313 10.3253 221.38 8.73867 219.662 7.768C217.982 6.79733 215.854 6.312 213.278 6.312C210.889 6.312 208.91 6.66666 207.342 7.376C205.812 8.08533 205.046 9.29866 205.046 11.016C205.046 11.688 205.233 12.2853 205.606 12.808C205.98 13.2933 206.614 13.7227 207.51 14.096C208.406 14.4693 209.62 14.824 211.15 15.16C212.681 15.496 214.585 15.832 216.862 16.168C218.99 16.4667 220.913 16.8773 222.63 17.4C224.385 17.8853 225.878 18.5387 227.11 19.36C228.38 20.144 229.35 21.152 230.022 22.384C230.694 23.616 231.03 25.128 231.03 26.92C231.03 29.1227 230.452 31.0453 229.294 32.688C228.174 34.2933 226.42 35.544 224.03 36.44C221.678 37.336 218.617 37.784 214.846 37.784C212.158 37.784 209.788 37.504 207.734 36.944C205.681 36.3467 203.908 35.5627 202.414 34.592C200.921 33.6213 199.708 32.5573 198.774 31.4C197.841 30.2427 197.169 29.0853 196.758 27.928C196.385 26.7707 196.236 25.7253 196.31 24.792ZM238.665 0.767999H246.113V37H238.665V0.767999ZM276.589 37.728C273.229 37.728 270.187 37.336 267.461 36.552C264.773 35.768 262.44 34.592 260.461 33.024C258.52 31.456 257.027 29.5147 255.981 27.2C254.936 24.8853 254.413 22.216 254.413 19.192C254.413 16.1307 254.955 13.424 256.037 11.072C257.157 8.68267 258.725 6.66667 260.741 5.024C262.795 3.38133 265.221 2.14933 268.021 1.328C270.859 0.469332 273.995 0.0399985 277.429 0.0399985C281.499 0.0399985 285.008 0.618666 287.957 1.776C290.907 2.896 293.221 4.48266 294.901 6.536C296.619 8.58933 297.589 11.0347 297.813 13.872H290.645C290.16 12.3787 289.357 11.0907 288.237 10.008C287.155 8.888 285.717 8.02933 283.925 7.432C282.133 6.79733 279.968 6.48 277.429 6.48C274.181 6.48 271.4 7.00267 269.085 8.048C266.808 9.09333 265.072 10.568 263.877 12.472C262.683 14.376 262.085 16.616 262.085 19.192C262.085 21.6933 262.608 23.8587 263.653 25.688C264.699 27.48 266.304 28.8613 268.469 29.832C270.672 30.8027 273.472 31.288 276.869 31.288C279.483 31.288 281.779 30.952 283.757 30.28C285.773 29.5707 287.453 28.6373 288.797 27.48C290.141 26.2853 291.093 24.96 291.653 23.504L294.565 22.44C294.08 27.256 292.251 31.008 289.077 33.696C285.941 36.384 281.779 37.728 276.589 37.728ZM292.661 37C292.661 35.8427 292.736 34.5173 292.885 33.024C293.035 31.4933 293.221 29.9627 293.445 28.432C293.669 26.864 293.875 25.4267 294.061 24.12H277.485V19.36H299.101V37H292.661ZM343.681 29.608L341.329 30.56V0.767999H348.777V37H341.329L312.041 8.384L314.393 7.432V37H306.945V0.767999H314.393L343.681 29.608ZM364.869 21.88V30.784H392.813V37H357.421V0.767999H392.757V6.984H364.869V16H387.717V21.88H364.869ZM400.46 37V0.767999H425.044C427.844 0.767999 430.271 1.16 432.324 1.944C434.415 2.69067 436.039 3.88533 437.196 5.528C438.354 7.13333 438.932 9.20533 438.932 11.744C438.932 13.4613 438.634 14.9173 438.036 16.112C437.439 17.3067 436.599 18.2773 435.516 19.024C434.471 19.7707 433.258 20.3493 431.876 20.76C430.495 21.1333 429.02 21.376 427.452 21.488L426.668 21.04C429.282 21.0773 431.428 21.3013 433.108 21.712C434.788 22.0853 436.039 22.7947 436.86 23.84C437.719 24.848 438.148 26.36 438.148 28.376V37H430.7V28.88C430.7 27.4987 430.458 26.4347 429.972 25.688C429.487 24.904 428.61 24.3627 427.34 24.064C426.108 23.7653 424.316 23.616 421.964 23.616H407.908V37H400.46ZM407.908 17.792H425.044C427.135 17.792 428.722 17.288 429.804 16.28C430.924 15.272 431.484 13.9093 431.484 12.192C431.484 10.5493 430.924 9.29867 429.804 8.44C428.722 7.58133 427.135 7.152 425.044 7.152H407.908V17.792Z"/>
</mask>
<path d="M33.576 0.767999V-1.232H31.576V0.767999H33.576ZM41.024 0.767999H43.024V-1.232H41.024V0.767999ZM39.96 28.04L38.1004 27.3039L38.0937 27.3208L38.0873 27.3378L39.96 28.04ZM32.568 35.6L33.3803 37.4276L33.3895 37.4235L33.3986 37.4194L32.568 35.6ZM27.024 37.224L26.6952 35.2512L26.6892 35.2522L27.024 37.224ZM14.256 37.224L13.933 39.1977L13.933 39.1977L14.256 37.224ZM8.6 35.6L7.75423 37.4124L7.77824 37.4236L7.80255 37.4341L8.6 35.6ZM4.232 32.576L2.81779 33.9902L2.81779 33.9902L4.232 32.576ZM1.32 28.04L-0.552658 28.7422L-0.546289 28.7592L-0.539613 28.7761L1.32 28.04ZM0.312 0.767999V-1.232H-1.688V0.767999H0.312ZM7.76 0.767999H9.76V-1.232H7.76V0.767999ZM9.44 27.48L7.84 28.68L7.84732 28.6898L7.85475 28.6994L9.44 27.48ZM14.032 30.504L13.4777 32.4256L13.4994 32.4319L13.5212 32.4377L14.032 30.504ZM27.248 30.504L27.7774 32.4327L27.7899 32.4292L27.8023 32.4256L27.248 30.504ZM31.84 27.48L30.2592 26.2548L30.2548 26.2606L31.84 27.48ZM35.576 20.984V0.767999H31.576V20.984H35.576ZM33.576 2.768H41.024V-1.232H33.576V2.768ZM39.024 0.767999V21.768H43.024V0.767999H39.024ZM39.024 21.768C39.024 23.9637 38.6977 25.795 38.1004 27.3039L41.8196 28.7761C42.641 26.701 43.024 24.351 43.024 21.768H39.024ZM38.0873 27.3378C37.5105 28.8761 36.6953 30.1312 35.6551 31.1408L38.441 34.0112C39.9394 32.5568 41.0655 30.7879 41.8327 28.7422L38.0873 27.3378ZM35.6551 31.1408C34.5606 32.2031 33.2608 33.0852 31.7374 33.7806L33.3986 37.4194C35.3099 36.5468 36.9968 35.4129 38.441 34.0112L35.6551 31.1408ZM31.7557 33.7724C30.2462 34.4433 28.5629 34.9399 26.6952 35.2512L27.3528 39.1968C29.5171 38.8361 31.5298 38.2501 33.3803 37.4276L31.7557 33.7724ZM26.6892 35.2522C24.8312 35.5677 22.8532 35.728 20.752 35.728V39.728C23.0561 39.728 25.2594 39.5523 27.3588 39.1958L26.6892 35.2522ZM20.752 35.728C18.5728 35.728 16.5161 35.5672 14.579 35.2503L13.933 39.1977C16.1026 39.5528 18.3765 39.728 20.752 39.728V35.728ZM14.579 35.2503C12.6711 34.9381 10.9473 34.4397 9.39745 33.7659L7.80255 37.4341C9.68739 38.2536 11.7342 38.8379 13.933 39.1977L14.579 35.2503ZM9.44577 33.7876C7.96338 33.0959 6.70308 32.2186 5.64621 31.1618L2.81779 33.9902C4.22492 35.3974 5.87662 36.5361 7.75423 37.4124L9.44577 33.7876ZM5.64621 31.1618C4.62705 30.1426 3.7991 28.8689 3.17961 27.3039L-0.539613 28.7761C0.259571 30.7951 1.37295 32.5454 2.81779 33.9902L5.64621 31.1618ZM3.19266 27.3378C2.62288 25.8183 2.312 23.9748 2.312 21.768H-1.688C-1.688 24.3399 -1.32688 26.6777 -0.552658 28.7422L3.19266 27.3378ZM2.312 21.768V0.767999H-1.688V21.768H2.312ZM0.312 2.768H7.76V-1.232H0.312V2.768ZM5.76 0.767999V20.984H9.76V0.767999H5.76ZM5.76 20.984C5.76 24.0413 6.35655 26.7021 7.84 28.68L11.04 26.28C10.2835 25.2713 9.76 23.6014 9.76 20.984H5.76ZM7.85475 28.6994C9.26083 30.5273 11.1697 31.7599 13.4777 32.4256L14.5863 28.5824C13.0116 28.1281 11.8592 27.3447 11.0252 26.2606L7.85475 28.6994ZM13.5212 32.4377C15.6986 33.0128 18.1149 33.288 20.752 33.288V29.288C18.3864 29.288 16.3227 29.0405 14.5428 28.5703L13.5212 32.4377ZM20.752 33.288C23.3184 33.288 25.6669 33.012 27.7774 32.4327L26.7186 28.5753C25.0211 29.0413 23.039 29.288 20.752 29.288V33.288ZM27.8023 32.4256C30.1103 31.7599 32.0192 30.5273 33.4252 28.6994L30.2548 26.2606C29.4208 27.3447 28.2684 28.1281 26.6937 28.5824L27.8023 32.4256ZM33.4208 28.7051C34.9562 26.724 35.576 24.0526 35.576 20.984H31.576C31.576 23.5901 31.0384 25.2494 30.2592 26.2549L33.4208 28.7051ZM77.2013 0.767999V-1.232H76.2506L75.6503 -0.494705L77.2013 0.767999ZM86.2733 0.767999L87.7918 2.06958L90.6218 -1.232H86.2733V0.767999ZM69.1373 20.76L70.5515 22.1742L70.6058 22.1199L70.6558 22.0616L69.1373 20.76ZM68.9133 20.984L67.4991 19.5698L67.418 19.6508L67.3468 19.7406L68.9133 20.984ZM56.2013 37V39H57.1673L57.7678 38.2434L56.2013 37ZM47.1293 37L45.5979 35.7136L42.8373 39H47.1293V37ZM64.7693 16L63.3551 14.5858L63.2937 14.6472L63.2379 14.7136L64.7693 16ZM64.9373 15.832L66.3515 17.2462L66.4238 17.174L66.4883 17.0947L64.9373 15.832ZM56.7613 0.767999L58.3253 -0.478574L57.7248 -1.232H56.7613V0.767999ZM68.8573 15.944L70.5214 14.8346L70.4743 14.7639L70.4213 14.6974L68.8573 15.944ZM68.9693 16.112L67.3052 17.2214L67.3655 17.3118L67.4352 17.3952L68.9693 16.112ZM86.4413 37V39H90.7217L87.9754 35.7168L86.4413 37ZM76.9773 37L75.3945 38.2226L75.995 39H76.9773V37ZM64.4333 20.76L66.0161 19.5374L65.8156 19.2778L65.5427 19.0959L64.4333 20.76ZM64.2653 20.648L62.7292 21.9288L62.9148 22.1514L63.1559 22.3121L64.2653 20.648ZM47.6893 0.767999V-1.232H43.4177L46.1532 2.04879L47.6893 0.767999ZM77.2013 2.768H86.2733V-1.232H77.2013V2.768ZM84.7548 -0.533584L67.6188 19.4584L70.6558 22.0616L87.7918 2.06958L84.7548 -0.533584ZM67.7231 19.3458L67.4991 19.5698L70.3275 22.3982L70.5515 22.1742L67.7231 19.3458ZM67.3468 19.7406L54.6348 35.7566L57.7678 38.2434L70.4798 22.2274L67.3468 19.7406ZM56.2013 35H47.1293V39H56.2013V35ZM48.6607 38.2864L66.3007 17.2864L63.2379 14.7136L45.5979 35.7136L48.6607 38.2864ZM66.1835 17.4142L66.3515 17.2462L63.5231 14.4178L63.3551 14.5858L66.1835 17.4142ZM66.4883 17.0947L78.7523 2.0307L75.6503 -0.494705L63.3863 14.5693L66.4883 17.0947ZM55.1973 2.01457L67.2933 17.1906L70.4213 14.6974L58.3253 -0.478574L55.1973 2.01457ZM67.1932 17.0534L67.3052 17.2214L70.6334 15.0026L70.5214 14.8346L67.1932 17.0534ZM67.4352 17.3952L84.9072 38.2832L87.9754 35.7168L70.5034 14.8288L67.4352 17.3952ZM86.4413 35H76.9773V39H86.4413V35ZM78.5601 35.7774L66.0161 19.5374L62.8505 21.9826L75.3945 38.2226L78.5601 35.7774ZM65.5427 19.0959L65.3747 18.9839L63.1559 22.3121L63.3239 22.4241L65.5427 19.0959ZM65.8014 19.3672L49.2254 -0.512795L46.1532 2.04879L62.7292 21.9288L65.8014 19.3672ZM47.6893 2.768H56.7613V-1.232H47.6893V2.768ZM137.372 2.224L138.043 0.33993L138.043 0.33993L137.372 2.224ZM143.868 6.2L142.422 7.58172L142.438 7.59814L142.454 7.61421L143.868 6.2ZM147.34 11.912L145.43 12.5048L145.435 12.5197L145.44 12.5346L147.34 11.912ZM147.228 25.632L145.344 24.9614L145.339 24.9756L145.334 24.9899L147.228 25.632ZM143.588 31.512L142.159 30.1134L142.158 30.1138L143.588 31.512ZM137.036 35.544L137.716 37.4251L137.723 37.4225L137.73 37.4198L137.036 35.544ZM106.46 37H104.46V39H106.46V37ZM106.46 0.767999V-1.232H104.46V0.767999H106.46ZM113.908 30.616H111.908V32.616H113.908V30.616ZM133.676 29.664L134.357 31.5448L134.368 31.5408L134.379 31.5367L133.676 29.664ZM137.932 26.976L139.395 28.3406L139.395 28.3406L137.932 26.976ZM140.172 23.168L138.265 22.5657L138.265 22.5657L140.172 23.168ZM140.172 14.376L138.27 14.993L138.27 14.993L140.172 14.376ZM137.932 10.68L139.371 9.29081L139.371 9.29081L137.932 10.68ZM133.676 8.104L132.996 9.98479L133.009 9.98925L133.676 8.104ZM113.908 7.152V5.152H111.908V7.152H113.908ZM127.18 2.768C131.107 2.768 134.26 3.23837 136.701 4.10806L138.043 0.33993C135.035 -0.73171 131.393 -1.232 127.18 -1.232V2.768ZM136.701 4.10806C139.203 4.99914 141.079 6.17583 142.422 7.58172L145.314 4.81828C143.447 2.86417 140.992 1.39019 138.043 0.33993L136.701 4.10806ZM142.454 7.61421C143.873 9.03325 144.857 10.6573 145.43 12.5048L149.251 11.3192C148.48 8.83604 147.149 6.65208 145.283 4.78579L142.454 7.61421ZM145.44 12.5346C146.08 14.4894 146.404 16.5558 146.404 18.744H150.404C150.404 16.1535 150.019 13.6653 149.241 11.2894L145.44 12.5346ZM146.404 18.744C146.404 20.9099 146.05 22.9787 145.344 24.9614L149.113 26.3026C149.975 23.8799 150.404 21.3568 150.404 18.744H146.404ZM145.334 24.9899C144.687 26.8993 143.636 28.603 142.159 30.1134L145.018 32.9106C146.901 30.9863 148.276 28.77 149.123 26.2741L145.334 24.9899ZM142.158 30.1138C140.766 31.538 138.854 32.7392 136.343 33.6682L137.73 37.4198C140.669 36.3328 143.126 34.846 145.018 32.9102L142.158 30.1138ZM136.357 33.6629C133.95 34.5323 130.909 35 127.18 35V39C131.217 39 134.747 38.497 137.716 37.4251L136.357 33.6629ZM127.18 35H106.46V39H127.18V35ZM108.46 37V0.767999H104.46V37H108.46ZM106.46 2.768H127.18V-1.232H106.46V2.768ZM113.908 32.616H127.012V28.616H113.908V32.616ZM127.012 32.616C129.839 32.616 132.311 32.2848 134.357 31.5448L132.996 27.7832C131.533 28.3125 129.562 28.616 127.012 28.616V32.616ZM134.379 31.5367C136.389 30.7826 138.093 29.7355 139.395 28.3406L136.47 25.6114C135.682 26.4565 134.547 27.2014 132.974 27.7913L134.379 31.5367ZM139.395 28.3406C140.637 27.0095 141.539 25.4816 142.08 23.7703L138.265 22.5657C137.91 23.6917 137.319 24.7025 136.47 25.6114L139.395 28.3406ZM142.08 23.7703C142.591 22.1512 142.844 20.473 142.844 18.744H138.844C138.844 20.0763 138.65 21.3475 138.265 22.5657L142.08 23.7703ZM142.844 18.744C142.844 17.0152 142.591 15.3502 142.075 13.759L138.27 14.993C138.65 16.1645 138.844 17.4115 138.844 18.744H142.844ZM142.075 13.759C141.53 12.0777 140.62 10.5841 139.371 9.29081L136.494 12.0692C137.336 12.9413 137.919 13.9116 138.27 14.993L142.075 13.759ZM139.371 9.29081C138.062 7.93449 136.353 6.93033 134.344 6.21874L133.009 9.98925C134.584 10.547 135.713 11.2602 136.494 12.0692L139.371 9.29081ZM134.357 6.22325C132.311 5.48318 129.839 5.152 127.012 5.152V9.152C129.562 9.152 131.533 9.45548 132.996 9.98475L134.357 6.22325ZM127.012 5.152H113.908V9.152H127.012V5.152ZM111.908 7.152V30.616H115.908V7.152H111.908ZM163.127 21.88V19.88H161.127V21.88H163.127ZM163.127 30.784H161.127V32.784H163.127V30.784ZM191.071 30.784H193.071V28.784H191.071V30.784ZM191.071 37V39H193.071V37H191.071ZM155.679 37H153.679V39H155.679V37ZM155.679 0.767999V-1.232H153.679V0.767999H155.679ZM191.015 0.767999H193.015V-1.232H191.015V0.767999ZM191.015 6.984V8.984H193.015V6.984H191.015ZM163.127 6.984V4.984H161.127V6.984H163.127ZM163.127 16H161.127V18H163.127V16ZM185.975 16H187.975V14H185.975V16ZM185.975 21.88V23.88H187.975V21.88H185.975ZM161.127 21.88V30.784H165.127V21.88H161.127ZM163.127 32.784H191.071V28.784H163.127V32.784ZM189.071 30.784V37H193.071V30.784H189.071ZM191.071 35H155.679V39H191.071V35ZM157.679 37V0.767999H153.679V37H157.679ZM155.679 2.768H191.015V-1.232H155.679V2.768ZM189.015 0.767999V6.984H193.015V0.767999H189.015ZM191.015 4.984H163.127V8.984H191.015V4.984ZM161.127 6.984V16H165.127V6.984H161.127ZM163.127 18H185.975V14H163.127V18ZM183.975 16V21.88H187.975V16H183.975ZM185.975 19.88H163.127V23.88H185.975V19.88ZM196.31 24.792V22.792H194.464L194.317 24.6325L196.31 24.792ZM203.87 24.792L205.857 24.5583L205.649 22.792H203.87V24.792ZM205.606 28.264L204.167 29.6523L204.192 29.6784L204.218 29.7037L205.606 28.264ZM209.694 30.672L209.024 32.5564L209.043 32.5631L209.062 32.5694L209.694 30.672ZM220.054 30.896L220.687 32.7934L220.687 32.7934L220.054 30.896ZM222.798 29.16L224.36 30.4094L224.36 30.4094L222.798 29.16ZM222.574 24.176L221.374 25.776L221.4 25.7957L221.427 25.8145L222.574 24.176ZM219.046 22.832L218.593 24.78L218.615 24.785L218.637 24.7896L219.046 22.832ZM212.718 21.712L212.43 23.6912L212.435 23.6919L212.718 21.712ZM206.894 20.48L206.309 22.3924L206.327 22.3979L206.345 22.403L206.894 20.48ZM202.022 18.352L200.966 20.0506L200.976 20.0568L200.987 20.063L202.022 18.352ZM198.718 15.216L197.017 16.267L197.035 16.2965L197.054 16.3254L198.718 15.216ZM199.334 5.136L197.748 3.91836L197.739 3.9301L197.73 3.94198L199.334 5.136ZM204.766 1.384L204.064 -0.488661L204.064 -0.488661L204.766 1.384ZM225.598 3.4L224.349 4.96174L224.36 4.97086L224.372 4.97982L225.598 3.4ZM229.742 12.528V14.528H231.704L231.742 12.5665L229.742 12.528ZM222.462 12.528L220.467 12.6633L220.593 14.528H222.462V12.528ZM219.662 7.768L218.662 9.49973L218.67 9.50447L218.678 9.50912L219.662 7.768ZM207.342 7.376L206.518 5.55378L206.51 5.55754L206.501 5.56138L207.342 7.376ZM205.606 12.808L203.979 13.9705L203.999 13.9993L204.021 14.0274L205.606 12.808ZM207.51 14.096L206.741 15.9422L206.741 15.9422L207.51 14.096ZM211.15 15.16L211.579 13.2065L211.579 13.2065L211.15 15.16ZM216.862 16.168L216.57 18.1466L216.584 18.1486L216.862 16.168ZM222.63 17.4L222.048 19.3133L222.072 19.3208L222.097 19.3276L222.63 17.4ZM227.11 19.36L226.001 21.0241L226.03 21.0434L226.059 21.0616L227.11 19.36ZM230.022 22.384L228.266 23.3417L230.022 22.384ZM229.294 32.688L227.659 31.5361L227.654 31.5436L229.294 32.688ZM224.03 36.44L223.328 34.5673L223.318 34.571L224.03 36.44ZM207.734 36.944L207.176 38.8644L207.192 38.8691L207.208 38.8735L207.734 36.944ZM202.414 34.592L201.324 36.2689L201.324 36.2689L202.414 34.592ZM198.774 31.4L197.217 32.6555L197.217 32.6555L198.774 31.4ZM196.758 27.928L194.855 28.542L194.864 28.5695L194.873 28.5968L196.758 27.928ZM196.31 26.792H203.87V22.792H196.31V26.792ZM201.884 25.0257C202.091 26.7874 202.898 28.3371 204.167 29.6523L207.046 26.8757C206.298 26.1003 205.948 25.3353 205.857 24.5583L201.884 25.0257ZM204.218 29.7037C205.51 30.9491 207.136 31.8849 209.024 32.5564L210.364 28.7876C208.893 28.2644 207.794 27.5949 206.995 26.8243L204.218 29.7037ZM209.062 32.5694C210.979 33.2083 213.082 33.512 215.35 33.512V29.512C213.437 29.512 211.77 29.2557 210.327 28.7746L209.062 32.5694ZM215.35 33.512C217.379 33.512 219.18 33.2957 220.687 32.7934L219.422 28.9986C218.465 29.3176 217.13 29.512 215.35 29.512V33.512ZM220.687 32.7934C222.157 32.3032 223.45 31.547 224.36 30.4094L221.237 27.9106C220.952 28.2663 220.415 28.6675 219.422 28.9986L220.687 32.7934ZM224.36 30.4094C225.268 29.2744 225.694 27.9264 225.694 26.472H221.694C221.694 27.1083 221.523 27.5523 221.237 27.9106L224.36 30.4094ZM225.694 26.472C225.694 24.8921 225.065 23.4785 223.721 22.5375L221.427 25.8145C221.576 25.9189 221.694 26.0359 221.694 26.472H225.694ZM223.774 22.576C222.679 21.7543 221.163 21.2316 219.456 20.8744L218.637 24.7896C220.141 25.1044 220.976 25.4777 221.374 25.776L223.774 22.576ZM219.499 20.884C217.815 20.4922 215.642 20.1094 213.001 19.7321L212.435 23.6919C215.021 24.0613 217.067 24.4251 218.593 24.78L219.499 20.884ZM213.006 19.7328C211.033 19.4459 209.18 19.053 207.444 18.557L206.345 22.403C208.267 22.9523 210.297 23.3808 212.43 23.6912L213.006 19.7328ZM207.48 18.5676C205.785 18.0487 204.316 17.4023 203.058 16.641L200.987 20.063C202.566 21.019 204.345 21.7913 206.309 22.3924L207.48 18.5676ZM203.078 16.6534C201.915 15.9305 201.03 15.0785 200.382 14.1066L197.054 16.3254C198.049 17.8175 199.367 19.0562 200.966 20.0506L203.078 16.6534ZM200.42 14.165C199.859 13.2569 199.542 12.1393 199.542 10.736H195.542C195.542 12.7674 196.01 14.6364 197.017 16.267L200.42 14.165ZM199.542 10.736C199.542 9.00914 200.018 7.56765 200.939 6.33002L197.73 3.94198C196.261 5.91501 195.542 8.20685 195.542 10.736H199.542ZM200.921 6.35364C201.873 5.11351 203.339 4.05533 205.468 3.25666L204.064 -0.488661C201.415 0.504666 199.26 1.94782 197.748 3.91836L200.921 6.35364ZM205.468 3.25666C207.568 2.4692 210.245 2.04 213.558 2.04V-1.96C209.927 -1.96 206.743 -1.49321 204.064 -0.488661L205.468 3.25666ZM213.558 2.04C218.532 2.04 222.034 3.1098 224.349 4.96174L226.848 1.83826C223.563 -0.789802 219.038 -1.96 213.558 -1.96V2.04ZM224.372 4.97982C226.665 6.76026 227.806 9.17865 227.743 12.4895L231.742 12.5665C231.828 8.11202 230.206 4.44507 226.825 1.82018L224.372 4.97982ZM229.742 10.528H222.462V14.528H229.742V10.528ZM224.458 12.3927C224.269 9.61285 223.027 7.37251 220.646 6.02687L218.678 9.50912C219.732 10.1048 220.357 11.0378 220.467 12.6633L224.458 12.3927ZM220.663 6.03627C218.595 4.84143 216.094 4.312 213.278 4.312V8.312C215.614 8.312 217.37 8.75323 218.662 9.49973L220.663 6.03627ZM213.278 4.312C210.708 4.312 208.425 4.69107 206.518 5.55378L208.167 9.19821C209.396 8.64226 211.07 8.312 213.278 8.312V4.312ZM206.501 5.56138C205.449 6.04905 204.551 6.7645 203.929 7.75099C203.308 8.73521 203.046 9.85487 203.046 11.016H207.046C207.046 10.4598 207.167 10.1141 207.312 9.885C207.455 9.65816 207.705 9.41228 208.183 9.19062L206.501 5.56138ZM203.046 11.016C203.046 12.0843 203.352 13.0923 203.979 13.9705L207.234 11.6455C207.114 11.4784 207.046 11.2917 207.046 11.016H203.046ZM204.021 14.0274C204.697 14.9059 205.694 15.5057 206.741 15.9422L208.279 12.2498C207.535 11.9396 207.262 11.6807 207.191 11.5886L204.021 14.0274ZM206.741 15.9422C207.793 16.3805 209.136 16.7654 210.721 17.1135L211.579 13.2065C210.103 12.8826 209.02 12.5582 208.279 12.2498L206.741 15.9422ZM210.721 17.1135C212.313 17.4629 214.266 17.8066 216.57 18.1466L217.154 14.1894C214.904 13.8574 213.049 13.5291 211.579 13.2065L210.721 17.1135ZM216.584 18.1486C218.629 18.4355 220.447 18.8262 222.048 19.3133L223.213 15.4867C221.379 14.9285 219.352 14.4978 217.14 14.1874L216.584 18.1486ZM222.097 19.3276C223.692 19.7688 224.981 20.3441 226.001 21.0241L228.22 17.6959C226.776 16.7332 225.078 16.0019 223.163 15.4724L222.097 19.3276ZM226.059 21.0616C227.052 21.675 227.771 22.434 228.266 23.3417L231.778 21.4263C230.929 19.87 229.707 18.613 228.161 17.6584L226.059 21.0616ZM228.266 23.3417C228.74 24.2096 229.03 25.3721 229.03 26.92H233.03C233.03 24.8839 232.649 23.0224 231.778 21.4263L228.266 23.3417ZM229.03 26.92C229.03 28.7518 228.556 30.2631 227.659 31.5361L230.929 33.8399C232.347 31.8276 233.03 29.4935 233.03 26.92H229.03ZM227.654 31.5436C226.827 32.7292 225.452 33.7707 223.328 34.5673L224.732 38.3127C227.387 37.3173 229.522 35.8574 230.935 33.8324L227.654 31.5436ZM223.318 34.571C221.277 35.3485 218.483 35.784 214.846 35.784V39.784C218.751 39.784 222.079 39.3235 224.742 38.309L223.318 34.571ZM214.846 35.784C212.292 35.784 210.104 35.5173 208.26 35.0145L207.208 38.8735C209.471 39.4907 212.025 39.784 214.846 39.784V35.784ZM208.293 35.0236C206.391 34.4704 204.804 33.7602 203.504 32.9151L201.324 36.2689C203.011 37.3652 204.971 38.2229 207.176 38.8644L208.293 35.0236ZM203.504 32.9151C202.154 32.0374 201.109 31.1089 200.331 30.1445L197.217 32.6555C198.306 34.0058 199.688 35.2053 201.324 36.2689L203.504 32.9151ZM200.331 30.1445C199.51 29.127 198.964 28.1644 198.643 27.2592L194.873 28.5968C195.374 30.0063 196.171 31.3584 197.217 32.6555L200.331 30.1445ZM198.662 27.314C198.346 26.335 198.255 25.5582 198.304 24.9515L194.317 24.6325C194.216 25.8924 194.424 27.2063 194.855 28.542L198.662 27.314ZM238.665 0.767999V-1.232H236.665V0.767999H238.665ZM246.113 0.767999H248.113V-1.232H246.113V0.767999ZM246.113 37V39H248.113V37H246.113ZM238.665 37H236.665V39H238.665V37ZM238.665 2.768H246.113V-1.232H238.665V2.768ZM244.113 0.767999V37H248.113V0.767999H244.113ZM246.113 35H238.665V39H246.113V35ZM240.665 37V0.767999H236.665V37H240.665ZM267.461 36.552L266.901 38.472L266.908 38.4741L267.461 36.552ZM260.461 33.024L259.205 34.5799L259.212 34.5857L259.219 34.5915L260.461 33.024ZM255.981 27.2L254.159 28.0232L254.159 28.0232L255.981 27.2ZM256.037 11.072L254.226 10.2231L254.221 10.2357L256.037 11.072ZM260.741 5.024L259.492 3.46226L259.485 3.46786L259.478 3.47353L260.741 5.024ZM268.021 1.328L268.584 3.24714L268.592 3.24473L268.601 3.24226L268.021 1.328ZM287.957 1.776L287.227 3.63779L287.237 3.64181L287.247 3.64572L287.957 1.776ZM294.901 6.536L293.353 7.80247L293.36 7.81083L293.367 7.81911L294.901 6.536ZM297.813 13.872V15.872H299.977L299.807 13.7146L297.813 13.872ZM290.645 13.872L288.743 14.4902L289.192 15.872H290.645V13.872ZM288.237 10.008L286.799 11.398L286.823 11.4224L286.847 11.446L288.237 10.008ZM283.925 7.432L283.258 9.31725L283.275 9.32347L283.293 9.32937L283.925 7.432ZM269.085 8.048L268.262 6.22522L268.251 6.23034L269.085 8.048ZM263.877 12.472L265.571 13.535L265.571 13.535L263.877 12.472ZM263.653 25.688L261.917 26.6803L261.921 26.688L261.926 26.6957L263.653 25.688ZM268.469 29.832L267.651 31.6571L267.663 31.6622L268.469 29.832ZM283.757 30.28L284.4 32.1738L284.411 32.1703L284.421 32.1666L283.757 30.28ZM288.797 27.48L290.102 28.9955L290.114 28.9853L290.126 28.9748L288.797 27.48ZM291.653 23.504L290.967 21.6255L290.113 21.9375L289.787 22.786L291.653 23.504ZM294.565 22.44L296.555 22.6405L296.875 19.4667L293.879 20.5615L294.565 22.44ZM289.077 33.696L287.785 32.1699L287.776 32.1775L289.077 33.696ZM292.661 37H290.661V39H292.661V37ZM292.885 33.024L294.875 33.223L294.876 33.2182L292.885 33.024ZM293.445 28.432L295.424 28.7216L295.425 28.7148L293.445 28.432ZM294.061 24.12L296.041 24.4028L296.367 22.12H294.061V24.12ZM277.485 24.12H275.485V26.12H277.485V24.12ZM277.485 19.36V17.36H275.485V19.36H277.485ZM299.101 19.36H301.101V17.36H299.101V19.36ZM299.101 37V39H301.101V37H299.101ZM276.589 35.728C273.383 35.728 270.53 35.3537 268.014 34.6299L266.908 38.4741C269.843 39.3183 273.076 39.728 276.589 39.728V35.728ZM268.021 34.632C265.554 33.9124 263.459 32.8474 261.703 31.4565L259.219 34.5915C261.421 36.3366 263.992 37.6236 266.901 38.472L268.021 34.632ZM261.718 31.4681C260.025 30.1003 258.723 28.4116 257.804 26.3768L254.159 28.0232C255.33 30.6177 257.015 32.8117 259.205 34.5799L261.718 31.4681ZM257.804 26.3768C256.896 24.3654 256.413 21.9855 256.413 19.192H252.413C252.413 22.4465 252.976 25.4052 254.159 28.0232L257.804 26.3768ZM256.413 19.192C256.413 16.3673 256.912 13.9545 257.854 11.9083L254.221 10.2357C252.997 12.8935 252.413 15.894 252.413 19.192H256.413ZM257.848 11.9209C258.843 9.79941 260.225 8.02449 262.005 6.57447L259.478 3.47353C257.226 5.30884 255.472 7.56592 254.226 10.2231L257.848 11.9209ZM261.991 6.58574C263.819 5.12272 266.007 4.00321 268.584 3.24714L267.458 -0.591139C264.436 0.295451 261.77 1.63995 259.492 3.46226L261.991 6.58574ZM268.601 3.24226C271.223 2.44862 274.161 2.04 277.429 2.04V-1.96C273.829 -1.96 270.494 -1.50996 267.442 -0.586262L268.601 3.24226ZM277.429 2.04C281.317 2.04 284.566 2.59368 287.227 3.63779L288.688 -0.0857896C285.45 -1.35634 281.681 -1.96 277.429 -1.96V2.04ZM287.247 3.64572C289.931 4.66503 291.934 6.06726 293.353 7.80247L296.449 5.26952C294.509 2.89807 291.882 1.12697 288.667 -0.093725L287.247 3.64572ZM293.367 7.81911C294.801 9.53332 295.626 11.5782 295.82 14.0294L299.807 13.7146C299.553 10.4911 298.436 7.64534 296.435 5.25289L293.367 7.81911ZM297.813 11.872H290.645V15.872H297.813V11.872ZM292.547 13.2538C291.962 11.4521 290.984 9.88188 289.627 8.57002L286.847 11.446C287.73 12.2995 288.358 13.3053 288.743 14.4902L292.547 13.2538ZM289.675 8.61795C288.326 7.22224 286.591 6.21236 284.558 5.53463L283.293 9.32937C284.844 9.84631 285.983 10.5538 286.799 11.398L289.675 8.61795ZM284.593 5.54675C282.528 4.81545 280.124 4.48 277.429 4.48V8.48C279.812 8.48 281.738 8.77921 283.258 9.31725L284.593 5.54675ZM277.429 4.48C273.974 4.48 270.897 5.03533 268.262 6.22526L269.908 9.87074C271.903 8.97 274.389 8.48 277.429 8.48V4.48ZM268.251 6.23034C265.662 7.41883 263.608 9.13796 262.183 11.409L265.571 13.535C266.536 11.998 267.954 10.7678 269.92 9.86566L268.251 6.23034ZM262.183 11.409C260.761 13.676 260.085 16.2961 260.085 19.192H264.085C264.085 16.9359 264.605 15.076 265.571 13.535L262.183 11.409ZM260.085 19.192C260.085 21.976 260.669 24.4966 261.917 26.6803L265.39 24.6957C264.547 23.2207 264.085 21.4107 264.085 19.192H260.085ZM261.926 26.6957C263.211 28.8988 265.162 30.541 267.651 31.657L269.287 28.007C267.446 27.1816 266.186 26.0612 265.381 24.6803L261.926 26.6957ZM267.663 31.6622C270.201 32.7809 273.3 33.288 276.869 33.288V29.288C273.644 29.288 271.142 28.8244 269.276 28.0018L267.663 31.6622ZM276.869 33.288C279.649 33.288 282.17 32.9312 284.4 32.1738L283.114 28.3862C281.387 28.9728 279.316 29.288 276.869 29.288V33.288ZM284.421 32.1666C286.625 31.3911 288.535 30.345 290.102 28.9955L287.492 25.9645C286.371 26.9297 284.921 27.7502 283.094 28.3934L284.421 32.1666ZM290.126 28.9748C291.672 27.6004 292.829 26.0188 293.52 24.222L289.787 22.786C289.358 23.9012 288.61 24.9702 287.469 25.9852L290.126 28.9748ZM292.34 25.3825L295.252 24.3185L293.879 20.5615L290.967 21.6255L292.34 25.3825ZM292.575 22.2395C292.133 26.6308 290.498 29.8714 287.785 32.1699L290.37 35.2221C294.003 32.1445 296.027 27.8812 296.555 22.6405L292.575 22.2395ZM287.776 32.1775C285.088 34.4815 281.427 35.728 276.589 35.728V39.728C282.13 39.728 286.795 38.2865 290.379 35.2145L287.776 32.1775ZM294.661 37C294.661 35.9252 294.731 34.6684 294.875 33.223L290.895 32.825C290.741 34.3662 290.661 35.7601 290.661 37H294.661ZM294.876 33.2182C295.022 31.7196 295.205 30.2208 295.424 28.7216L291.466 28.1424C291.238 29.7046 291.047 31.2671 290.895 32.8298L294.876 33.2182ZM295.425 28.7148C295.649 27.1468 295.855 25.7095 296.041 24.4028L292.081 23.8372C291.895 25.1438 291.689 26.5812 291.465 28.1492L295.425 28.7148ZM294.061 22.12H277.485V26.12H294.061V22.12ZM279.485 24.12V19.36H275.485V24.12H279.485ZM277.485 21.36H299.101V17.36H277.485V21.36ZM297.101 19.36V37H301.101V19.36H297.101ZM299.101 35H292.661V39H299.101V35ZM343.681 29.608L344.431 31.4619L347.254 30.3194L345.084 28.1829L343.681 29.608ZM341.329 30.56H339.329V33.5271L342.079 32.4139L341.329 30.56ZM341.329 0.767999V-1.232H339.329V0.767999H341.329ZM348.777 0.767999H350.777V-1.232H348.777V0.767999ZM348.777 37V39H350.777V37H348.777ZM341.329 37L339.931 38.4305L340.514 39H341.329V37ZM312.041 8.384L311.29 6.5301L308.456 7.67744L310.643 9.81453L312.041 8.384ZM314.393 7.432H316.393V4.46486L313.642 5.57811L314.393 7.432ZM314.393 37V39H316.393V37H314.393ZM306.945 37H304.945V39H306.945V37ZM306.945 0.767999V-1.232H304.945V0.767999H306.945ZM314.393 0.767999L315.796 -0.657072L315.212 -1.232H314.393V0.767999ZM342.93 27.7541L340.578 28.7061L342.079 32.4139L344.431 31.4619L342.93 27.7541ZM343.329 30.56V0.767999H339.329V30.56H343.329ZM341.329 2.768H348.777V-1.232H341.329V2.768ZM346.777 0.767999V37H350.777V0.767999H346.777ZM348.777 35H341.329V39H348.777V35ZM342.727 35.5695L313.439 6.95347L310.643 9.81453L339.931 38.4305L342.727 35.5695ZM312.791 10.2379L315.143 9.28589L313.642 5.57811L311.29 6.5301L312.791 10.2379ZM312.393 7.432V37H316.393V7.432H312.393ZM314.393 35H306.945V39H314.393V35ZM308.945 37V0.767999H304.945V37H308.945ZM306.945 2.768H314.393V-1.232H306.945V2.768ZM312.99 2.19307L342.278 31.0331L345.084 28.1829L315.796 -0.657072L312.99 2.19307ZM364.869 21.88V19.88H362.869V21.88H364.869ZM364.869 30.784H362.869V32.784H364.869V30.784ZM392.813 30.784H394.813V28.784H392.813V30.784ZM392.813 37V39H394.813V37H392.813ZM357.421 37H355.421V39H357.421V37ZM357.421 0.767999V-1.232H355.421V0.767999H357.421ZM392.757 0.767999H394.757V-1.232H392.757V0.767999ZM392.757 6.984V8.984H394.757V6.984H392.757ZM364.869 6.984V4.984H362.869V6.984H364.869ZM364.869 16H362.869V18H364.869V16ZM387.717 16H389.717V14H387.717V16ZM387.717 21.88V23.88H389.717V21.88H387.717ZM362.869 21.88V30.784H366.869V21.88H362.869ZM364.869 32.784H392.813V28.784H364.869V32.784ZM390.813 30.784V37H394.813V30.784H390.813ZM392.813 35H357.421V39H392.813V35ZM359.421 37V0.767999H355.421V37H359.421ZM357.421 2.768H392.757V-1.232H357.421V2.768ZM390.757 0.767999V6.984H394.757V0.767999H390.757ZM392.757 4.984H364.869V8.984H392.757V4.984ZM362.869 6.984V16H366.869V6.984H362.869ZM364.869 18H387.717V14H364.869V18ZM385.717 16V21.88H389.717V16H385.717ZM387.717 19.88H364.869V23.88H387.717V19.88ZM400.46 37H398.46V39H400.46V37ZM400.46 0.767999V-1.232H398.46V0.767999H400.46ZM432.324 1.944L431.611 3.81243L431.631 3.82018L431.652 3.82748L432.324 1.944ZM437.196 5.528L435.561 6.67991L435.568 6.68879L435.574 6.6976L437.196 5.528ZM438.036 16.112L436.248 15.2176L436.248 15.2176L438.036 16.112ZM435.516 19.024L434.381 17.3776L434.367 17.3869L434.354 17.3965L435.516 19.024ZM431.876 20.76L432.398 22.6907L432.422 22.6842L432.446 22.6771L431.876 20.76ZM427.452 21.488L426.46 23.2245L426.988 23.5263L427.595 23.4829L427.452 21.488ZM426.668 21.04L426.697 19.0402L425.676 22.7765L426.668 21.04ZM433.108 21.712L432.634 23.6548L432.654 23.6598L432.675 23.6644L433.108 21.712ZM436.86 23.84L435.288 25.0756L435.312 25.1068L435.338 25.1369L436.86 23.84ZM438.148 37V39H440.148V37H438.148ZM430.7 37H428.7V39H430.7V37ZM429.972 25.688L428.272 26.7407L428.284 26.7595L428.296 26.778L429.972 25.688ZM427.34 24.064L426.869 26.0077L426.882 26.0108L427.34 24.064ZM407.908 23.616V21.616H405.908V23.616H407.908ZM407.908 37V39H409.908V37H407.908ZM407.908 17.792H405.908V19.792H407.908V17.792ZM429.804 16.28L428.467 14.7934L428.454 14.8047L428.442 14.8162L429.804 16.28ZM429.804 8.44L428.562 10.007L428.575 10.0172L428.588 10.0272L429.804 8.44ZM407.908 7.152V5.152H405.908V7.152H407.908ZM402.46 37V0.767999H398.46V37H402.46ZM400.46 2.768H425.044V-1.232H400.46V2.768ZM425.044 2.768C427.664 2.768 429.838 3.1356 431.611 3.81243L433.038 0.0755602C430.704 -0.815603 428.024 -1.232 425.044 -1.232V2.768ZM431.652 3.82748C433.397 4.4506 434.667 5.40971 435.561 6.67991L438.831 4.37609C437.412 2.36095 435.434 0.930729 432.997 0.060514L431.652 3.82748ZM435.574 6.6976C436.424 7.87714 436.932 9.50624 436.932 11.744H440.932C440.932 8.90442 440.283 6.38952 438.819 4.35839L435.574 6.6976ZM436.932 11.744C436.932 13.2367 436.672 14.3684 436.248 15.2176L439.825 17.0064C440.595 15.4663 440.932 13.6859 440.932 11.744H436.932ZM436.248 15.2176C435.799 16.1154 435.181 16.8255 434.381 17.3776L436.652 20.6704C438.017 19.7291 439.08 18.4979 439.825 17.0064L436.248 15.2176ZM434.354 17.3965C433.509 17.9999 432.501 18.4877 431.306 18.8429L432.446 22.6771C434.014 22.2109 435.433 21.5414 436.679 20.6515L434.354 17.3965ZM431.355 18.8293C430.109 19.166 428.762 19.3894 427.31 19.4931L427.595 23.4829C429.279 23.3626 430.881 23.1007 432.398 22.6907L431.355 18.8293ZM428.445 19.7515L427.661 19.3035L425.676 22.7765L426.46 23.2245L428.445 19.7515ZM426.64 23.0398C429.171 23.076 431.154 23.293 432.634 23.6548L433.583 19.7692C431.703 19.3096 429.393 19.0787 426.697 19.0402L426.64 23.0398ZM432.675 23.6644C434.038 23.9674 434.827 24.489 435.288 25.0756L438.433 22.6044C437.251 21.1003 435.539 20.2032 433.542 19.7596L432.675 23.6644ZM435.338 25.1369C435.763 25.6356 436.148 26.5969 436.148 28.376H440.148C440.148 26.1231 439.675 24.0604 438.383 22.5431L435.338 25.1369ZM436.148 28.376V37H440.148V28.376H436.148ZM438.148 35H430.7V39H438.148V35ZM432.7 37V28.88H428.7V37H432.7ZM432.7 28.88C432.7 27.3087 432.432 25.8021 431.649 24.598L428.296 26.778C428.484 27.0673 428.7 27.6887 428.7 28.88H432.7ZM431.673 24.6353C430.81 23.2412 429.368 22.4864 427.799 22.1172L426.882 26.0108C427.852 26.2389 428.164 26.5668 428.272 26.7407L431.673 24.6353ZM427.812 22.1203C426.346 21.765 424.365 21.616 421.964 21.616V25.616C424.268 25.616 425.871 25.7657 426.869 26.0077L427.812 22.1203ZM421.964 21.616H407.908V25.616H421.964V21.616ZM405.908 23.616V37H409.908V23.616H405.908ZM407.908 35H400.46V39H407.908V35ZM407.908 19.792H425.044V15.792H407.908V19.792ZM425.044 19.792C427.432 19.792 429.586 19.2165 431.167 17.7438L428.442 14.8162C427.858 15.3595 426.839 15.792 425.044 15.792V19.792ZM431.142 17.7666C432.745 16.3244 433.484 14.3887 433.484 12.192H429.484C429.484 13.43 429.104 14.2196 428.467 14.7934L431.142 17.7666ZM433.484 12.192C433.484 10.0426 432.72 8.15497 431.021 6.85278L428.588 10.0272C429.129 10.4424 429.484 11.0561 429.484 12.192H433.484ZM431.047 6.873C429.47 5.62214 427.366 5.152 425.044 5.152V9.152C426.905 9.152 427.973 9.54052 428.562 10.007L431.047 6.873ZM425.044 5.152H407.908V9.152H425.044V5.152ZM405.908 7.152V17.792H409.908V7.152H405.908Z" fill="#CBCBCB" mask="url(#path-1-outside-1_303_1969)"/>
</svg>
