<svg width="212" height="38" viewBox="0 0 212 38" fill="none" xmlns="http://www.w3.org/2000/svg">
<mask id="path-1-outside-1_303_1972" maskUnits="userSpaceOnUse" x="-2" y="-2" width="217" height="42" fill="black">
<rect fill="white" x="-2" y="-2" width="217" height="42"/>
<path d="M35.648 0.767999V6.984H7.76V16.728H30.608V22.552H7.76V37H0.312V0.767999H35.648ZM42.8838 0.767999H50.3318V37H42.8838V0.767999ZM80.8081 37.728C77.4481 37.728 74.4054 37.336 71.6801 36.552C68.9921 35.768 66.6587 34.592 64.6801 33.024C62.7387 31.456 61.2454 29.5147 60.2001 27.2C59.1547 24.8853 58.6321 22.216 58.6321 19.192C58.6321 16.1307 59.1734 13.424 60.2561 11.072C61.3761 8.68267 62.9441 6.66667 64.9601 5.024C67.0134 3.38133 69.4401 2.14933 72.2401 1.328C75.0774 0.469332 78.2134 0.0399985 81.6481 0.0399985C85.7174 0.0399985 89.2267 0.618666 92.1761 1.776C95.1254 2.896 97.4401 4.48266 99.1201 6.536C100.837 8.58933 101.808 11.0347 102.032 13.872H94.8641C94.3787 12.3787 93.5761 11.0907 92.4561 10.008C91.3734 8.888 89.9361 8.02933 88.1441 7.432C86.3521 6.79733 84.1867 6.48 81.6481 6.48C78.4001 6.48 75.6187 7.00267 73.3041 8.048C71.0267 9.09333 69.2907 10.568 68.0961 12.472C66.9014 14.376 66.3041 16.616 66.3041 19.192C66.3041 21.6933 66.8267 23.8587 67.8721 25.688C68.9174 27.48 70.5227 28.8613 72.6881 29.832C74.8907 30.8027 77.6907 31.288 81.0881 31.288C83.7014 31.288 85.9974 30.952 87.9761 30.28C89.9921 29.5707 91.6721 28.6373 93.0161 27.48C94.3601 26.2853 95.3121 24.96 95.8721 23.504L98.7841 22.44C98.2987 27.256 96.4694 31.008 93.2961 33.696C90.1601 36.384 85.9974 37.728 80.8081 37.728ZM96.8801 37C96.8801 35.8427 96.9547 34.5173 97.1041 33.024C97.2534 31.4933 97.4401 29.9627 97.6641 28.432C97.8881 26.864 98.0934 25.4267 98.2801 24.12H81.7041V19.36H103.32V37H96.8801ZM139.332 33.304H135.804L156.636 0.767999H164.084V37H156.636V10.68L158.428 11.184L141.796 37H133.452L116.82 11.296L118.612 10.792V37H111.164V0.767999H118.612L139.332 33.304ZM178.343 29.104V22.888H202.311V29.104H178.343ZM169.327 37L186.351 0.767999H194.415L211.607 37H203.487L188.591 4.352H192.175L177.391 37H169.327Z"/>
</mask>
<path d="M35.648 0.767999H37.648V-1.232H35.648V0.767999ZM35.648 6.984V8.984H37.648V6.984H35.648ZM7.76 6.984V4.984H5.76V6.984H7.76ZM7.76 16.728H5.76V18.728H7.76V16.728ZM30.608 16.728H32.608V14.728H30.608V16.728ZM30.608 22.552V24.552H32.608V22.552H30.608ZM7.76 22.552V20.552H5.76V22.552H7.76ZM7.76 37V39H9.76V37H7.76ZM0.312 37H-1.688V39H0.312V37ZM0.312 0.767999V-1.232H-1.688V0.767999H0.312ZM33.648 0.767999V6.984H37.648V0.767999H33.648ZM35.648 4.984H7.76V8.984H35.648V4.984ZM5.76 6.984V16.728H9.76V6.984H5.76ZM7.76 18.728H30.608V14.728H7.76V18.728ZM28.608 16.728V22.552H32.608V16.728H28.608ZM30.608 20.552H7.76V24.552H30.608V20.552ZM5.76 22.552V37H9.76V22.552H5.76ZM7.76 35H0.312V39H7.76V35ZM2.312 37V0.767999H-1.688V37H2.312ZM0.312 2.768H35.648V-1.232H0.312V2.768ZM42.8838 0.767999V-1.232H40.8838V0.767999H42.8838ZM50.3318 0.767999H52.3318V-1.232H50.3318V0.767999ZM50.3318 37V39H52.3318V37H50.3318ZM42.8838 37H40.8838V39H42.8838V37ZM42.8838 2.768H50.3318V-1.232H42.8838V2.768ZM48.3318 0.767999V37H52.3318V0.767999H48.3318ZM50.3318 35H42.8838V39H50.3318V35ZM44.8838 37V0.767999H40.8838V37H44.8838ZM71.6801 36.552L71.1201 38.472L71.1271 38.4741L71.6801 36.552ZM64.6801 33.024L63.4234 34.5799L63.4306 34.5857L63.4379 34.5915L64.6801 33.024ZM60.2001 27.2L58.3773 28.0232L58.3773 28.0232L60.2001 27.2ZM60.2561 11.072L58.4451 10.2231L58.4393 10.2357L60.2561 11.072ZM64.9601 5.024L63.7107 3.46226L63.7037 3.46786L63.6967 3.47353L64.9601 5.024ZM72.2401 1.328L72.803 3.24714L72.8112 3.24473L72.8194 3.24226L72.2401 1.328ZM92.1761 1.776L91.4455 3.63779L91.4557 3.64181L91.466 3.64572L92.1761 1.776ZM99.1201 6.536L97.5721 7.80247L97.579 7.81083L97.5859 7.81911L99.1201 6.536ZM102.032 13.872V15.872H104.196L104.026 13.7146L102.032 13.872ZM94.8641 13.872L92.962 14.4902L93.4111 15.872H94.8641V13.872ZM92.4561 10.008L91.0181 11.398L91.0416 11.4224L91.066 11.446L92.4561 10.008ZM88.1441 7.432L87.4764 9.31725L87.4939 9.32347L87.5116 9.32937L88.1441 7.432ZM73.3041 8.048L72.4809 6.22522L72.4697 6.23034L73.3041 8.048ZM68.0961 12.472L69.7902 13.535L69.7902 13.535L68.0961 12.472ZM67.8721 25.688L66.1356 26.6803L66.14 26.688L66.1445 26.6957L67.8721 25.688ZM72.6881 29.832L71.8699 31.6571L71.8815 31.6622L72.6881 29.832ZM87.9761 30.28L88.6192 32.1738L88.6296 32.1703L88.6399 32.1666L87.9761 30.28ZM93.0161 27.48L94.3211 28.9955L94.333 28.9853L94.3448 28.9748L93.0161 27.48ZM95.8721 23.504L95.1857 21.6255L94.3317 21.9375L94.0054 22.786L95.8721 23.504ZM98.7841 22.44L100.774 22.6405L101.094 19.4667L98.0977 20.5615L98.7841 22.44ZM93.2961 33.696L92.0034 32.1699L91.9945 32.1775L93.2961 33.696ZM96.8801 37H94.8801V39H96.8801V37ZM97.1041 33.024L99.0941 33.223L99.0946 33.2182L97.1041 33.024ZM97.6641 28.432L99.643 28.7216L99.644 28.7148L97.6641 28.432ZM98.2801 24.12L100.26 24.4028L100.586 22.12H98.2801V24.12ZM81.7041 24.12H79.7041V26.12H81.7041V24.12ZM81.7041 19.36V17.36H79.7041V19.36H81.7041ZM103.32 19.36H105.32V17.36H103.32V19.36ZM103.32 37V39H105.32V37H103.32ZM80.8081 35.728C77.6016 35.728 74.749 35.3537 72.233 34.6299L71.1271 38.4741C74.0618 39.3183 77.2945 39.728 80.8081 39.728V35.728ZM72.2401 34.632C69.773 33.9124 67.6774 32.8474 65.9222 31.4565L63.4379 34.5915C65.64 36.3366 68.2111 37.6236 71.1201 38.472L72.2401 34.632ZM65.9367 31.4681C64.2433 30.1003 62.9417 28.4116 62.0228 26.3768L58.3773 28.0232C59.5491 30.6177 61.2342 32.8117 63.4234 34.5799L65.9367 31.4681ZM62.0228 26.3768C61.1144 24.3654 60.6321 21.9855 60.6321 19.192H56.6321C56.6321 22.4465 57.195 25.4052 58.3773 28.0232L62.0228 26.3768ZM60.6321 19.192C60.6321 16.3673 61.1309 13.9545 62.0728 11.9083L58.4393 10.2357C57.2159 12.8935 56.6321 15.894 56.6321 19.192H60.6321ZM62.067 11.9209C63.0614 9.79941 64.4438 8.02449 66.2234 6.57447L63.6967 3.47353C61.4443 5.30884 59.6907 7.56592 58.4451 10.2231L62.067 11.9209ZM66.2095 6.58574C68.0382 5.12272 70.2255 4.00321 72.803 3.24714L71.6771 -0.591139C68.6546 0.295451 65.9886 1.63995 63.7107 3.46226L66.2095 6.58574ZM72.8194 3.24226C75.4418 2.44862 78.3793 2.04 81.6481 2.04V-1.96C78.0475 -1.96 74.713 -1.50996 71.6607 -0.586262L72.8194 3.24226ZM81.6481 2.04C85.5353 2.04 88.7847 2.59368 91.4455 3.63779L92.9066 -0.0857896C89.6688 -1.35634 85.8995 -1.96 81.6481 -1.96V2.04ZM91.466 3.64572C94.1502 4.66503 96.1524 6.06726 97.5721 7.80247L100.668 5.26952C98.7277 2.89807 96.1006 1.12697 92.8861 -0.093725L91.466 3.64572ZM97.5859 7.81911C99.0196 9.53332 99.8448 11.5782 100.038 14.0294L104.026 13.7146C103.771 10.4911 102.655 7.64534 100.654 5.25289L97.5859 7.81911ZM102.032 11.872H94.8641V15.872H102.032V11.872ZM96.7661 13.2538C96.1806 11.4521 95.2032 9.88188 93.8461 8.57002L91.066 11.446C91.9489 12.2995 92.5769 13.3053 92.962 14.4902L96.7661 13.2538ZM93.894 8.61795C92.5449 7.22224 90.8097 6.21236 88.7765 5.53463L87.5116 9.32937C89.0624 9.84631 90.2019 10.5538 91.0181 11.398L93.894 8.61795ZM88.8118 5.54675C86.7469 4.81545 84.3426 4.48 81.6481 4.48V8.48C84.0308 8.48 85.9572 8.77921 87.4764 9.31725L88.8118 5.54675ZM81.6481 4.48C78.1925 4.48 75.1157 5.03533 72.4809 6.22526L74.1272 9.87074C76.1217 8.97 78.6077 8.48 81.6481 8.48V4.48ZM72.4697 6.23034C69.8805 7.41883 67.8269 9.13796 66.4019 11.409L69.7902 13.535C70.7545 11.998 72.1729 10.7678 74.1384 9.86566L72.4697 6.23034ZM66.4019 11.409C64.9795 13.676 64.3041 16.2961 64.3041 19.192H68.3041C68.3041 16.9359 68.8233 15.076 69.7902 13.535L66.4019 11.409ZM64.3041 19.192C64.3041 21.976 64.8878 24.4966 66.1356 26.6803L69.6085 24.6957C68.7657 23.2207 68.3041 21.4107 68.3041 19.192H64.3041ZM66.1445 26.6957C67.4296 28.8988 69.3805 30.541 71.87 31.657L73.5062 28.007C71.665 27.1816 70.4052 26.0612 69.5996 24.6803L66.1445 26.6957ZM71.8815 31.6622C74.4202 32.7809 77.5192 33.288 81.0881 33.288V29.288C77.8623 29.288 75.3612 28.8244 73.4946 28.0018L71.8815 31.6622ZM81.0881 33.288C83.8677 33.288 86.389 32.9312 88.6192 32.1738L87.3329 28.3862C85.6058 28.9728 83.5351 29.288 81.0881 29.288V33.288ZM88.6399 32.1666C90.8439 31.3911 92.754 30.345 94.3211 28.9955L91.711 25.9645C90.5901 26.9297 89.1402 27.7502 87.3123 28.3934L88.6399 32.1666ZM94.3448 28.9748C95.891 27.6004 97.0477 26.0188 97.7388 24.222L94.0054 22.786C93.5765 23.9012 92.8292 24.9702 91.6873 25.9852L94.3448 28.9748ZM96.5585 25.3825L99.4705 24.3185L98.0977 20.5615L95.1857 21.6255L96.5585 25.3825ZM96.7941 22.2395C96.3516 26.6308 94.7168 29.8714 92.0034 32.1699L94.5888 35.2221C98.222 32.1445 100.246 27.8812 100.774 22.6405L96.7941 22.2395ZM91.9945 32.1775C89.3065 34.4815 85.6462 35.728 80.8081 35.728V39.728C86.3486 39.728 91.0136 38.2865 94.5976 35.2145L91.9945 32.1775ZM98.8801 37C98.8801 35.9252 98.9496 34.6684 99.0941 33.223L95.114 32.825C94.9599 34.3662 94.8801 35.7601 94.8801 37H98.8801ZM99.0946 33.2182C99.2408 31.7196 99.4236 30.2208 99.643 28.7216L95.6851 28.1424C95.4565 29.7046 95.266 31.2671 95.1135 32.8298L99.0946 33.2182ZM99.644 28.7148C99.868 27.1468 100.073 25.7095 100.26 24.4028L96.3002 23.8372C96.1135 25.1438 95.9082 26.5812 95.6842 28.1492L99.644 28.7148ZM98.2801 22.12H81.7041V26.12H98.2801V22.12ZM83.7041 24.12V19.36H79.7041V24.12H83.7041ZM81.7041 21.36H103.32V17.36H81.7041V21.36ZM101.32 19.36V37H105.32V19.36H101.32ZM103.32 35H96.8801V39H103.32V35ZM139.332 33.304V35.304H142.976L141.019 32.2297L139.332 33.304ZM135.804 33.304L134.119 32.2256L132.148 35.304H135.804V33.304ZM156.636 0.767999V-1.232H155.541L154.951 -0.310437L156.636 0.767999ZM164.084 0.767999H166.084V-1.232H164.084V0.767999ZM164.084 37V39H166.084V37H164.084ZM156.636 37H154.636V39H156.636V37ZM156.636 10.68L157.177 8.7547L154.636 8.0399V10.68H156.636ZM158.428 11.184L160.109 12.2672L161.575 9.99159L158.969 9.2587L158.428 11.184ZM141.796 37V39H142.886L143.477 38.0832L141.796 37ZM133.452 37L131.772 38.0865L132.364 39H133.452V37ZM116.82 11.296L116.278 9.3707L113.667 10.1051L115.14 12.3825L116.82 11.296ZM118.612 10.792H120.612V8.1519L118.07 8.8667L118.612 10.792ZM118.612 37V39H120.612V37H118.612ZM111.164 37H109.164V39H111.164V37ZM111.164 0.767999V-1.232H109.164V0.767999H111.164ZM118.612 0.767999L120.299 -0.306315L119.709 -1.232H118.612V0.767999ZM139.332 31.304H135.804V35.304H139.332V31.304ZM137.488 34.3824L158.32 1.84644L154.951 -0.310437L134.119 32.2256L137.488 34.3824ZM156.636 2.768H164.084V-1.232H156.636V2.768ZM162.084 0.767999V37H166.084V0.767999H162.084ZM164.084 35H156.636V39H164.084V35ZM158.636 37V10.68H154.636V37H158.636ZM156.094 12.6053L157.886 13.1093L158.969 9.2587L157.177 8.7547L156.094 12.6053ZM156.746 10.1008L140.114 35.9168L143.477 38.0832L160.109 12.2672L156.746 10.1008ZM141.796 35H133.452V39H141.796V35ZM135.131 35.9135L118.499 10.2095L115.14 12.3825L131.772 38.0865L135.131 35.9135ZM117.361 13.2213L119.153 12.7173L118.07 8.8667L116.278 9.3707L117.361 13.2213ZM116.612 10.792V37H120.612V10.792H116.612ZM118.612 35H111.164V39H118.612V35ZM113.164 37V0.767999H109.164V37H113.164ZM111.164 2.768H118.612V-1.232H111.164V2.768ZM116.925 1.84231L137.645 34.3783L141.019 32.2297L120.299 -0.306315L116.925 1.84231ZM178.343 29.104H176.343V31.104H178.343V29.104ZM178.343 22.888V20.888H176.343V22.888H178.343ZM202.311 22.888H204.311V20.888H202.311V22.888ZM202.311 29.104V31.104H204.311V29.104H202.311ZM169.327 37L167.517 36.1495L166.178 39H169.327V37ZM186.351 0.767999V-1.232H185.081L184.541 -0.0825169L186.351 0.767999ZM194.415 0.767999L196.222 -0.0893738L195.68 -1.232H194.415V0.767999ZM211.607 37V39H214.77L213.414 36.1426L211.607 37ZM203.487 37L201.667 37.8302L202.201 39H203.487V37ZM188.591 4.352V2.352H185.48L186.771 5.18219L188.591 4.352ZM192.175 4.352L193.997 5.17701L195.276 2.352H192.175V4.352ZM177.391 37V39H178.681L179.213 37.825L177.391 37ZM180.343 29.104V22.888H176.343V29.104H180.343ZM178.343 24.888H202.311V20.888H178.343V24.888ZM200.311 22.888V29.104H204.311V22.888H200.311ZM202.311 27.104H178.343V31.104H202.311V27.104ZM171.137 37.8505L188.161 1.61852L184.541 -0.0825169L167.517 36.1495L171.137 37.8505ZM186.351 2.768H194.415V-1.232H186.351V2.768ZM192.608 1.62537L209.8 37.8574L213.414 36.1426L196.222 -0.0893738L192.608 1.62537ZM211.607 35H203.487V39H211.607V35ZM205.307 36.1698L190.411 3.52181L186.771 5.18219L201.667 37.8302L205.307 36.1698ZM188.591 6.352H192.175V2.352H188.591V6.352ZM190.353 3.52698L175.569 36.175L179.213 37.825L193.997 5.17701L190.353 3.52698ZM177.391 35H169.327V39H177.391V35Z" fill="#CBCBCB" mask="url(#path-1-outside-1_303_1972)"/>
</svg>
