<svg width="414" height="38" viewBox="0 0 414 38" fill="none" xmlns="http://www.w3.org/2000/svg">
<mask id="path-1-outside-1_303_1975" maskUnits="userSpaceOnUse" x="-2" y="-2" width="418" height="42" fill="black">
<rect fill="white" x="-2" y="-2" width="418" height="42"/>
<path d="M33.576 20.984V0.767999H41.024V21.768C41.024 24.1573 40.6693 26.248 39.96 28.04C39.288 29.832 38.3173 31.344 37.048 32.576C35.7787 33.808 34.2853 34.816 32.568 35.6C30.888 36.3467 29.04 36.888 27.024 37.224C25.0453 37.56 22.9547 37.728 20.752 37.728C18.4747 37.728 16.3093 37.56 14.256 37.224C12.2027 36.888 10.3173 36.3467 8.6 35.6C6.92 34.816 5.464 33.808 4.232 32.576C3 31.344 2.02933 29.832 1.32 28.04C0.648 26.248 0.312 24.1573 0.312 21.768V0.767999H7.76V20.984C7.76 23.8213 8.32 25.9867 9.44 27.48C10.56 28.936 12.0907 29.944 14.032 30.504C16.0107 31.0267 18.2507 31.288 20.752 31.288C23.1787 31.288 25.344 31.0267 27.248 30.504C29.1893 29.944 30.72 28.936 31.84 27.48C32.9973 25.9867 33.576 23.8213 33.576 20.984ZM50.7041 0.767999H58.1521V37H50.7041V0.767999ZM102.024 0.767999C106.094 0.767999 109.491 1.25333 112.216 2.224C114.942 3.19466 117.107 4.52 118.712 6.2C120.355 7.84266 121.512 9.74666 122.184 11.912C122.894 14.0773 123.248 16.3547 123.248 18.744C123.248 21.1333 122.856 23.4293 122.072 25.632C121.326 27.8347 120.112 29.7947 118.432 31.512C116.79 33.192 114.606 34.536 111.88 35.544C109.192 36.5147 105.907 37 102.024 37H81.3042V0.767999H102.024ZM88.7522 30.616H101.856C104.544 30.616 106.766 30.2987 108.52 29.664C110.312 28.992 111.731 28.096 112.776 26.976C113.822 25.856 114.568 24.5867 115.016 23.168C115.464 21.7493 115.688 20.2747 115.688 18.744C115.688 17.2133 115.464 15.7573 115.016 14.376C114.568 12.9947 113.822 11.7627 112.776 10.68C111.731 9.59733 110.312 8.73867 108.52 8.104C106.766 7.46933 104.544 7.152 101.856 7.152H88.7522V30.616ZM137.971 21.88V30.784H165.915V37H130.523V0.767999H165.859V6.984H137.971V16H160.819V21.88H137.971ZM171.154 24.792H178.714C178.863 26.0613 179.442 27.2187 180.45 28.264C181.495 29.272 182.858 30.0747 184.538 30.672C186.218 31.232 188.103 31.512 190.194 31.512C192.098 31.512 193.666 31.3067 194.898 30.896C196.13 30.4853 197.045 29.9067 197.642 29.16C198.239 28.4133 198.538 27.5173 198.538 26.472C198.538 25.464 198.165 24.6987 197.418 24.176C196.671 23.616 195.495 23.168 193.89 22.832C192.285 22.4587 190.175 22.0853 187.562 21.712C185.509 21.4133 183.567 21.0027 181.738 20.48C179.909 19.92 178.285 19.2107 176.866 18.352C175.485 17.4933 174.383 16.448 173.562 15.216C172.778 13.9467 172.386 12.4533 172.386 10.736C172.386 8.608 172.983 6.74133 174.178 5.136C175.41 3.53066 177.221 2.28 179.61 1.384C181.999 0.487998 184.93 0.0399985 188.402 0.0399985C193.629 0.0399985 197.642 1.16 200.442 3.4C203.279 5.60267 204.661 8.64533 204.586 12.528H197.306C197.157 10.3253 196.223 8.73867 194.506 7.768C192.826 6.79733 190.698 6.312 188.122 6.312C185.733 6.312 183.754 6.66666 182.186 7.376C180.655 8.08533 179.89 9.29866 179.89 11.016C179.89 11.688 180.077 12.2853 180.45 12.808C180.823 13.2933 181.458 13.7227 182.354 14.096C183.25 14.4693 184.463 14.824 185.994 15.16C187.525 15.496 189.429 15.832 191.706 16.168C193.834 16.4667 195.757 16.8773 197.474 17.4C199.229 17.8853 200.722 18.5387 201.954 19.36C203.223 20.144 204.194 21.152 204.866 22.384C205.538 23.616 205.874 25.128 205.874 26.92C205.874 29.1227 205.295 31.0453 204.138 32.688C203.018 34.2933 201.263 35.544 198.874 36.44C196.522 37.336 193.461 37.784 189.69 37.784C187.002 37.784 184.631 37.504 182.578 36.944C180.525 36.3467 178.751 35.5627 177.258 34.592C175.765 33.6213 174.551 32.5573 173.618 31.4C172.685 30.2427 172.013 29.0853 171.602 27.928C171.229 26.7707 171.079 25.7253 171.154 24.792ZM213.509 0.767999H220.957V37H213.509V0.767999ZM251.433 37.728C248.073 37.728 245.03 37.336 242.305 36.552C239.617 35.768 237.284 34.592 235.305 33.024C233.364 31.456 231.87 29.5147 230.825 27.2C229.78 24.8853 229.257 22.216 229.257 19.192C229.257 16.1307 229.798 13.424 230.881 11.072C232.001 8.68267 233.569 6.66667 235.585 5.024C237.638 3.38133 240.065 2.14933 242.865 1.328C245.702 0.469332 248.838 0.0399985 252.273 0.0399985C256.342 0.0399985 259.852 0.618666 262.801 1.776C265.75 2.896 268.065 4.48266 269.745 6.536C271.462 8.58933 272.433 11.0347 272.657 13.872H265.489C265.004 12.3787 264.201 11.0907 263.081 10.008C261.998 8.888 260.561 8.02933 258.769 7.432C256.977 6.79733 254.812 6.48 252.273 6.48C249.025 6.48 246.244 7.00267 243.929 8.048C241.652 9.09333 239.916 10.568 238.721 12.472C237.526 14.376 236.929 16.616 236.929 19.192C236.929 21.6933 237.452 23.8587 238.497 25.688C239.542 27.48 241.148 28.8613 243.313 29.832C245.516 30.8027 248.316 31.288 251.713 31.288C254.326 31.288 256.622 30.952 258.601 30.28C260.617 29.5707 262.297 28.6373 263.641 27.48C264.985 26.2853 265.937 24.96 266.497 23.504L269.409 22.44C268.924 27.256 267.094 31.008 263.921 33.696C260.785 36.384 256.622 37.728 251.433 37.728ZM267.505 37C267.505 35.8427 267.58 34.5173 267.729 33.024C267.878 31.4933 268.065 29.9627 268.289 28.432C268.513 26.864 268.718 25.4267 268.905 24.12H252.329V19.36H273.945V37H267.505ZM318.525 29.608L316.173 30.56V0.767999H323.621V37H316.173L286.885 8.384L289.237 7.432V37H281.789V0.767999H289.237L318.525 29.608ZM339.713 21.88V30.784H367.657V37H332.265V0.767999H367.601V6.984H339.713V16H362.561V21.88H339.713ZM375.304 37V0.767999H399.888C402.688 0.767999 405.115 1.16 407.168 1.944C409.259 2.69067 410.883 3.88533 412.04 5.528C413.198 7.13333 413.776 9.20533 413.776 11.744C413.776 13.4613 413.478 14.9173 412.88 16.112C412.283 17.3067 411.443 18.2773 410.36 19.024C409.315 19.7707 408.102 20.3493 406.72 20.76C405.339 21.1333 403.864 21.376 402.296 21.488L401.512 21.04C404.126 21.0773 406.272 21.3013 407.952 21.712C409.632 22.0853 410.883 22.7947 411.704 23.84C412.563 24.848 412.992 26.36 412.992 28.376V37H405.544V28.88C405.544 27.4987 405.302 26.4347 404.816 25.688C404.331 24.904 403.454 24.3627 402.184 24.064C400.952 23.7653 399.16 23.616 396.808 23.616H382.752V37H375.304ZM382.752 17.792H399.888C401.979 17.792 403.566 17.288 404.648 16.28C405.768 15.272 406.328 13.9093 406.328 12.192C406.328 10.5493 405.768 9.29867 404.648 8.44C403.566 7.58133 401.979 7.152 399.888 7.152H382.752V17.792Z"/>
</mask>
<path d="M33.576 0.767999V-1.232H31.576V0.767999H33.576ZM41.024 0.767999H43.024V-1.232H41.024V0.767999ZM39.96 28.04L38.1004 27.3039L38.0937 27.3208L38.0873 27.3378L39.96 28.04ZM32.568 35.6L33.3803 37.4276L33.3895 37.4235L33.3986 37.4194L32.568 35.6ZM27.024 37.224L26.6952 35.2512L26.6892 35.2522L27.024 37.224ZM14.256 37.224L13.933 39.1977L13.933 39.1977L14.256 37.224ZM8.6 35.6L7.75423 37.4124L7.77824 37.4236L7.80255 37.4341L8.6 35.6ZM4.232 32.576L2.81779 33.9902L2.81779 33.9902L4.232 32.576ZM1.32 28.04L-0.552658 28.7422L-0.546289 28.7592L-0.539613 28.7761L1.32 28.04ZM0.312 0.767999V-1.232H-1.688V0.767999H0.312ZM7.76 0.767999H9.76V-1.232H7.76V0.767999ZM9.44 27.48L7.84 28.68L7.84732 28.6898L7.85475 28.6994L9.44 27.48ZM14.032 30.504L13.4777 32.4256L13.4994 32.4319L13.5212 32.4377L14.032 30.504ZM27.248 30.504L27.7774 32.4327L27.7899 32.4292L27.8023 32.4256L27.248 30.504ZM31.84 27.48L30.2592 26.2548L30.2548 26.2606L31.84 27.48ZM35.576 20.984V0.767999H31.576V20.984H35.576ZM33.576 2.768H41.024V-1.232H33.576V2.768ZM39.024 0.767999V21.768H43.024V0.767999H39.024ZM39.024 21.768C39.024 23.9637 38.6977 25.795 38.1004 27.3039L41.8196 28.7761C42.641 26.701 43.024 24.351 43.024 21.768H39.024ZM38.0873 27.3378C37.5105 28.8761 36.6953 30.1312 35.6551 31.1408L38.441 34.0112C39.9394 32.5568 41.0655 30.7879 41.8327 28.7422L38.0873 27.3378ZM35.6551 31.1408C34.5606 32.2031 33.2608 33.0852 31.7374 33.7806L33.3986 37.4194C35.3099 36.5468 36.9968 35.4129 38.441 34.0112L35.6551 31.1408ZM31.7557 33.7724C30.2462 34.4433 28.5629 34.9399 26.6952 35.2512L27.3528 39.1968C29.5171 38.8361 31.5298 38.2501 33.3803 37.4276L31.7557 33.7724ZM26.6892 35.2522C24.8312 35.5677 22.8532 35.728 20.752 35.728V39.728C23.0561 39.728 25.2594 39.5523 27.3588 39.1958L26.6892 35.2522ZM20.752 35.728C18.5728 35.728 16.5161 35.5672 14.579 35.2503L13.933 39.1977C16.1026 39.5528 18.3765 39.728 20.752 39.728V35.728ZM14.579 35.2503C12.6711 34.9381 10.9473 34.4397 9.39745 33.7659L7.80255 37.4341C9.68739 38.2536 11.7342 38.8379 13.933 39.1977L14.579 35.2503ZM9.44577 33.7876C7.96338 33.0959 6.70308 32.2186 5.64621 31.1618L2.81779 33.9902C4.22492 35.3974 5.87662 36.5361 7.75423 37.4124L9.44577 33.7876ZM5.64621 31.1618C4.62705 30.1426 3.7991 28.8689 3.17961 27.3039L-0.539613 28.7761C0.259571 30.7951 1.37295 32.5454 2.81779 33.9902L5.64621 31.1618ZM3.19266 27.3378C2.62288 25.8183 2.312 23.9748 2.312 21.768H-1.688C-1.688 24.3399 -1.32688 26.6777 -0.552658 28.7422L3.19266 27.3378ZM2.312 21.768V0.767999H-1.688V21.768H2.312ZM0.312 2.768H7.76V-1.232H0.312V2.768ZM5.76 0.767999V20.984H9.76V0.767999H5.76ZM5.76 20.984C5.76 24.0413 6.35655 26.7021 7.84 28.68L11.04 26.28C10.2835 25.2713 9.76 23.6014 9.76 20.984H5.76ZM7.85475 28.6994C9.26083 30.5273 11.1697 31.7599 13.4777 32.4256L14.5863 28.5824C13.0116 28.1281 11.8592 27.3447 11.0252 26.2606L7.85475 28.6994ZM13.5212 32.4377C15.6986 33.0128 18.1149 33.288 20.752 33.288V29.288C18.3864 29.288 16.3227 29.0405 14.5428 28.5703L13.5212 32.4377ZM20.752 33.288C23.3184 33.288 25.6669 33.012 27.7774 32.4327L26.7186 28.5753C25.0211 29.0413 23.039 29.288 20.752 29.288V33.288ZM27.8023 32.4256C30.1103 31.7599 32.0192 30.5273 33.4252 28.6994L30.2548 26.2606C29.4208 27.3447 28.2684 28.1281 26.6937 28.5824L27.8023 32.4256ZM33.4208 28.7051C34.9562 26.724 35.576 24.0526 35.576 20.984H31.576C31.576 23.5901 31.0384 25.2494 30.2592 26.2549L33.4208 28.7051ZM50.7041 0.767999V-1.232H48.7041V0.767999H50.7041ZM58.1521 0.767999H60.1521V-1.232H58.1521V0.767999ZM58.1521 37V39H60.1521V37H58.1521ZM50.7041 37H48.7041V39H50.7041V37ZM50.7041 2.768H58.1521V-1.232H50.7041V2.768ZM56.1521 0.767999V37H60.1521V0.767999H56.1521ZM58.1521 35H50.7041V39H58.1521V35ZM52.7041 37V0.767999H48.7041V37H52.7041ZM112.216 2.224L112.887 0.33993L112.887 0.33993L112.216 2.224ZM118.712 6.2L117.266 7.58172L117.282 7.59814L117.298 7.61421L118.712 6.2ZM122.184 11.912L120.274 12.5048L120.279 12.5197L120.284 12.5346L122.184 11.912ZM122.072 25.632L120.188 24.9614L120.183 24.9756L120.178 24.9899L122.072 25.632ZM118.432 31.512L117.003 30.1134L117.002 30.1138L118.432 31.512ZM111.88 35.544L112.559 37.4251L112.567 37.4225L112.574 37.4198L111.88 35.544ZM81.3042 37H79.3042V39H81.3042V37ZM81.3042 0.767999V-1.232H79.3042V0.767999H81.3042ZM88.7522 30.616H86.7522V32.616H88.7522V30.616ZM108.52 29.664L109.2 31.5448L109.211 31.5408L109.222 31.5367L108.52 29.664ZM112.776 26.976L114.238 28.3406L114.238 28.3406L112.776 26.976ZM115.016 23.168L113.109 22.5657L113.109 22.5657L115.016 23.168ZM115.016 14.376L113.114 14.993L113.114 14.993L115.016 14.376ZM112.776 10.68L114.215 9.29081L114.215 9.29081L112.776 10.68ZM108.52 8.104L107.84 9.98479L107.852 9.98925L108.52 8.104ZM88.7522 7.152V5.152H86.7522V7.152H88.7522ZM102.024 2.768C105.95 2.768 109.103 3.23837 111.545 4.10806L112.887 0.33993C109.878 -0.73171 106.237 -1.232 102.024 -1.232V2.768ZM111.545 4.10806C114.047 4.99914 115.923 6.17583 117.266 7.58172L120.158 4.81828C118.291 2.86417 115.836 1.39019 112.887 0.33993L111.545 4.10806ZM117.298 7.61421C118.717 9.03325 119.701 10.6573 120.274 12.5048L124.094 11.3192C123.324 8.83604 121.993 6.65208 120.126 4.78579L117.298 7.61421ZM120.284 12.5346C120.924 14.4894 121.248 16.5558 121.248 18.744H125.248C125.248 16.1535 124.863 13.6653 124.085 11.2894L120.284 12.5346ZM121.248 18.744C121.248 20.9099 120.894 22.9787 120.188 24.9614L123.956 26.3026C124.819 23.8799 125.248 21.3568 125.248 18.744H121.248ZM120.178 24.9899C119.531 26.8993 118.48 28.603 117.003 30.1134L119.862 32.9106C121.744 30.9863 123.12 28.77 123.966 26.2741L120.178 24.9899ZM117.002 30.1138C115.61 31.538 113.698 32.7392 111.186 33.6682L112.574 37.4198C115.513 36.3328 117.969 34.846 119.862 32.9102L117.002 30.1138ZM111.201 33.6629C108.793 34.5323 105.753 35 102.024 35V39C106.061 39 109.591 38.497 112.559 37.4251L111.201 33.6629ZM102.024 35H81.3042V39H102.024V35ZM83.3042 37V0.767999H79.3042V37H83.3042ZM81.3042 2.768H102.024V-1.232H81.3042V2.768ZM88.7522 32.616H101.856V28.616H88.7522V32.616ZM101.856 32.616C104.683 32.616 107.154 32.2848 109.2 31.5448L107.84 27.7832C106.377 28.3125 104.406 28.616 101.856 28.616V32.616ZM109.222 31.5367C111.233 30.7826 112.936 29.7355 114.238 28.3406L111.314 25.6114C110.525 26.4565 109.391 27.2014 107.818 27.7913L109.222 31.5367ZM114.238 28.3406C115.481 27.0095 116.383 25.4816 116.923 23.7703L113.109 22.5657C112.753 23.6917 112.162 24.7025 111.314 25.6114L114.238 28.3406ZM116.923 23.7703C117.435 22.1512 117.688 20.473 117.688 18.744H113.688C113.688 20.0763 113.494 21.3475 113.109 22.5657L116.923 23.7703ZM117.688 18.744C117.688 17.0152 117.435 15.3502 116.919 13.759L113.114 14.993C113.494 16.1645 113.688 17.4115 113.688 18.744H117.688ZM116.919 13.759C116.373 12.0777 115.464 10.5841 114.215 9.29081L111.337 12.0692C112.179 12.9413 112.763 13.9116 113.114 14.993L116.919 13.759ZM114.215 9.29081C112.905 7.93449 111.197 6.93033 109.188 6.21874L107.852 9.98925C109.427 10.547 110.556 11.2602 111.337 12.0692L114.215 9.29081ZM109.2 6.22325C107.154 5.48318 104.683 5.152 101.856 5.152V9.152C104.406 9.152 106.377 9.45548 107.84 9.98475L109.2 6.22325ZM101.856 5.152H88.7522V9.152H101.856V5.152ZM86.7522 7.152V30.616H90.7522V7.152H86.7522ZM137.971 21.88V19.88H135.971V21.88H137.971ZM137.971 30.784H135.971V32.784H137.971V30.784ZM165.915 30.784H167.915V28.784H165.915V30.784ZM165.915 37V39H167.915V37H165.915ZM130.523 37H128.523V39H130.523V37ZM130.523 0.767999V-1.232H128.523V0.767999H130.523ZM165.859 0.767999H167.859V-1.232H165.859V0.767999ZM165.859 6.984V8.984H167.859V6.984H165.859ZM137.971 6.984V4.984H135.971V6.984H137.971ZM137.971 16H135.971V18H137.971V16ZM160.819 16H162.819V14H160.819V16ZM160.819 21.88V23.88H162.819V21.88H160.819ZM135.971 21.88V30.784H139.971V21.88H135.971ZM137.971 32.784H165.915V28.784H137.971V32.784ZM163.915 30.784V37H167.915V30.784H163.915ZM165.915 35H130.523V39H165.915V35ZM132.523 37V0.767999H128.523V37H132.523ZM130.523 2.768H165.859V-1.232H130.523V2.768ZM163.859 0.767999V6.984H167.859V0.767999H163.859ZM165.859 4.984H137.971V8.984H165.859V4.984ZM135.971 6.984V16H139.971V6.984H135.971ZM137.971 18H160.819V14H137.971V18ZM158.819 16V21.88H162.819V16H158.819ZM160.819 19.88H137.971V23.88H160.819V19.88ZM171.154 24.792V22.792H169.308L169.16 24.6325L171.154 24.792ZM178.714 24.792L180.7 24.5583L180.493 22.792H178.714V24.792ZM180.45 28.264L179.01 29.6523L179.036 29.6784L179.062 29.7037L180.45 28.264ZM184.538 30.672L183.868 32.5564L183.887 32.5631L183.906 32.5694L184.538 30.672ZM194.898 30.896L195.53 32.7934L195.53 32.7934L194.898 30.896ZM197.642 29.16L199.204 30.4094L199.204 30.4094L197.642 29.16ZM197.418 24.176L196.218 25.776L196.244 25.7957L196.271 25.8145L197.418 24.176ZM193.89 22.832L193.437 24.78L193.459 24.785L193.48 24.7896L193.89 22.832ZM187.562 21.712L187.274 23.6912L187.279 23.6919L187.562 21.712ZM181.738 20.48L181.153 22.3924L181.171 22.3979L181.189 22.403L181.738 20.48ZM176.866 18.352L175.81 20.0506L175.82 20.0568L175.83 20.063L176.866 18.352ZM173.562 15.216L171.86 16.267L171.879 16.2965L171.898 16.3254L173.562 15.216ZM174.178 5.136L172.591 3.91836L172.582 3.9301L172.574 3.94198L174.178 5.136ZM179.61 1.384L178.908 -0.488661L178.908 -0.488661L179.61 1.384ZM200.442 3.4L199.193 4.96174L199.204 4.97086L199.216 4.97982L200.442 3.4ZM204.586 12.528V14.528H206.548L206.586 12.5665L204.586 12.528ZM197.306 12.528L195.311 12.6633L195.437 14.528H197.306V12.528ZM194.506 7.768L193.505 9.49973L193.514 9.50447L193.522 9.50912L194.506 7.768ZM182.186 7.376L181.362 5.55378L181.353 5.55754L181.345 5.56138L182.186 7.376ZM180.45 12.808L178.823 13.9705L178.843 13.9993L178.865 14.0274L180.45 12.808ZM182.354 14.096L181.585 15.9422L181.585 15.9422L182.354 14.096ZM185.994 15.16L186.423 13.2065L186.423 13.2065L185.994 15.16ZM191.706 16.168L191.414 18.1466L191.428 18.1486L191.706 16.168ZM197.474 17.4L196.892 19.3133L196.916 19.3208L196.941 19.3276L197.474 17.4ZM201.954 19.36L200.845 21.0241L200.873 21.0434L200.903 21.0616L201.954 19.36ZM204.866 22.384L203.11 23.3417L204.866 22.384ZM204.138 32.688L202.503 31.5361L202.498 31.5436L204.138 32.688ZM198.874 36.44L198.172 34.5673L198.162 34.571L198.874 36.44ZM182.578 36.944L182.019 38.8644L182.036 38.8691L182.052 38.8735L182.578 36.944ZM177.258 34.592L176.168 36.2689L176.168 36.2689L177.258 34.592ZM173.618 31.4L172.061 32.6555L172.061 32.6555L173.618 31.4ZM171.602 27.928L169.699 28.542L169.707 28.5695L169.717 28.5968L171.602 27.928ZM171.154 26.792H178.714V22.792H171.154V26.792ZM176.728 25.0257C176.935 26.7874 177.742 28.3371 179.01 29.6523L181.89 26.8757C181.142 26.1003 180.792 25.3353 180.7 24.5583L176.728 25.0257ZM179.062 29.7037C180.353 30.9491 181.979 31.8849 183.868 32.5564L185.208 28.7876C183.737 28.2644 182.637 27.5949 181.838 26.8243L179.062 29.7037ZM183.906 32.5694C185.822 33.2083 187.926 33.512 190.194 33.512V29.512C188.28 29.512 186.614 29.2557 185.17 28.7746L183.906 32.5694ZM190.194 33.512C192.222 33.512 194.023 33.2957 195.53 32.7934L194.266 28.9986C193.309 29.3176 191.974 29.512 190.194 29.512V33.512ZM195.53 32.7934C197.001 32.3032 198.294 31.547 199.204 30.4094L196.08 27.9106C195.796 28.2663 195.259 28.6675 194.266 28.9986L195.53 32.7934ZM199.204 30.4094C200.112 29.2744 200.538 27.9264 200.538 26.472H196.538C196.538 27.1083 196.367 27.5523 196.08 27.9106L199.204 30.4094ZM200.538 26.472C200.538 24.8921 199.909 23.4785 198.565 22.5375L196.271 25.8145C196.42 25.9189 196.538 26.0359 196.538 26.472H200.538ZM198.618 22.576C197.522 21.7543 196.006 21.2316 194.3 20.8744L193.48 24.7896C194.984 25.1044 195.82 25.4777 196.218 25.776L198.618 22.576ZM194.343 20.884C192.658 20.4922 190.486 20.1094 187.845 19.7321L187.279 23.6919C189.865 24.0613 191.911 24.4251 193.437 24.78L194.343 20.884ZM187.85 19.7328C185.877 19.4459 184.024 19.053 182.287 18.557L181.189 22.403C183.111 22.9523 185.14 23.3808 187.274 23.6912L187.85 19.7328ZM182.323 18.5676C180.628 18.0487 179.159 17.4023 177.902 16.641L175.83 20.063C177.41 21.019 179.189 21.7913 181.153 22.3924L182.323 18.5676ZM177.922 16.6534C176.759 15.9305 175.874 15.0785 175.226 14.1066L171.898 16.3254C172.893 17.8175 174.21 19.0562 175.81 20.0506L177.922 16.6534ZM175.264 14.165C174.703 13.2569 174.386 12.1393 174.386 10.736H170.386C170.386 12.7674 170.853 14.6364 171.86 16.267L175.264 14.165ZM174.386 10.736C174.386 9.00914 174.861 7.56765 175.782 6.33002L172.574 3.94198C171.105 5.91501 170.386 8.20685 170.386 10.736H174.386ZM175.765 6.35364C176.716 5.11351 178.182 4.05533 180.312 3.25666L178.908 -0.488661C176.259 0.504666 174.104 1.94782 172.591 3.91836L175.765 6.35364ZM180.312 3.25666C182.412 2.4692 185.089 2.04 188.402 2.04V-1.96C184.771 -1.96 181.587 -1.49321 178.908 -0.488661L180.312 3.25666ZM188.402 2.04C193.376 2.04 196.878 3.1098 199.193 4.96174L201.691 1.83826C198.406 -0.789802 193.881 -1.96 188.402 -1.96V2.04ZM199.216 4.97982C201.509 6.76026 202.65 9.17865 202.586 12.4895L206.586 12.5665C206.671 8.11202 205.05 4.44507 201.668 1.82018L199.216 4.97982ZM204.586 10.528H197.306V14.528H204.586V10.528ZM199.301 12.3927C199.113 9.61285 197.871 7.37251 195.49 6.02687L193.522 9.50912C194.576 10.1048 195.2 11.0378 195.311 12.6633L199.301 12.3927ZM195.507 6.03627C193.439 4.84143 190.938 4.312 188.122 4.312V8.312C190.458 8.312 192.213 8.75323 193.505 9.49973L195.507 6.03627ZM188.122 4.312C185.552 4.312 183.269 4.69107 181.362 5.55378L183.01 9.19821C184.239 8.64226 185.914 8.312 188.122 8.312V4.312ZM181.345 5.56138C180.293 6.04905 179.395 6.7645 178.772 7.75099C178.152 8.73521 177.89 9.85487 177.89 11.016H181.89C181.89 10.4598 182.011 10.1141 182.156 9.885C182.299 9.65816 182.549 9.41228 183.027 9.19062L181.345 5.56138ZM177.89 11.016C177.89 12.0843 178.195 13.0923 178.823 13.9705L182.077 11.6455C181.958 11.4784 181.89 11.2917 181.89 11.016H177.89ZM178.865 14.0274C179.541 14.9059 180.537 15.5057 181.585 15.9422L183.123 12.2498C182.379 11.9396 182.106 11.6807 182.035 11.5886L178.865 14.0274ZM181.585 15.9422C182.637 16.3805 183.98 16.7654 185.565 17.1135L186.423 13.2065C184.947 12.8826 183.863 12.5582 183.123 12.2498L181.585 15.9422ZM185.565 17.1135C187.157 17.4629 189.11 17.8066 191.414 18.1466L191.998 14.1894C189.747 13.8574 187.893 13.5291 186.423 13.2065L185.565 17.1135ZM191.428 18.1486C193.472 18.4355 195.291 18.8262 196.892 19.3133L198.056 15.4867C196.222 14.9285 194.196 14.4978 191.984 14.1874L191.428 18.1486ZM196.941 19.3276C198.536 19.7688 199.825 20.3441 200.845 21.0241L203.063 17.6959C201.619 16.7332 199.921 16.0019 198.007 15.4724L196.941 19.3276ZM200.903 21.0616C201.896 21.675 202.615 22.434 203.11 23.3417L206.622 21.4263C205.773 19.87 204.551 18.613 203.005 17.6584L200.903 21.0616ZM203.11 23.3417C203.584 24.2096 203.874 25.3721 203.874 26.92H207.874C207.874 24.8839 207.492 23.0224 206.622 21.4263L203.11 23.3417ZM203.874 26.92C203.874 28.7518 203.4 30.2631 202.503 31.5361L205.773 33.8399C207.191 31.8276 207.874 29.4935 207.874 26.92H203.874ZM202.498 31.5436C201.671 32.7292 200.296 33.7707 198.172 34.5673L199.576 38.3127C202.231 37.3173 204.365 35.8574 205.778 33.8324L202.498 31.5436ZM198.162 34.571C196.121 35.3485 193.327 35.784 189.69 35.784V39.784C193.595 39.784 196.923 39.3235 199.586 38.309L198.162 34.571ZM189.69 35.784C187.135 35.784 184.948 35.5173 183.104 35.0145L182.052 38.8735C184.315 39.4907 186.869 39.784 189.69 39.784V35.784ZM183.137 35.0236C181.235 34.4704 179.648 33.7602 178.348 32.9151L176.168 36.2689C177.855 37.3652 179.814 38.2229 182.019 38.8644L183.137 35.0236ZM178.348 32.9151C176.998 32.0374 175.953 31.1089 175.175 30.1445L172.061 32.6555C173.15 34.0058 174.532 35.2053 176.168 36.2689L178.348 32.9151ZM175.175 30.1445C174.354 29.127 173.808 28.1644 173.487 27.2592L169.717 28.5968C170.217 30.0063 171.015 31.3584 172.061 32.6555L175.175 30.1445ZM173.505 27.314C173.19 26.335 173.099 25.5582 173.148 24.9515L169.16 24.6325C169.06 25.8924 169.268 27.2063 169.699 28.542L173.505 27.314ZM213.509 0.767999V-1.232H211.509V0.767999H213.509ZM220.957 0.767999H222.957V-1.232H220.957V0.767999ZM220.957 37V39H222.957V37H220.957ZM213.509 37H211.509V39H213.509V37ZM213.509 2.768H220.957V-1.232H213.509V2.768ZM218.957 0.767999V37H222.957V0.767999H218.957ZM220.957 35H213.509V39H220.957V35ZM215.509 37V0.767999H211.509V37H215.509ZM242.305 36.552L241.745 38.472L241.752 38.4741L242.305 36.552ZM235.305 33.024L234.048 34.5799L234.056 34.5857L234.063 34.5915L235.305 33.024ZM230.825 27.2L229.002 28.0232L229.002 28.0232L230.825 27.2ZM230.881 11.072L229.07 10.2231L229.064 10.2357L230.881 11.072ZM235.585 5.024L234.336 3.46226L234.329 3.46786L234.322 3.47353L235.585 5.024ZM242.865 1.328L243.428 3.24714L243.436 3.24473L243.444 3.24226L242.865 1.328ZM262.801 1.776L262.07 3.63779L262.081 3.64181L262.091 3.64572L262.801 1.776ZM269.745 6.536L268.197 7.80247L268.204 7.81083L268.211 7.81911L269.745 6.536ZM272.657 13.872V15.872H274.821L274.651 13.7146L272.657 13.872ZM265.489 13.872L263.587 14.4902L264.036 15.872H265.489V13.872ZM263.081 10.008L261.643 11.398L261.667 11.4224L261.691 11.446L263.081 10.008ZM258.769 7.432L258.101 9.31725L258.119 9.32347L258.137 9.32937L258.769 7.432ZM243.929 8.048L243.106 6.22522L243.095 6.23034L243.929 8.048ZM238.721 12.472L240.415 13.535L240.415 13.535L238.721 12.472ZM238.497 25.688L236.761 26.6803L236.765 26.688L236.77 26.6957L238.497 25.688ZM243.313 29.832L242.495 31.6571L242.507 31.6622L243.313 29.832ZM258.601 30.28L259.244 32.1738L259.255 32.1703L259.265 32.1666L258.601 30.28ZM263.641 27.48L264.946 28.9955L264.958 28.9853L264.97 28.9748L263.641 27.48ZM266.497 23.504L265.811 21.6255L264.957 21.9375L264.63 22.786L266.497 23.504ZM269.409 22.44L271.399 22.6405L271.719 19.4667L268.723 20.5615L269.409 22.44ZM263.921 33.696L262.628 32.1699L262.619 32.1775L263.921 33.696ZM267.505 37H265.505V39H267.505V37ZM267.729 33.024L269.719 33.223L269.72 33.2182L267.729 33.024ZM268.289 28.432L270.268 28.7216L270.269 28.7148L268.289 28.432ZM268.905 24.12L270.885 24.4028L271.211 22.12H268.905V24.12ZM252.329 24.12H250.329V26.12H252.329V24.12ZM252.329 19.36V17.36H250.329V19.36H252.329ZM273.945 19.36H275.945V17.36H273.945V19.36ZM273.945 37V39H275.945V37H273.945ZM251.433 35.728C248.227 35.728 245.374 35.3537 242.858 34.6299L241.752 38.4741C244.687 39.3183 247.919 39.728 251.433 39.728V35.728ZM242.865 34.632C240.398 33.9124 238.302 32.8474 236.547 31.4565L234.063 34.5915C236.265 36.3366 238.836 37.6236 241.745 38.472L242.865 34.632ZM236.562 31.4681C234.868 30.1003 233.567 28.4116 232.648 26.3768L229.002 28.0232C230.174 30.6177 231.859 32.8117 234.048 34.5799L236.562 31.4681ZM232.648 26.3768C231.739 24.3654 231.257 21.9855 231.257 19.192H227.257C227.257 22.4465 227.82 25.4052 229.002 28.0232L232.648 26.3768ZM231.257 19.192C231.257 16.3673 231.756 13.9545 232.698 11.9083L229.064 10.2357C227.841 12.8935 227.257 15.894 227.257 19.192H231.257ZM232.692 11.9209C233.686 9.79941 235.069 8.02449 236.848 6.57447L234.322 3.47353C232.069 5.30884 230.316 7.56592 229.07 10.2231L232.692 11.9209ZM236.834 6.58574C238.663 5.12272 240.85 4.00321 243.428 3.24714L242.302 -0.591139C239.28 0.295451 236.614 1.63995 234.336 3.46226L236.834 6.58574ZM243.444 3.24226C246.067 2.44862 249.004 2.04 252.273 2.04V-1.96C248.673 -1.96 245.338 -1.50996 242.286 -0.586262L243.444 3.24226ZM252.273 2.04C256.16 2.04 259.41 2.59368 262.07 3.63779L263.532 -0.0857896C260.294 -1.35634 256.525 -1.96 252.273 -1.96V2.04ZM262.091 3.64572C264.775 4.66503 266.777 6.06726 268.197 7.80247L271.293 5.26952C269.353 2.89807 266.726 1.12697 263.511 -0.093725L262.091 3.64572ZM268.211 7.81911C269.645 9.53332 270.47 11.5782 270.663 14.0294L274.651 13.7146C274.396 10.4911 273.28 7.64534 271.279 5.25289L268.211 7.81911ZM272.657 11.872H265.489V15.872H272.657V11.872ZM267.391 13.2538C266.806 11.4521 265.828 9.88188 264.471 8.57002L261.691 11.446C262.574 12.2995 263.202 13.3053 263.587 14.4902L267.391 13.2538ZM264.519 8.61795C263.17 7.22224 261.435 6.21236 259.402 5.53463L258.137 9.32937C259.687 9.84631 260.827 10.5538 261.643 11.398L264.519 8.61795ZM259.437 5.54675C257.372 4.81545 254.968 4.48 252.273 4.48V8.48C254.656 8.48 256.582 8.77921 258.101 9.31725L259.437 5.54675ZM252.273 4.48C248.817 4.48 245.741 5.03533 243.106 6.22526L244.752 9.87074C246.747 8.97 249.233 8.48 252.273 8.48V4.48ZM243.095 6.23034C240.506 7.41883 238.452 9.13796 237.027 11.409L240.415 13.535C241.38 11.998 242.798 10.7678 244.763 9.86566L243.095 6.23034ZM237.027 11.409C235.605 13.676 234.929 16.2961 234.929 19.192H238.929C238.929 16.9359 239.448 15.076 240.415 13.535L237.027 11.409ZM234.929 19.192C234.929 21.976 235.513 24.4966 236.761 26.6803L240.234 24.6957C239.391 23.2207 238.929 21.4107 238.929 19.192H234.929ZM236.77 26.6957C238.055 28.8988 240.005 30.541 242.495 31.657L244.131 28.007C242.29 27.1816 241.03 26.0612 240.225 24.6803L236.77 26.6957ZM242.507 31.6622C245.045 32.7809 248.144 33.288 251.713 33.288V29.288C248.487 29.288 245.986 28.8244 244.12 28.0018L242.507 31.6622ZM251.713 33.288C254.493 33.288 257.014 32.9312 259.244 32.1738L257.958 28.3862C256.231 28.9728 254.16 29.288 251.713 29.288V33.288ZM259.265 32.1666C261.469 31.3911 263.379 30.345 264.946 28.9955L262.336 25.9645C261.215 26.9297 259.765 27.7502 257.937 28.3934L259.265 32.1666ZM264.97 28.9748C266.516 27.6004 267.673 26.0188 268.364 24.222L264.63 22.786C264.201 23.9012 263.454 24.9702 262.312 25.9852L264.97 28.9748ZM267.183 25.3825L270.095 24.3185L268.723 20.5615L265.811 21.6255L267.183 25.3825ZM267.419 22.2395C266.977 26.6308 265.342 29.8714 262.628 32.1699L265.214 35.2221C268.847 32.1445 270.871 27.8812 271.399 22.6405L267.419 22.2395ZM262.619 32.1775C259.931 34.4815 256.271 35.728 251.433 35.728V39.728C256.974 39.728 261.639 38.2865 265.223 35.2145L262.619 32.1775ZM269.505 37C269.505 35.9252 269.575 34.6684 269.719 33.223L265.739 32.825C265.585 34.3662 265.505 35.7601 265.505 37H269.505ZM269.72 33.2182C269.866 31.7196 270.049 30.2208 270.268 28.7216L266.31 28.1424C266.082 29.7046 265.891 31.2671 265.739 32.8298L269.72 33.2182ZM270.269 28.7148C270.493 27.1468 270.698 25.7095 270.885 24.4028L266.925 23.8372C266.738 25.1438 266.533 26.5812 266.309 28.1492L270.269 28.7148ZM268.905 22.12H252.329V26.12H268.905V22.12ZM254.329 24.12V19.36H250.329V24.12H254.329ZM252.329 21.36H273.945V17.36H252.329V21.36ZM271.945 19.36V37H275.945V19.36H271.945ZM273.945 35H267.505V39H273.945V35ZM318.525 29.608L319.275 31.4619L322.098 30.3194L319.928 28.1829L318.525 29.608ZM316.173 30.56H314.173V33.5271L316.923 32.4139L316.173 30.56ZM316.173 0.767999V-1.232H314.173V0.767999H316.173ZM323.621 0.767999H325.621V-1.232H323.621V0.767999ZM323.621 37V39H325.621V37H323.621ZM316.173 37L314.775 38.4305L315.358 39H316.173V37ZM286.885 8.384L286.134 6.5301L283.3 7.67744L285.487 9.81453L286.885 8.384ZM289.237 7.432H291.237V4.46486L288.486 5.57811L289.237 7.432ZM289.237 37V39H291.237V37H289.237ZM281.789 37H279.789V39H281.789V37ZM281.789 0.767999V-1.232H279.789V0.767999H281.789ZM289.237 0.767999L290.64 -0.657072L290.056 -1.232H289.237V0.767999ZM317.774 27.7541L315.422 28.7061L316.923 32.4139L319.275 31.4619L317.774 27.7541ZM318.173 30.56V0.767999H314.173V30.56H318.173ZM316.173 2.768H323.621V-1.232H316.173V2.768ZM321.621 0.767999V37H325.621V0.767999H321.621ZM323.621 35H316.173V39H323.621V35ZM317.57 35.5695L288.282 6.95347L285.487 9.81453L314.775 38.4305L317.57 35.5695ZM287.635 10.2379L289.987 9.28589L288.486 5.57811L286.134 6.5301L287.635 10.2379ZM287.237 7.432V37H291.237V7.432H287.237ZM289.237 35H281.789V39H289.237V35ZM283.789 37V0.767999H279.789V37H283.789ZM281.789 2.768H289.237V-1.232H281.789V2.768ZM287.833 2.19307L317.121 31.0331L319.928 28.1829L290.64 -0.657072L287.833 2.19307ZM339.713 21.88V19.88H337.713V21.88H339.713ZM339.713 30.784H337.713V32.784H339.713V30.784ZM367.657 30.784H369.657V28.784H367.657V30.784ZM367.657 37V39H369.657V37H367.657ZM332.265 37H330.265V39H332.265V37ZM332.265 0.767999V-1.232H330.265V0.767999H332.265ZM367.601 0.767999H369.601V-1.232H367.601V0.767999ZM367.601 6.984V8.984H369.601V6.984H367.601ZM339.713 6.984V4.984H337.713V6.984H339.713ZM339.713 16H337.713V18H339.713V16ZM362.561 16H364.561V14H362.561V16ZM362.561 21.88V23.88H364.561V21.88H362.561ZM337.713 21.88V30.784H341.713V21.88H337.713ZM339.713 32.784H367.657V28.784H339.713V32.784ZM365.657 30.784V37H369.657V30.784H365.657ZM367.657 35H332.265V39H367.657V35ZM334.265 37V0.767999H330.265V37H334.265ZM332.265 2.768H367.601V-1.232H332.265V2.768ZM365.601 0.767999V6.984H369.601V0.767999H365.601ZM367.601 4.984H339.713V8.984H367.601V4.984ZM337.713 6.984V16H341.713V6.984H337.713ZM339.713 18H362.561V14H339.713V18ZM360.561 16V21.88H364.561V16H360.561ZM362.561 19.88H339.713V23.88H362.561V19.88ZM375.304 37H373.304V39H375.304V37ZM375.304 0.767999V-1.232H373.304V0.767999H375.304ZM407.168 1.944L406.455 3.81243L406.475 3.82018L406.496 3.82748L407.168 1.944ZM412.04 5.528L410.405 6.67991L410.411 6.68879L410.418 6.6976L412.04 5.528ZM412.88 16.112L411.091 15.2176L411.091 15.2176L412.88 16.112ZM410.36 19.024L409.225 17.3776L409.211 17.3869L409.198 17.3965L410.36 19.024ZM406.72 20.76L407.242 22.6907L407.266 22.6842L407.29 22.6771L406.72 20.76ZM402.296 21.488L401.304 23.2245L401.832 23.5263L402.439 23.4829L402.296 21.488ZM401.512 21.04L401.541 19.0402L400.52 22.7765L401.512 21.04ZM407.952 21.712L407.477 23.6548L407.498 23.6598L407.518 23.6644L407.952 21.712ZM411.704 23.84L410.132 25.0756L410.156 25.1068L410.182 25.1369L411.704 23.84ZM412.992 37V39H414.992V37H412.992ZM405.544 37H403.544V39H405.544V37ZM404.816 25.688L403.116 26.7407L403.127 26.7595L403.139 26.778L404.816 25.688ZM402.184 24.064L401.713 26.0077L401.726 26.0108L402.184 24.064ZM382.752 23.616V21.616H380.752V23.616H382.752ZM382.752 37V39H384.752V37H382.752ZM382.752 17.792H380.752V19.792H382.752V17.792ZM404.648 16.28L403.31 14.7934L403.298 14.8047L403.285 14.8162L404.648 16.28ZM404.648 8.44L403.405 10.007L403.418 10.0172L403.431 10.0272L404.648 8.44ZM382.752 7.152V5.152H380.752V7.152H382.752ZM377.304 37V0.767999H373.304V37H377.304ZM375.304 2.768H399.888V-1.232H375.304V2.768ZM399.888 2.768C402.508 2.768 404.682 3.1356 406.455 3.81243L407.882 0.0755602C405.548 -0.815603 402.868 -1.232 399.888 -1.232V2.768ZM406.496 3.82748C408.24 4.4506 409.51 5.40971 410.405 6.67991L413.675 4.37609C412.255 2.36095 410.277 0.930729 407.841 0.060514L406.496 3.82748ZM410.418 6.6976C411.268 7.87714 411.776 9.50624 411.776 11.744H415.776C415.776 8.90442 415.127 6.38952 413.663 4.35839L410.418 6.6976ZM411.776 11.744C411.776 13.2367 411.516 14.3684 411.091 15.2176L414.669 17.0064C415.439 15.4663 415.776 13.6859 415.776 11.744H411.776ZM411.091 15.2176C410.642 16.1154 410.025 16.8255 409.225 17.3776L411.496 20.6704C412.861 19.7291 413.923 18.4979 414.669 17.0064L411.091 15.2176ZM409.198 17.3965C408.353 17.9999 407.345 18.4877 406.15 18.8429L407.29 22.6771C408.858 22.2109 410.277 21.5414 411.523 20.6515L409.198 17.3965ZM406.198 18.8293C404.953 19.166 403.606 19.3894 402.154 19.4931L402.439 23.4829C404.122 23.3626 405.725 23.1007 407.242 22.6907L406.198 18.8293ZM403.288 19.7515L402.504 19.3035L400.52 22.7765L401.304 23.2245L403.288 19.7515ZM401.484 23.0398C404.015 23.076 405.997 23.293 407.477 23.6548L408.427 19.7692C406.547 19.3096 404.236 19.0787 401.541 19.0402L401.484 23.0398ZM407.518 23.6644C408.882 23.9674 409.671 24.489 410.132 25.0756L413.277 22.6044C412.095 21.1003 410.382 20.2032 408.386 19.7596L407.518 23.6644ZM410.182 25.1369C410.607 25.6356 410.992 26.5969 410.992 28.376H414.992C414.992 26.1231 414.519 24.0604 413.227 22.5431L410.182 25.1369ZM410.992 28.376V37H414.992V28.376H410.992ZM412.992 35H405.544V39H412.992V35ZM407.544 37V28.88H403.544V37H407.544ZM407.544 28.88C407.544 27.3087 407.276 25.8021 406.493 24.598L403.139 26.778C403.327 27.0673 403.544 27.6887 403.544 28.88H407.544ZM406.517 24.6353C405.654 23.2412 404.212 22.4864 402.642 22.1172L401.726 26.0108C402.695 26.2389 403.008 26.5668 403.116 26.7407L406.517 24.6353ZM402.655 22.1203C401.19 21.765 399.208 21.616 396.808 21.616V25.616C399.112 25.616 400.715 25.7657 401.713 26.0077L402.655 22.1203ZM396.808 21.616H382.752V25.616H396.808V21.616ZM380.752 23.616V37H384.752V23.616H380.752ZM382.752 35H375.304V39H382.752V35ZM382.752 19.792H399.888V15.792H382.752V19.792ZM399.888 19.792C402.275 19.792 404.429 19.2165 406.011 17.7438L403.285 14.8162C402.702 15.3595 401.682 15.792 399.888 15.792V19.792ZM405.986 17.7666C407.589 16.3244 408.328 14.3887 408.328 12.192H404.328C404.328 13.43 403.948 14.2196 403.31 14.7934L405.986 17.7666ZM408.328 12.192C408.328 10.0426 407.564 8.15497 405.865 6.85278L403.431 10.0272C403.973 10.4424 404.328 11.0561 404.328 12.192H408.328ZM405.891 6.873C404.314 5.62214 402.209 5.152 399.888 5.152V9.152C401.748 9.152 402.817 9.54052 403.405 10.007L405.891 6.873ZM399.888 5.152H382.752V9.152H399.888V5.152ZM380.752 7.152V17.792H384.752V7.152H380.752Z" fill="#CBCBCB" mask="url(#path-1-outside-1_303_1975)"/>
</svg>
