<svg width="393" height="38" viewBox="0 0 393 38" fill="none" xmlns="http://www.w3.org/2000/svg">
<mask id="path-1-outside-1_303_1978" maskUnits="userSpaceOnUse" x="-2" y="-2" width="397" height="42" fill="black">
<rect fill="white" x="-2" y="-2" width="397" height="42"/>
<path d="M21.032 0.767999C25.1013 0.767999 28.4987 1.25333 31.224 2.224C33.9493 3.19466 36.1147 4.52 37.72 6.2C39.3627 7.84266 40.52 9.74666 41.192 11.912C41.9013 14.0773 42.256 16.3547 42.256 18.744C42.256 21.1333 41.864 23.4293 41.08 25.632C40.3333 27.8347 39.12 29.7947 37.44 31.512C35.7973 33.192 33.6133 34.536 30.888 35.544C28.2 36.5147 24.9147 37 21.032 37H0.312V0.767999H21.032ZM7.76 30.616H20.864C23.552 30.616 25.7733 30.2987 27.528 29.664C29.32 28.992 30.7387 28.096 31.784 26.976C32.8293 25.856 33.576 24.5867 34.024 23.168C34.472 21.7493 34.696 20.2747 34.696 18.744C34.696 17.2133 34.472 15.7573 34.024 14.376C33.576 12.9947 32.8293 11.7627 31.784 10.68C30.7387 9.59733 29.32 8.73867 27.528 8.104C25.7733 7.46933 23.552 7.152 20.864 7.152H7.76V30.616ZM56.9788 21.88V30.784H84.9228V37H49.5308V0.767999H84.8668V6.984H56.9788V16H79.8268V21.88H56.9788ZM105.394 37L89.3778 0.767999H97.6098L111.33 33.472H108.754L122.418 0.767999H130.538L114.69 37H105.394ZM143.44 21.88V30.784H171.384V37H135.992V0.767999H171.328V6.984H143.44V16H166.288V21.88H143.44ZM186.479 0.767999V30.784H210.559V37H179.031V0.767999H186.479ZM237.341 37.728C232.525 37.728 228.399 36.9813 224.965 35.488C221.567 33.9573 218.954 31.792 217.125 28.992C215.333 26.192 214.437 22.832 214.437 18.912C214.437 14.9547 215.333 11.576 217.125 8.776C218.954 5.976 221.567 3.82933 224.965 2.336C228.399 0.805332 232.525 0.0399985 237.341 0.0399985C242.194 0.0399985 246.319 0.805332 249.717 2.336C253.114 3.82933 255.709 5.976 257.501 8.776C259.33 11.576 260.245 14.9547 260.245 18.912C260.245 22.832 259.33 26.192 257.501 28.992C255.709 31.792 253.114 33.9573 249.717 35.488C246.319 36.9813 242.194 37.728 237.341 37.728ZM237.341 31.288C240.327 31.288 242.941 30.84 245.181 29.944C247.458 29.048 249.231 27.6853 250.501 25.856C251.807 24.0267 252.461 21.712 252.461 18.912C252.461 16.112 251.807 13.7973 250.501 11.968C249.231 10.1387 247.458 8.776 245.181 7.88C242.941 6.94667 240.327 6.48 237.341 6.48C234.391 6.48 231.759 6.94667 229.445 7.88C227.13 8.776 225.319 10.1387 224.013 11.968C222.706 13.7973 222.053 16.112 222.053 18.912C222.053 21.712 222.706 24.0267 224.013 25.856C225.319 27.6853 227.13 29.048 229.445 29.944C231.759 30.84 234.391 31.288 237.341 31.288ZM273.955 25.24V19.304H290.531C292.51 19.304 294.078 18.7813 295.235 17.736C296.392 16.6533 296.971 15.16 296.971 13.256C296.971 11.2773 296.392 9.76533 295.235 8.72C294.078 7.67466 292.51 7.152 290.531 7.152H274.851V37H267.403V0.767999H289.859C291.875 0.767999 293.76 1.01067 295.515 1.496C297.307 1.98133 298.856 2.728 300.163 3.736C301.507 4.744 302.552 6.032 303.299 7.6C304.046 9.168 304.419 11.0533 304.419 13.256C304.419 15.4213 304.046 17.2693 303.299 18.8C302.552 20.3307 301.507 21.5813 300.163 22.552C298.856 23.4853 297.307 24.176 295.515 24.624C293.76 25.0347 291.875 25.24 289.859 25.24H273.955ZM318.877 21.88V30.784H346.821V37H311.429V0.767999H346.765V6.984H318.877V16H341.725V21.88H318.877ZM354.468 37V0.767999H379.052C381.852 0.767999 384.279 1.16 386.332 1.944C388.423 2.69067 390.047 3.88533 391.204 5.528C392.362 7.13333 392.94 9.20533 392.94 11.744C392.94 13.4613 392.642 14.9173 392.044 16.112C391.447 17.3067 390.607 18.2773 389.524 19.024C388.479 19.7707 387.266 20.3493 385.884 20.76C384.503 21.1333 383.028 21.376 381.46 21.488L380.676 21.04C383.29 21.0773 385.436 21.3013 387.116 21.712C388.796 22.0853 390.047 22.7947 390.868 23.84C391.727 24.848 392.156 26.36 392.156 28.376V37H384.708V28.88C384.708 27.4987 384.466 26.4347 383.98 25.688C383.495 24.904 382.618 24.3627 381.348 24.064C380.116 23.7653 378.324 23.616 375.972 23.616H361.916V37H354.468ZM361.916 17.792H379.052C381.143 17.792 382.73 17.288 383.812 16.28C384.932 15.272 385.492 13.9093 385.492 12.192C385.492 10.5493 384.932 9.29867 383.812 8.44C382.73 7.58133 381.143 7.152 379.052 7.152H361.916V17.792Z"/>
</mask>
<path d="M31.224 2.224L31.895 0.33993L31.895 0.33993L31.224 2.224ZM37.72 6.2L36.274 7.58172L36.2897 7.59814L36.3058 7.61421L37.72 6.2ZM41.192 11.912L39.2819 12.5048L39.2865 12.5197L39.2914 12.5346L41.192 11.912ZM41.08 25.632L39.1958 24.9614L39.1907 24.9756L39.1859 24.9899L41.08 25.632ZM37.44 31.512L36.0103 30.1134L36.01 30.1138L37.44 31.512ZM30.888 35.544L31.5673 37.4251L31.5746 37.4225L31.5818 37.4198L30.888 35.544ZM0.312 37H-1.688V39H0.312V37ZM0.312 0.767999V-1.232H-1.688V0.767999H0.312ZM7.76 30.616H5.76V32.616H7.76V30.616ZM27.528 29.664L28.2083 31.5448L28.2193 31.5408L28.2302 31.5367L27.528 29.664ZM31.784 26.976L33.2461 28.3406L33.2461 28.3406L31.784 26.976ZM34.024 23.168L32.1168 22.5657L32.1168 22.5657L34.024 23.168ZM34.024 14.376L32.1216 14.993L32.1216 14.993L34.024 14.376ZM31.784 10.68L33.2228 9.29081L33.2228 9.29081L31.784 10.68ZM27.528 8.104L26.8477 9.98479L26.8603 9.98925L27.528 8.104ZM7.76 7.152V5.152H5.76V7.152H7.76ZM21.032 2.768C24.9583 2.768 28.1111 3.23837 30.553 4.10806L31.895 0.33993C28.8862 -0.73171 25.2444 -1.232 21.032 -1.232V2.768ZM30.553 4.10806C33.0548 4.99914 34.9306 6.17583 36.274 7.58172L39.166 4.81828C37.2987 2.86417 34.8439 1.39019 31.895 0.33993L30.553 4.10806ZM36.3058 7.61421C37.7248 9.03325 38.7085 10.6573 39.2819 12.5048L43.1021 11.3192C42.3315 8.83604 41.0005 6.65208 39.1342 4.78579L36.3058 7.61421ZM39.2914 12.5346C39.9317 14.4894 40.256 16.5558 40.256 18.744H44.256C44.256 16.1535 43.8709 13.6653 43.0926 11.2894L39.2914 12.5346ZM40.256 18.744C40.256 20.9099 39.9015 22.9787 39.1958 24.9614L42.9642 26.3026C43.8265 23.8799 44.256 21.3568 44.256 18.744H40.256ZM39.1859 24.9899C38.5386 26.8993 37.4879 28.603 36.0103 30.1134L38.8697 32.9106C40.7521 30.9863 42.1281 28.77 42.9741 26.2741L39.1859 24.9899ZM36.01 30.1138C34.6174 31.538 32.706 32.7392 30.1942 33.6682L31.5818 37.4198C34.5207 36.3328 36.9773 34.846 38.87 32.9102L36.01 30.1138ZM30.2087 33.6629C27.8011 34.5323 24.7605 35 21.032 35V39C25.0688 39 28.5989 38.497 31.5673 37.4251L30.2087 33.6629ZM21.032 35H0.312V39H21.032V35ZM2.312 37V0.767999H-1.688V37H2.312ZM0.312 2.768H21.032V-1.232H0.312V2.768ZM7.76 32.616H20.864V28.616H7.76V32.616ZM20.864 32.616C23.6906 32.616 26.1622 32.2848 28.2083 31.5448L26.8477 27.7832C25.3844 28.3125 23.4134 28.616 20.864 28.616V32.616ZM28.2302 31.5367C30.241 30.7826 31.9442 29.7355 33.2461 28.3406L30.3219 25.6114C29.5331 26.4565 28.399 27.2014 26.8258 27.7913L28.2302 31.5367ZM33.2461 28.3406C34.4885 27.0095 35.3907 25.4816 35.9312 23.7703L32.1168 22.5657C31.7613 23.6917 31.1702 24.7025 30.3219 25.6114L33.2461 28.3406ZM35.9312 23.7703C36.4425 22.1512 36.696 20.473 36.696 18.744H32.696C32.696 20.0763 32.5015 21.3475 32.1168 22.5657L35.9312 23.7703ZM36.696 18.744C36.696 17.0152 36.4425 15.3502 35.9264 13.759L32.1216 14.993C32.5015 16.1645 32.696 17.4115 32.696 18.744H36.696ZM35.9264 13.759C35.3812 12.0777 34.4715 10.5841 33.2228 9.29081L30.3452 12.0692C31.1872 12.9413 31.7708 13.9116 32.1216 14.993L35.9264 13.759ZM33.2228 9.29081C31.9132 7.93449 30.2049 6.93033 28.1957 6.21874L26.8603 9.98925C28.4351 10.547 29.5641 11.2602 30.3452 12.0692L33.2228 9.29081ZM28.2083 6.22325C26.1622 5.48318 23.6906 5.152 20.864 5.152V9.152C23.4134 9.152 25.3844 9.45548 26.8477 9.98475L28.2083 6.22325ZM20.864 5.152H7.76V9.152H20.864V5.152ZM5.76 7.152V30.616H9.76V7.152H5.76ZM56.9788 21.88V19.88H54.9788V21.88H56.9788ZM56.9788 30.784H54.9788V32.784H56.9788V30.784ZM84.9228 30.784H86.9228V28.784H84.9228V30.784ZM84.9228 37V39H86.9228V37H84.9228ZM49.5308 37H47.5308V39H49.5308V37ZM49.5308 0.767999V-1.232H47.5308V0.767999H49.5308ZM84.8668 0.767999H86.8668V-1.232H84.8668V0.767999ZM84.8668 6.984V8.984H86.8668V6.984H84.8668ZM56.9788 6.984V4.984H54.9788V6.984H56.9788ZM56.9788 16H54.9788V18H56.9788V16ZM79.8268 16H81.8268V14H79.8268V16ZM79.8268 21.88V23.88H81.8268V21.88H79.8268ZM54.9788 21.88V30.784H58.9788V21.88H54.9788ZM56.9788 32.784H84.9228V28.784H56.9788V32.784ZM82.9228 30.784V37H86.9228V30.784H82.9228ZM84.9228 35H49.5308V39H84.9228V35ZM51.5308 37V0.767999H47.5308V37H51.5308ZM49.5308 2.768H84.8668V-1.232H49.5308V2.768ZM82.8668 0.767999V6.984H86.8668V0.767999H82.8668ZM84.8668 4.984H56.9788V8.984H84.8668V4.984ZM54.9788 6.984V16H58.9788V6.984H54.9788ZM56.9788 18H79.8268V14H56.9788V18ZM77.8268 16V21.88H81.8268V16H77.8268ZM79.8268 19.88H56.9788V23.88H79.8268V19.88ZM105.394 37L103.565 37.8086L104.091 39H105.394V37ZM89.3778 0.767999V-1.232H86.307L87.5486 1.5766L89.3778 0.767999ZM97.6098 0.767999L99.4541 -0.00571412L98.9396 -1.232H97.6098V0.767999ZM111.33 33.472V35.472H114.338L113.174 32.6983L111.33 33.472ZM108.754 33.472L106.908 32.701L105.751 35.472H108.754V33.472ZM122.418 0.767999V-1.232H121.086L120.572 -0.00302618L122.418 0.767999ZM130.538 0.767999L132.37 1.56949L133.596 -1.232H130.538V0.767999ZM114.69 37V39H115.998L116.522 37.8015L114.69 37ZM107.223 36.1914L91.2071 -0.0406036L87.5486 1.5766L103.565 37.8086L107.223 36.1914ZM89.3778 2.768H97.6098V-1.232H89.3778V2.768ZM95.7655 1.54171L109.486 34.2457L113.174 32.6983L99.4541 -0.00571412L95.7655 1.54171ZM111.33 31.472H108.754V35.472H111.33V31.472ZM110.599 34.243L124.263 1.53902L120.572 -0.00302618L106.908 32.701L110.599 34.243ZM122.418 2.768H130.538V-1.232H122.418V2.768ZM128.705 -0.03349L112.857 36.1985L116.522 37.8015L132.37 1.56949L128.705 -0.03349ZM114.69 35H105.394V39H114.69V35ZM143.44 21.88V19.88H141.44V21.88H143.44ZM143.44 30.784H141.44V32.784H143.44V30.784ZM171.384 30.784H173.384V28.784H171.384V30.784ZM171.384 37V39H173.384V37H171.384ZM135.992 37H133.992V39H135.992V37ZM135.992 0.767999V-1.232H133.992V0.767999H135.992ZM171.328 0.767999H173.328V-1.232H171.328V0.767999ZM171.328 6.984V8.984H173.328V6.984H171.328ZM143.44 6.984V4.984H141.44V6.984H143.44ZM143.44 16H141.44V18H143.44V16ZM166.288 16H168.288V14H166.288V16ZM166.288 21.88V23.88H168.288V21.88H166.288ZM141.44 21.88V30.784H145.44V21.88H141.44ZM143.44 32.784H171.384V28.784H143.44V32.784ZM169.384 30.784V37H173.384V30.784H169.384ZM171.384 35H135.992V39H171.384V35ZM137.992 37V0.767999H133.992V37H137.992ZM135.992 2.768H171.328V-1.232H135.992V2.768ZM169.328 0.767999V6.984H173.328V0.767999H169.328ZM171.328 4.984H143.44V8.984H171.328V4.984ZM141.44 6.984V16H145.44V6.984H141.44ZM143.44 18H166.288V14H143.44V18ZM164.288 16V21.88H168.288V16H164.288ZM166.288 19.88H143.44V23.88H166.288V19.88ZM186.479 0.767999H188.479V-1.232H186.479V0.767999ZM186.479 30.784H184.479V32.784H186.479V30.784ZM210.559 30.784H212.559V28.784H210.559V30.784ZM210.559 37V39H212.559V37H210.559ZM179.031 37H177.031V39H179.031V37ZM179.031 0.767999V-1.232H177.031V0.767999H179.031ZM184.479 0.767999V30.784H188.479V0.767999H184.479ZM186.479 32.784H210.559V28.784H186.479V32.784ZM208.559 30.784V37H212.559V30.784H208.559ZM210.559 35H179.031V39H210.559V35ZM181.031 37V0.767999H177.031V37H181.031ZM179.031 2.768H186.479V-1.232H179.031V2.768ZM224.965 35.488L224.143 37.3115L224.155 37.3169L224.167 37.3221L224.965 35.488ZM217.125 28.992L215.44 30.0701L215.445 30.078L215.45 30.0859L217.125 28.992ZM217.125 8.776L215.45 7.6821L215.445 7.68997L215.44 7.69789L217.125 8.776ZM224.965 2.336L225.77 4.16695L225.779 4.1628L224.965 2.336ZM249.717 2.336L248.895 4.15947L248.904 4.16323L248.912 4.16693L249.717 2.336ZM257.501 8.776L255.816 9.85411L255.821 9.86203L255.826 9.8699L257.501 8.776ZM257.501 28.992L255.826 27.8981L255.821 27.906L255.816 27.9139L257.501 28.992ZM249.717 35.488L250.522 37.3189L250.53 37.3152L250.538 37.3115L249.717 35.488ZM245.181 29.944L244.448 28.0828L244.438 28.087L245.181 29.944ZM250.501 25.856L248.873 24.6935L248.865 24.7046L248.858 24.7158L250.501 25.856ZM250.501 11.968L248.858 13.1082L248.865 13.1194L248.873 13.1305L250.501 11.968ZM245.181 7.88L244.412 9.72615L244.43 9.73383L244.449 9.74113L245.181 7.88ZM229.445 7.88L230.167 9.74513L230.18 9.7401L230.193 9.73488L229.445 7.88ZM224.013 25.856L225.64 24.6935L225.64 24.6935L224.013 25.856ZM229.445 29.944L228.723 31.8091L228.723 31.8091L229.445 29.944ZM237.341 35.728C232.724 35.728 228.884 35.0113 225.762 33.6539L224.167 37.3221C227.914 38.9514 232.326 39.728 237.341 39.728V35.728ZM225.786 33.6645C222.696 32.2722 220.396 30.3428 218.799 27.8981L215.45 30.0859C217.512 33.2412 220.439 35.6425 224.143 37.3115L225.786 33.6645ZM218.809 27.9139C217.258 25.4897 216.437 22.5194 216.437 18.912H212.437C212.437 23.1446 213.408 26.8943 215.44 30.0701L218.809 27.9139ZM216.437 18.912C216.437 15.2631 217.26 12.2753 218.809 9.85411L215.44 7.69789C213.406 10.8767 212.437 14.6463 212.437 18.912H216.437ZM218.799 9.8699C220.393 7.42974 222.687 5.52186 225.77 4.16693L224.16 0.505072C220.448 2.1368 217.515 4.52226 215.45 7.6821L218.799 9.8699ZM225.779 4.1628C228.896 2.77359 232.73 2.04 237.341 2.04V-1.96C232.32 -1.96 227.903 -1.16292 224.151 0.509196L225.779 4.1628ZM237.341 2.04C241.993 2.04 245.822 2.7747 248.895 4.15947L250.538 0.512531C246.817 -1.16403 242.395 -1.96 237.341 -1.96V2.04ZM248.912 4.16693C251.992 5.52069 254.261 7.42423 255.816 9.85411L259.185 7.69789C257.156 4.52777 254.236 2.13797 250.522 0.505072L248.912 4.16693ZM255.826 9.8699C257.407 12.2889 258.245 15.2708 258.245 18.912H262.245C262.245 14.6385 261.253 10.8631 259.175 7.6821L255.826 9.8699ZM258.245 18.912C258.245 22.5117 257.409 25.4761 255.826 27.8981L259.175 30.0859C261.251 26.9079 262.245 23.1523 262.245 18.912H258.245ZM255.816 27.9139C254.258 30.3484 251.983 32.2734 248.895 33.6645L250.538 37.3115C254.245 35.6413 257.159 33.2356 259.185 30.0701L255.816 27.9139ZM248.912 33.6571C245.833 35.0102 241.998 35.728 237.341 35.728V39.728C242.39 39.728 246.805 38.9524 250.522 37.3189L248.912 33.6571ZM237.341 33.288C240.523 33.288 243.398 32.811 245.924 31.801L244.438 28.087C242.483 28.869 240.132 29.288 237.341 29.288V33.288ZM245.913 31.8051C248.521 30.7792 250.627 29.1827 252.144 26.9962L248.858 24.7158C247.836 26.188 246.396 27.3168 244.449 28.0829L245.913 31.8051ZM252.128 27.0185C253.731 24.7745 254.461 22.0254 254.461 18.912H250.461C250.461 21.3986 249.884 23.2788 248.873 24.6935L252.128 27.0185ZM254.461 18.912C254.461 15.7986 253.731 13.0495 252.128 10.8055L248.873 13.1305C249.884 14.5452 250.461 16.4254 250.461 18.912H254.461ZM252.144 10.8278C250.627 8.64131 248.521 7.0448 245.913 6.01887L244.449 9.74113C246.396 10.5072 247.836 11.636 248.858 13.1082L252.144 10.8278ZM245.95 6.03384C243.417 4.97844 240.532 4.48 237.341 4.48V8.48C240.123 8.48 242.465 8.91489 244.412 9.72615L245.95 6.03384ZM237.341 4.48C234.181 4.48 231.288 4.9802 228.697 6.02511L230.193 9.73488C232.231 8.91313 234.602 8.48 237.341 8.48V4.48ZM228.723 6.01486C226.084 7.0365 223.942 8.62598 222.385 10.8055L225.64 13.1305C226.697 11.6514 228.177 10.5155 230.167 9.74513L228.723 6.01486ZM222.385 10.8055C220.782 13.0495 220.053 15.7986 220.053 18.912H224.053C224.053 16.4254 224.63 14.5452 225.64 13.1305L222.385 10.8055ZM220.053 18.912C220.053 22.0254 220.782 24.7745 222.385 27.0185L225.64 24.6935C224.63 23.2788 224.053 21.3986 224.053 18.912H220.053ZM222.385 27.0185C223.942 29.198 226.084 30.7875 228.723 31.8091L230.167 28.0789C228.177 27.3085 226.697 26.1726 225.64 24.6935L222.385 27.0185ZM228.723 31.8091C231.307 32.8093 234.19 33.288 237.341 33.288V29.288C234.593 29.288 232.212 28.8707 230.167 28.0789L228.723 31.8091ZM273.955 25.24H271.955V27.24H273.955V25.24ZM273.955 19.304V17.304H271.955V19.304H273.955ZM295.235 17.736L296.576 19.2202L296.589 19.2085L296.601 19.1965L295.235 17.736ZM295.235 8.72L293.895 10.2042L293.895 10.2042L295.235 8.72ZM274.851 7.152V5.152H272.851V7.152H274.851ZM274.851 37V39H276.851V37H274.851ZM267.403 37H265.403V39H267.403V37ZM267.403 0.767999V-1.232H265.403V0.767999H267.403ZM295.515 1.496L294.982 3.42365L294.992 3.42645L295.515 1.496ZM300.163 3.736L298.942 5.31956L298.952 5.32785L298.963 5.336L300.163 3.736ZM303.299 7.6L301.493 8.45986L301.493 8.45987L303.299 7.6ZM303.299 18.8L301.502 17.9232L301.502 17.9232L303.299 18.8ZM300.163 22.552L301.326 24.1795L301.334 24.1734L300.163 22.552ZM295.515 24.624L295.971 26.5714L295.986 26.5679L296 26.5643L295.515 24.624ZM275.955 25.24V19.304H271.955V25.24H275.955ZM273.955 21.304H290.531V17.304H273.955V21.304ZM290.531 21.304C292.867 21.304 294.96 20.6796 296.576 19.2202L293.895 16.2518C293.196 16.8831 292.152 17.304 290.531 17.304V21.304ZM296.601 19.1965C298.243 17.6605 298.971 15.593 298.971 13.256H294.971C294.971 14.727 294.542 15.6461 293.869 16.2755L296.601 19.1965ZM298.971 13.256C298.971 10.874 298.26 8.75704 296.576 7.23579L293.895 10.2042C294.525 10.7736 294.971 11.6806 294.971 13.256H298.971ZM296.576 7.2358C294.96 5.77642 292.867 5.152 290.531 5.152V9.152C292.152 9.152 293.196 9.57291 293.895 10.2042L296.576 7.2358ZM290.531 5.152H274.851V9.152H290.531V5.152ZM272.851 7.152V37H276.851V7.152H272.851ZM274.851 35H267.403V39H274.851V35ZM269.403 37V0.767999H265.403V37H269.403ZM267.403 2.768H289.859V-1.232H267.403V2.768ZM289.859 2.768C291.714 2.768 293.418 2.99115 294.982 3.42362L296.048 -0.431622C294.102 -0.969823 292.036 -1.232 289.859 -1.232V2.768ZM294.992 3.42645C296.562 3.8517 297.867 4.49079 298.942 5.31956L301.385 2.15243C299.846 0.965203 298.052 0.11096 296.038 -0.434453L294.992 3.42645ZM298.963 5.336C300.039 6.14323 300.881 7.17372 301.493 8.45986L305.105 6.74013C304.224 4.89028 302.975 3.34477 301.363 2.136L298.963 5.336ZM301.493 8.45987C302.083 9.69722 302.419 11.2735 302.419 13.256H306.419C306.419 10.8332 306.009 8.63878 305.105 6.74013L301.493 8.45987ZM302.419 13.256C302.419 15.1975 302.084 16.7294 301.502 17.9232L305.097 19.6768C306.008 17.8093 306.419 15.6452 306.419 13.256H302.419ZM301.502 17.9232C300.895 19.1662 300.062 20.1582 298.992 20.9306L301.334 24.1734C302.953 23.0045 304.21 21.4951 305.097 19.6768L301.502 17.9232ZM299.001 20.9245C297.926 21.6918 296.615 22.2875 295.03 22.6837L296 26.5643C297.999 26.0645 299.786 25.2788 301.326 24.1795L299.001 20.9245ZM295.059 22.6766C293.471 23.0485 291.74 23.24 289.859 23.24V27.24C292.011 27.24 294.05 27.0209 295.971 26.5714L295.059 22.6766ZM289.859 23.24H273.955V27.24H289.859V23.24ZM318.877 21.88V19.88H316.877V21.88H318.877ZM318.877 30.784H316.877V32.784H318.877V30.784ZM346.821 30.784H348.821V28.784H346.821V30.784ZM346.821 37V39H348.821V37H346.821ZM311.429 37H309.429V39H311.429V37ZM311.429 0.767999V-1.232H309.429V0.767999H311.429ZM346.765 0.767999H348.765V-1.232H346.765V0.767999ZM346.765 6.984V8.984H348.765V6.984H346.765ZM318.877 6.984V4.984H316.877V6.984H318.877ZM318.877 16H316.877V18H318.877V16ZM341.725 16H343.725V14H341.725V16ZM341.725 21.88V23.88H343.725V21.88H341.725ZM316.877 21.88V30.784H320.877V21.88H316.877ZM318.877 32.784H346.821V28.784H318.877V32.784ZM344.821 30.784V37H348.821V30.784H344.821ZM346.821 35H311.429V39H346.821V35ZM313.429 37V0.767999H309.429V37H313.429ZM311.429 2.768H346.765V-1.232H311.429V2.768ZM344.765 0.767999V6.984H348.765V0.767999H344.765ZM346.765 4.984H318.877V8.984H346.765V4.984ZM316.877 6.984V16H320.877V6.984H316.877ZM318.877 18H341.725V14H318.877V18ZM339.725 16V21.88H343.725V16H339.725ZM341.725 19.88H318.877V23.88H341.725V19.88ZM354.468 37H352.468V39H354.468V37ZM354.468 0.767999V-1.232H352.468V0.767999H354.468ZM386.332 1.944L385.619 3.81243L385.639 3.82018L385.66 3.82748L386.332 1.944ZM391.204 5.528L389.569 6.67991L389.576 6.68879L389.582 6.6976L391.204 5.528ZM392.044 16.112L390.255 15.2176L390.255 15.2176L392.044 16.112ZM389.524 19.024L388.389 17.3776L388.375 17.3869L388.362 17.3965L389.524 19.024ZM385.884 20.76L386.406 22.6907L386.43 22.6842L386.454 22.6771L385.884 20.76ZM381.46 21.488L380.468 23.2245L380.996 23.5263L381.603 23.4829L381.46 21.488ZM380.676 21.04L380.705 19.0402L379.684 22.7765L380.676 21.04ZM387.116 21.712L386.641 23.6548L386.662 23.6598L386.682 23.6644L387.116 21.712ZM390.868 23.84L389.296 25.0756L389.32 25.1068L389.346 25.1369L390.868 23.84ZM392.156 37V39H394.156V37H392.156ZM384.708 37H382.708V39H384.708V37ZM383.98 25.688L382.28 26.7407L382.291 26.7595L382.303 26.778L383.98 25.688ZM381.348 24.064L380.877 26.0077L380.89 26.0108L381.348 24.064ZM361.916 23.616V21.616H359.916V23.616H361.916ZM361.916 37V39H363.916V37H361.916ZM361.916 17.792H359.916V19.792H361.916V17.792ZM383.812 16.28L382.474 14.7934L382.462 14.8047L382.449 14.8162L383.812 16.28ZM383.812 8.44L382.569 10.007L382.582 10.0172L382.595 10.0272L383.812 8.44ZM361.916 7.152V5.152H359.916V7.152H361.916ZM356.468 37V0.767999H352.468V37H356.468ZM354.468 2.768H379.052V-1.232H354.468V2.768ZM379.052 2.768C381.672 2.768 383.846 3.1356 385.619 3.81243L387.046 0.0755602C384.712 -0.815603 382.032 -1.232 379.052 -1.232V2.768ZM385.66 3.82748C387.404 4.4506 388.674 5.40971 389.569 6.67991L392.839 4.37609C391.419 2.36095 389.442 0.930729 387.005 0.060514L385.66 3.82748ZM389.582 6.6976C390.432 7.87714 390.94 9.50624 390.94 11.744H394.94C394.94 8.90442 394.291 6.38952 392.827 4.35839L389.582 6.6976ZM390.94 11.744C390.94 13.2367 390.68 14.3684 390.255 15.2176L393.833 17.0064C394.603 15.4663 394.94 13.6859 394.94 11.744H390.94ZM390.255 15.2176C389.806 16.1154 389.189 16.8255 388.389 17.3776L390.66 20.6704C392.025 19.7291 393.087 18.4979 393.833 17.0064L390.255 15.2176ZM388.362 17.3965C387.517 17.9999 386.509 18.4877 385.314 18.8429L386.454 22.6771C388.022 22.2109 389.441 21.5414 390.687 20.6515L388.362 17.3965ZM385.362 18.8293C384.117 19.166 382.77 19.3894 381.318 19.4931L381.603 23.4829C383.287 23.3626 384.889 23.1007 386.406 22.6907L385.362 18.8293ZM382.453 19.7515L381.669 19.3035L379.684 22.7765L380.468 23.2245L382.453 19.7515ZM380.648 23.0398C383.179 23.076 385.161 23.293 386.641 23.6548L387.591 19.7692C385.711 19.3096 383.4 19.0787 380.705 19.0402L380.648 23.0398ZM386.682 23.6644C388.046 23.9674 388.835 24.489 389.296 25.0756L392.441 22.6044C391.259 21.1003 389.546 20.2032 387.55 19.7596L386.682 23.6644ZM389.346 25.1369C389.771 25.6356 390.156 26.5969 390.156 28.376H394.156C394.156 26.1231 393.683 24.0604 392.391 22.5431L389.346 25.1369ZM390.156 28.376V37H394.156V28.376H390.156ZM392.156 35H384.708V39H392.156V35ZM386.708 37V28.88H382.708V37H386.708ZM386.708 28.88C386.708 27.3087 386.44 25.8021 385.657 24.598L382.303 26.778C382.491 27.0673 382.708 27.6887 382.708 28.88H386.708ZM385.681 24.6353C384.818 23.2412 383.376 22.4864 381.806 22.1172L380.89 26.0108C381.859 26.2389 382.172 26.5668 382.28 26.7407L385.681 24.6353ZM381.819 22.1203C380.354 21.765 378.373 21.616 375.972 21.616V25.616C378.276 25.616 379.879 25.7657 380.877 26.0077L381.819 22.1203ZM375.972 21.616H361.916V25.616H375.972V21.616ZM359.916 23.616V37H363.916V23.616H359.916ZM361.916 35H354.468V39H361.916V35ZM361.916 19.792H379.052V15.792H361.916V19.792ZM379.052 19.792C381.44 19.792 383.593 19.2165 385.175 17.7438L382.449 14.8162C381.866 15.3595 380.846 15.792 379.052 15.792V19.792ZM385.15 17.7666C386.753 16.3244 387.492 14.3887 387.492 12.192H383.492C383.492 13.43 383.112 14.2196 382.474 14.7934L385.15 17.7666ZM387.492 12.192C387.492 10.0426 386.728 8.15497 385.029 6.85278L382.595 10.0272C383.137 10.4424 383.492 11.0561 383.492 12.192H387.492ZM385.055 6.873C383.478 5.62214 381.373 5.152 379.052 5.152V9.152C380.912 9.152 381.981 9.54052 382.569 10.007L385.055 6.873ZM379.052 5.152H361.916V9.152H379.052V5.152ZM359.916 7.152V17.792H363.916V7.152H359.916Z" fill="#CBCBCB" mask="url(#path-1-outside-1_303_1978)"/>
</svg>
