<svg width="212" height="38" viewBox="0 0 212 38" fill="none" xmlns="http://www.w3.org/2000/svg">
<path d="M35.648 0.767999V6.984H7.76V16.728H30.608V22.552H7.76V37H0.312V0.767999H35.648ZM42.8838 0.767999H50.3318V37H42.8838V0.767999ZM80.8081 37.728C77.4481 37.728 74.4054 37.336 71.6801 36.552C68.9921 35.768 66.6587 34.592 64.6801 33.024C62.7387 31.456 61.2454 29.5147 60.2001 27.2C59.1547 24.8853 58.6321 22.216 58.6321 19.192C58.6321 16.1307 59.1734 13.424 60.2561 11.072C61.3761 8.68267 62.9441 6.66667 64.9601 5.024C67.0134 3.38133 69.4401 2.14933 72.2401 1.328C75.0774 0.469332 78.2134 0.0399985 81.6481 0.0399985C85.7174 0.0399985 89.2267 0.618666 92.1761 1.776C95.1254 2.896 97.4401 4.48266 99.1201 6.536C100.837 8.58933 101.808 11.0347 102.032 13.872H94.8641C94.3787 12.3787 93.5761 11.0907 92.4561 10.008C91.3734 8.888 89.9361 8.02933 88.1441 7.432C86.3521 6.79733 84.1867 6.48 81.6481 6.48C78.4001 6.48 75.6187 7.00267 73.3041 8.048C71.0267 9.09333 69.2907 10.568 68.0961 12.472C66.9014 14.376 66.3041 16.616 66.3041 19.192C66.3041 21.6933 66.8267 23.8587 67.8721 25.688C68.9174 27.48 70.5227 28.8613 72.6881 29.832C74.8907 30.8027 77.6907 31.288 81.0881 31.288C83.7014 31.288 85.9974 30.952 87.9761 30.28C89.9921 29.5707 91.6721 28.6373 93.0161 27.48C94.3601 26.2853 95.3121 24.96 95.8721 23.504L98.7841 22.44C98.2987 27.256 96.4694 31.008 93.2961 33.696C90.1601 36.384 85.9974 37.728 80.8081 37.728ZM96.8801 37C96.8801 35.8427 96.9547 34.5173 97.1041 33.024C97.2534 31.4933 97.4401 29.9627 97.6641 28.432C97.8881 26.864 98.0934 25.4267 98.2801 24.12H81.7041V19.36H103.32V37H96.8801ZM139.332 33.304H135.804L156.636 0.767999H164.084V37H156.636V10.68L158.428 11.184L141.796 37H133.452L116.82 11.296L118.612 10.792V37H111.164V0.767999H118.612L139.332 33.304ZM178.343 29.104V22.888H202.311V29.104H178.343ZM169.327 37L186.351 0.767999H194.415L211.607 37H203.487L188.591 4.352H192.175L177.391 37H169.327Z" fill="#CBCBCB"/>
</svg>
