<svg width="393" height="38" viewBox="0 0 393 38" fill="none" xmlns="http://www.w3.org/2000/svg">
<path d="M21.032 0.767999C25.1013 0.767999 28.4987 1.25333 31.224 2.224C33.9493 3.19466 36.1147 4.52 37.72 6.2C39.3627 7.84266 40.52 9.74666 41.192 11.912C41.9013 14.0773 42.256 16.3547 42.256 18.744C42.256 21.1333 41.864 23.4293 41.08 25.632C40.3333 27.8347 39.12 29.7947 37.44 31.512C35.7973 33.192 33.6133 34.536 30.888 35.544C28.2 36.5147 24.9147 37 21.032 37H0.312V0.767999H21.032ZM7.76 30.616H20.864C23.552 30.616 25.7733 30.2987 27.528 29.664C29.32 28.992 30.7387 28.096 31.784 26.976C32.8293 25.856 33.576 24.5867 34.024 23.168C34.472 21.7493 34.696 20.2747 34.696 18.744C34.696 17.2133 34.472 15.7573 34.024 14.376C33.576 12.9947 32.8293 11.7627 31.784 10.68C30.7387 9.59733 29.32 8.73867 27.528 8.104C25.7733 7.46933 23.552 7.152 20.864 7.152H7.76V30.616ZM56.9788 21.88V30.784H84.9228V37H49.5308V0.767999H84.8668V6.984H56.9788V16H79.8268V21.88H56.9788ZM105.394 37L89.3778 0.767999H97.6098L111.33 33.472H108.754L122.418 0.767999H130.538L114.69 37H105.394ZM143.44 21.88V30.784H171.384V37H135.992V0.767999H171.328V6.984H143.44V16H166.288V21.88H143.44ZM186.479 0.767999V30.784H210.559V37H179.031V0.767999H186.479ZM237.341 37.728C232.525 37.728 228.399 36.9813 224.965 35.488C221.567 33.9573 218.954 31.792 217.125 28.992C215.333 26.192 214.437 22.832 214.437 18.912C214.437 14.9547 215.333 11.576 217.125 8.776C218.954 5.976 221.567 3.82933 224.965 2.336C228.399 0.805332 232.525 0.0399985 237.341 0.0399985C242.194 0.0399985 246.319 0.805332 249.717 2.336C253.114 3.82933 255.709 5.976 257.501 8.776C259.33 11.576 260.245 14.9547 260.245 18.912C260.245 22.832 259.33 26.192 257.501 28.992C255.709 31.792 253.114 33.9573 249.717 35.488C246.319 36.9813 242.194 37.728 237.341 37.728ZM237.341 31.288C240.327 31.288 242.941 30.84 245.181 29.944C247.458 29.048 249.231 27.6853 250.501 25.856C251.807 24.0267 252.461 21.712 252.461 18.912C252.461 16.112 251.807 13.7973 250.501 11.968C249.231 10.1387 247.458 8.776 245.181 7.88C242.941 6.94667 240.327 6.48 237.341 6.48C234.391 6.48 231.759 6.94667 229.445 7.88C227.13 8.776 225.319 10.1387 224.013 11.968C222.706 13.7973 222.053 16.112 222.053 18.912C222.053 21.712 222.706 24.0267 224.013 25.856C225.319 27.6853 227.13 29.048 229.445 29.944C231.759 30.84 234.391 31.288 237.341 31.288ZM273.955 25.24V19.304H290.531C292.51 19.304 294.078 18.7813 295.235 17.736C296.392 16.6533 296.971 15.16 296.971 13.256C296.971 11.2773 296.392 9.76533 295.235 8.72C294.078 7.67466 292.51 7.152 290.531 7.152H274.851V37H267.403V0.767999H289.859C291.875 0.767999 293.76 1.01067 295.515 1.496C297.307 1.98133 298.856 2.728 300.163 3.736C301.507 4.744 302.552 6.032 303.299 7.6C304.046 9.168 304.419 11.0533 304.419 13.256C304.419 15.4213 304.046 17.2693 303.299 18.8C302.552 20.3307 301.507 21.5813 300.163 22.552C298.856 23.4853 297.307 24.176 295.515 24.624C293.76 25.0347 291.875 25.24 289.859 25.24H273.955ZM318.877 21.88V30.784H346.821V37H311.429V0.767999H346.765V6.984H318.877V16H341.725V21.88H318.877ZM354.468 37V0.767999H379.052C381.852 0.767999 384.279 1.16 386.332 1.944C388.423 2.69067 390.047 3.88533 391.204 5.528C392.362 7.13333 392.94 9.20533 392.94 11.744C392.94 13.4613 392.642 14.9173 392.044 16.112C391.447 17.3067 390.607 18.2773 389.524 19.024C388.479 19.7707 387.266 20.3493 385.884 20.76C384.503 21.1333 383.028 21.376 381.46 21.488L380.676 21.04C383.29 21.0773 385.436 21.3013 387.116 21.712C388.796 22.0853 390.047 22.7947 390.868 23.84C391.727 24.848 392.156 26.36 392.156 28.376V37H384.708V28.88C384.708 27.4987 384.466 26.4347 383.98 25.688C383.495 24.904 382.618 24.3627 381.348 24.064C380.116 23.7653 378.324 23.616 375.972 23.616H361.916V37H354.468ZM361.916 17.792H379.052C381.143 17.792 382.73 17.288 383.812 16.28C384.932 15.272 385.492 13.9093 385.492 12.192C385.492 10.5493 384.932 9.29867 383.812 8.44C382.73 7.58133 381.143 7.152 379.052 7.152H361.916V17.792Z" fill="#CBCBCB"/>
</svg>
