<svg width="414" height="38" viewBox="0 0 414 38" fill="none" xmlns="http://www.w3.org/2000/svg">
<path d="M33.576 20.984V0.767999H41.024V21.768C41.024 24.1573 40.6693 26.248 39.96 28.04C39.288 29.832 38.3173 31.344 37.048 32.576C35.7787 33.808 34.2853 34.816 32.568 35.6C30.888 36.3467 29.04 36.888 27.024 37.224C25.0453 37.56 22.9547 37.728 20.752 37.728C18.4747 37.728 16.3093 37.56 14.256 37.224C12.2027 36.888 10.3173 36.3467 8.6 35.6C6.92 34.816 5.464 33.808 4.232 32.576C3 31.344 2.02933 29.832 1.32 28.04C0.648 26.248 0.312 24.1573 0.312 21.768V0.767999H7.76V20.984C7.76 23.8213 8.32 25.9867 9.44 27.48C10.56 28.936 12.0907 29.944 14.032 30.504C16.0107 31.0267 18.2507 31.288 20.752 31.288C23.1787 31.288 25.344 31.0267 27.248 30.504C29.1893 29.944 30.72 28.936 31.84 27.48C32.9973 25.9867 33.576 23.8213 33.576 20.984ZM50.7041 0.767999H58.1521V37H50.7041V0.767999ZM102.024 0.767999C106.094 0.767999 109.491 1.25333 112.216 2.224C114.942 3.19466 117.107 4.52 118.712 6.2C120.355 7.84266 121.512 9.74666 122.184 11.912C122.894 14.0773 123.248 16.3547 123.248 18.744C123.248 21.1333 122.856 23.4293 122.072 25.632C121.326 27.8347 120.112 29.7947 118.432 31.512C116.79 33.192 114.606 34.536 111.88 35.544C109.192 36.5147 105.907 37 102.024 37H81.3042V0.767999H102.024ZM88.7522 30.616H101.856C104.544 30.616 106.766 30.2987 108.52 29.664C110.312 28.992 111.731 28.096 112.776 26.976C113.822 25.856 114.568 24.5867 115.016 23.168C115.464 21.7493 115.688 20.2747 115.688 18.744C115.688 17.2133 115.464 15.7573 115.016 14.376C114.568 12.9947 113.822 11.7627 112.776 10.68C111.731 9.59733 110.312 8.73867 108.52 8.104C106.766 7.46933 104.544 7.152 101.856 7.152H88.7522V30.616ZM137.971 21.88V30.784H165.915V37H130.523V0.767999H165.859V6.984H137.971V16H160.819V21.88H137.971ZM171.154 24.792H178.714C178.863 26.0613 179.442 27.2187 180.45 28.264C181.495 29.272 182.858 30.0747 184.538 30.672C186.218 31.232 188.103 31.512 190.194 31.512C192.098 31.512 193.666 31.3067 194.898 30.896C196.13 30.4853 197.045 29.9067 197.642 29.16C198.239 28.4133 198.538 27.5173 198.538 26.472C198.538 25.464 198.165 24.6987 197.418 24.176C196.671 23.616 195.495 23.168 193.89 22.832C192.285 22.4587 190.175 22.0853 187.562 21.712C185.509 21.4133 183.567 21.0027 181.738 20.48C179.909 19.92 178.285 19.2107 176.866 18.352C175.485 17.4933 174.383 16.448 173.562 15.216C172.778 13.9467 172.386 12.4533 172.386 10.736C172.386 8.608 172.983 6.74133 174.178 5.136C175.41 3.53066 177.221 2.28 179.61 1.384C181.999 0.487998 184.93 0.0399985 188.402 0.0399985C193.629 0.0399985 197.642 1.16 200.442 3.4C203.279 5.60267 204.661 8.64533 204.586 12.528H197.306C197.157 10.3253 196.223 8.73867 194.506 7.768C192.826 6.79733 190.698 6.312 188.122 6.312C185.733 6.312 183.754 6.66666 182.186 7.376C180.655 8.08533 179.89 9.29866 179.89 11.016C179.89 11.688 180.077 12.2853 180.45 12.808C180.823 13.2933 181.458 13.7227 182.354 14.096C183.25 14.4693 184.463 14.824 185.994 15.16C187.525 15.496 189.429 15.832 191.706 16.168C193.834 16.4667 195.757 16.8773 197.474 17.4C199.229 17.8853 200.722 18.5387 201.954 19.36C203.223 20.144 204.194 21.152 204.866 22.384C205.538 23.616 205.874 25.128 205.874 26.92C205.874 29.1227 205.295 31.0453 204.138 32.688C203.018 34.2933 201.263 35.544 198.874 36.44C196.522 37.336 193.461 37.784 189.69 37.784C187.002 37.784 184.631 37.504 182.578 36.944C180.525 36.3467 178.751 35.5627 177.258 34.592C175.765 33.6213 174.551 32.5573 173.618 31.4C172.685 30.2427 172.013 29.0853 171.602 27.928C171.229 26.7707 171.079 25.7253 171.154 24.792ZM213.509 0.767999H220.957V37H213.509V0.767999ZM251.433 37.728C248.073 37.728 245.03 37.336 242.305 36.552C239.617 35.768 237.284 34.592 235.305 33.024C233.364 31.456 231.87 29.5147 230.825 27.2C229.78 24.8853 229.257 22.216 229.257 19.192C229.257 16.1307 229.798 13.424 230.881 11.072C232.001 8.68267 233.569 6.66667 235.585 5.024C237.638 3.38133 240.065 2.14933 242.865 1.328C245.702 0.469332 248.838 0.0399985 252.273 0.0399985C256.342 0.0399985 259.852 0.618666 262.801 1.776C265.75 2.896 268.065 4.48266 269.745 6.536C271.462 8.58933 272.433 11.0347 272.657 13.872H265.489C265.004 12.3787 264.201 11.0907 263.081 10.008C261.998 8.888 260.561 8.02933 258.769 7.432C256.977 6.79733 254.812 6.48 252.273 6.48C249.025 6.48 246.244 7.00267 243.929 8.048C241.652 9.09333 239.916 10.568 238.721 12.472C237.526 14.376 236.929 16.616 236.929 19.192C236.929 21.6933 237.452 23.8587 238.497 25.688C239.542 27.48 241.148 28.8613 243.313 29.832C245.516 30.8027 248.316 31.288 251.713 31.288C254.326 31.288 256.622 30.952 258.601 30.28C260.617 29.5707 262.297 28.6373 263.641 27.48C264.985 26.2853 265.937 24.96 266.497 23.504L269.409 22.44C268.924 27.256 267.094 31.008 263.921 33.696C260.785 36.384 256.622 37.728 251.433 37.728ZM267.505 37C267.505 35.8427 267.58 34.5173 267.729 33.024C267.878 31.4933 268.065 29.9627 268.289 28.432C268.513 26.864 268.718 25.4267 268.905 24.12H252.329V19.36H273.945V37H267.505ZM318.525 29.608L316.173 30.56V0.767999H323.621V37H316.173L286.885 8.384L289.237 7.432V37H281.789V0.767999H289.237L318.525 29.608ZM339.713 21.88V30.784H367.657V37H332.265V0.767999H367.601V6.984H339.713V16H362.561V21.88H339.713ZM375.304 37V0.767999H399.888C402.688 0.767999 405.115 1.16 407.168 1.944C409.259 2.69067 410.883 3.88533 412.04 5.528C413.198 7.13333 413.776 9.20533 413.776 11.744C413.776 13.4613 413.478 14.9173 412.88 16.112C412.283 17.3067 411.443 18.2773 410.36 19.024C409.315 19.7707 408.102 20.3493 406.72 20.76C405.339 21.1333 403.864 21.376 402.296 21.488L401.512 21.04C404.126 21.0773 406.272 21.3013 407.952 21.712C409.632 22.0853 410.883 22.7947 411.704 23.84C412.563 24.848 412.992 26.36 412.992 28.376V37H405.544V28.88C405.544 27.4987 405.302 26.4347 404.816 25.688C404.331 24.904 403.454 24.3627 402.184 24.064C400.952 23.7653 399.16 23.616 396.808 23.616H382.752V37H375.304ZM382.752 17.792H399.888C401.979 17.792 403.566 17.288 404.648 16.28C405.768 15.272 406.328 13.9093 406.328 12.192C406.328 10.5493 405.768 9.29867 404.648 8.44C403.566 7.58133 401.979 7.152 399.888 7.152H382.752V17.792Z" fill="#CBCBCB"/>
</svg>
