<svg width="439" height="38" viewBox="0 0 439 38" fill="none" xmlns="http://www.w3.org/2000/svg">
<path d="M33.576 20.984V0.767999H41.024V21.768C41.024 24.1573 40.6693 26.248 39.96 28.04C39.288 29.832 38.3173 31.344 37.048 32.576C35.7787 33.808 34.2853 34.816 32.568 35.6C30.888 36.3467 29.04 36.888 27.024 37.224C25.0453 37.56 22.9547 37.728 20.752 37.728C18.4747 37.728 16.3093 37.56 14.256 37.224C12.2027 36.888 10.3173 36.3467 8.6 35.6C6.92 34.816 5.464 33.808 4.232 32.576C3 31.344 2.02933 29.832 1.32 28.04C0.648 26.248 0.312 24.1573 0.312 21.768V0.767999H7.76V20.984C7.76 23.8213 8.32 25.9867 9.44 27.48C10.56 28.936 12.0907 29.944 14.032 30.504C16.0107 31.0267 18.2507 31.288 20.752 31.288C23.1787 31.288 25.344 31.0267 27.248 30.504C29.1893 29.944 30.72 28.936 31.84 27.48C32.9973 25.9867 33.576 23.8213 33.576 20.984ZM77.2013 0.767999H86.2733L69.1373 20.76L68.9133 20.984L56.2013 37H47.1293L64.7693 16L64.9373 15.832L77.2013 0.767999ZM56.7613 0.767999L68.8573 15.944L68.9693 16.112L86.4413 37H76.9773L64.4333 20.76L64.2653 20.648L47.6893 0.767999H56.7613ZM127.18 0.767999C131.25 0.767999 134.647 1.25333 137.372 2.224C140.098 3.19466 142.263 4.52 143.868 6.2C145.511 7.84266 146.668 9.74666 147.34 11.912C148.05 14.0773 148.404 16.3547 148.404 18.744C148.404 21.1333 148.012 23.4293 147.228 25.632C146.482 27.8347 145.268 29.7947 143.588 31.512C141.946 33.192 139.762 34.536 137.036 35.544C134.348 36.5147 131.063 37 127.18 37H106.46V0.767999H127.18ZM113.908 30.616H127.012C129.7 30.616 131.922 30.2987 133.676 29.664C135.468 28.992 136.887 28.096 137.932 26.976C138.978 25.856 139.724 24.5867 140.172 23.168C140.62 21.7493 140.844 20.2747 140.844 18.744C140.844 17.2133 140.62 15.7573 140.172 14.376C139.724 12.9947 138.978 11.7627 137.932 10.68C136.887 9.59733 135.468 8.73867 133.676 8.104C131.922 7.46933 129.7 7.152 127.012 7.152H113.908V30.616ZM163.127 21.88V30.784H191.071V37H155.679V0.767999H191.015V6.984H163.127V16H185.975V21.88H163.127ZM196.31 24.792H203.87C204.02 26.0613 204.598 27.2187 205.606 28.264C206.652 29.272 208.014 30.0747 209.694 30.672C211.374 31.232 213.26 31.512 215.35 31.512C217.254 31.512 218.822 31.3067 220.054 30.896C221.286 30.4853 222.201 29.9067 222.798 29.16C223.396 28.4133 223.694 27.5173 223.694 26.472C223.694 25.464 223.321 24.6987 222.574 24.176C221.828 23.616 220.652 23.168 219.046 22.832C217.441 22.4587 215.332 22.0853 212.718 21.712C210.665 21.4133 208.724 21.0027 206.894 20.48C205.065 19.92 203.441 19.2107 202.022 18.352C200.641 17.4933 199.54 16.448 198.718 15.216C197.934 13.9467 197.542 12.4533 197.542 10.736C197.542 8.608 198.14 6.74133 199.334 5.136C200.566 3.53066 202.377 2.28 204.766 1.384C207.156 0.487998 210.086 0.0399985 213.558 0.0399985C218.785 0.0399985 222.798 1.16 225.598 3.4C228.436 5.60267 229.817 8.64533 229.742 12.528H222.462C222.313 10.3253 221.38 8.73867 219.662 7.768C217.982 6.79733 215.854 6.312 213.278 6.312C210.889 6.312 208.91 6.66666 207.342 7.376C205.812 8.08533 205.046 9.29866 205.046 11.016C205.046 11.688 205.233 12.2853 205.606 12.808C205.98 13.2933 206.614 13.7227 207.51 14.096C208.406 14.4693 209.62 14.824 211.15 15.16C212.681 15.496 214.585 15.832 216.862 16.168C218.99 16.4667 220.913 16.8773 222.63 17.4C224.385 17.8853 225.878 18.5387 227.11 19.36C228.38 20.144 229.35 21.152 230.022 22.384C230.694 23.616 231.03 25.128 231.03 26.92C231.03 29.1227 230.452 31.0453 229.294 32.688C228.174 34.2933 226.42 35.544 224.03 36.44C221.678 37.336 218.617 37.784 214.846 37.784C212.158 37.784 209.788 37.504 207.734 36.944C205.681 36.3467 203.908 35.5627 202.414 34.592C200.921 33.6213 199.708 32.5573 198.774 31.4C197.841 30.2427 197.169 29.0853 196.758 27.928C196.385 26.7707 196.236 25.7253 196.31 24.792ZM238.665 0.767999H246.113V37H238.665V0.767999ZM276.589 37.728C273.229 37.728 270.187 37.336 267.461 36.552C264.773 35.768 262.44 34.592 260.461 33.024C258.52 31.456 257.027 29.5147 255.981 27.2C254.936 24.8853 254.413 22.216 254.413 19.192C254.413 16.1307 254.955 13.424 256.037 11.072C257.157 8.68267 258.725 6.66667 260.741 5.024C262.795 3.38133 265.221 2.14933 268.021 1.328C270.859 0.469332 273.995 0.0399985 277.429 0.0399985C281.499 0.0399985 285.008 0.618666 287.957 1.776C290.907 2.896 293.221 4.48266 294.901 6.536C296.619 8.58933 297.589 11.0347 297.813 13.872H290.645C290.16 12.3787 289.357 11.0907 288.237 10.008C287.155 8.888 285.717 8.02933 283.925 7.432C282.133 6.79733 279.968 6.48 277.429 6.48C274.181 6.48 271.4 7.00267 269.085 8.048C266.808 9.09333 265.072 10.568 263.877 12.472C262.683 14.376 262.085 16.616 262.085 19.192C262.085 21.6933 262.608 23.8587 263.653 25.688C264.699 27.48 266.304 28.8613 268.469 29.832C270.672 30.8027 273.472 31.288 276.869 31.288C279.483 31.288 281.779 30.952 283.757 30.28C285.773 29.5707 287.453 28.6373 288.797 27.48C290.141 26.2853 291.093 24.96 291.653 23.504L294.565 22.44C294.08 27.256 292.251 31.008 289.077 33.696C285.941 36.384 281.779 37.728 276.589 37.728ZM292.661 37C292.661 35.8427 292.736 34.5173 292.885 33.024C293.035 31.4933 293.221 29.9627 293.445 28.432C293.669 26.864 293.875 25.4267 294.061 24.12H277.485V19.36H299.101V37H292.661ZM343.681 29.608L341.329 30.56V0.767999H348.777V37H341.329L312.041 8.384L314.393 7.432V37H306.945V0.767999H314.393L343.681 29.608ZM364.869 21.88V30.784H392.813V37H357.421V0.767999H392.757V6.984H364.869V16H387.717V21.88H364.869ZM400.46 37V0.767999H425.044C427.844 0.767999 430.271 1.16 432.324 1.944C434.415 2.69067 436.039 3.88533 437.196 5.528C438.354 7.13333 438.932 9.20533 438.932 11.744C438.932 13.4613 438.634 14.9173 438.036 16.112C437.439 17.3067 436.599 18.2773 435.516 19.024C434.471 19.7707 433.258 20.3493 431.876 20.76C430.495 21.1333 429.02 21.376 427.452 21.488L426.668 21.04C429.282 21.0773 431.428 21.3013 433.108 21.712C434.788 22.0853 436.039 22.7947 436.86 23.84C437.719 24.848 438.148 26.36 438.148 28.376V37H430.7V28.88C430.7 27.4987 430.458 26.4347 429.972 25.688C429.487 24.904 428.61 24.3627 427.34 24.064C426.108 23.7653 424.316 23.616 421.964 23.616H407.908V37H400.46ZM407.908 17.792H425.044C427.135 17.792 428.722 17.288 429.804 16.28C430.924 15.272 431.484 13.9093 431.484 12.192C431.484 10.5493 430.924 9.29867 429.804 8.44C428.722 7.58133 427.135 7.152 425.044 7.152H407.908V17.792Z" fill="#CBCBCB"/>
</svg>
