<svg width="23" height="24" viewBox="0 0 23 24" fill="none" xmlns="http://www.w3.org/2000/svg">
<path d="M5.11324 18.0916C4.71085 17.5742 4.20787 16.5251 3.33125 15.2174C2.82827 14.4988 1.59238 13.1336 1.21874 12.4294C0.949387 12.0015 0.871229 11.4805 1.00317 10.9924C1.22874 10.0643 2.1091 9.44866 3.05821 9.55527C3.79227 9.70273 4.46687 10.0625 4.99827 10.59C5.3693 10.9394 5.71059 11.3192 6.0186 11.7253C6.24854 12.0127 6.30602 12.1277 6.56469 12.4582C6.82337 12.7887 6.99582 13.1192 6.86648 12.6306C6.76589 11.9121 6.59344 10.7049 6.34913 9.62712C6.16231 8.80798 6.1192 8.67865 5.94675 8.0607C5.7743 7.44275 5.6737 6.9254 5.48688 6.22123C5.31611 5.52938 5.18179 4.82903 5.0845 4.12309C4.90336 3.22017 5.03514 2.28249 5.45814 1.46448C5.96025 0.992209 6.69681 0.86756 7.32635 1.14832C7.95952 1.61586 8.43161 2.26875 8.67721 3.01653C9.05382 3.93682 9.30516 4.90352 9.42449 5.8907C9.65443 7.32779 10.0999 9.42593 10.1143 9.85706C10.1143 9.32534 10.0137 8.20441 10.1143 7.70143C10.214 7.17707 10.5784 6.7419 11.0771 6.55176C11.5051 6.42045 11.9579 6.39092 12.3993 6.46554C12.8448 6.55868 13.2395 6.81496 13.5058 7.18408C13.8388 8.02246 14.0235 8.91231 14.0519 9.81394C14.0904 9.02439 14.2255 8.24253 14.4543 7.48587C14.6944 7.1475 15.0451 6.90355 15.4459 6.79607C15.921 6.7092 16.4079 6.7092 16.883 6.79607C17.2726 6.92631 17.6134 7.17189 17.8602 7.50024C18.1645 8.26239 18.3487 9.06715 18.4063 9.8858C18.4063 10.087 18.5069 9.32533 18.823 8.82236C18.9873 8.3346 19.3994 7.97156 19.9039 7.86996C20.4085 7.76837 20.9289 7.94367 21.2691 8.32983C21.6094 8.71599 21.7178 9.25434 21.5535 9.74209C21.5535 10.6762 21.5535 10.6331 21.5535 11.2654C21.5535 11.8977 21.5535 12.4582 21.5535 12.9899C21.5011 13.8309 21.3858 14.6667 21.2086 15.4904C20.9585 16.2192 20.6104 16.9106 20.1739 17.5455C19.4761 18.3214 18.8996 19.1984 18.4638 20.1466C18.3556 20.6177 18.3073 21.1005 18.3201 21.5837C18.3186 22.0301 18.3766 22.4747 18.4925 22.9058C17.9049 22.9679 17.3125 22.9679 16.7249 22.9058C16.1644 22.8196 15.4746 21.6986 15.2878 21.3537C15.1954 21.1685 15.0062 21.0515 14.7992 21.0515C14.5922 21.0515 14.403 21.1685 14.3106 21.3537C13.9944 21.8998 13.2903 22.8914 12.8016 22.9489C11.8388 23.0639 9.85562 22.9489 8.2892 22.9489C8.2892 22.9489 8.54787 21.5118 7.95867 20.9945C7.36946 20.4771 6.76589 19.8735 6.32039 19.4712L5.11324 18.0916Z" fill="#7898F6"/>
<path fill-rule="evenodd" clip-rule="evenodd" d="M5.11324 18.0916C4.71085 17.5742 4.20787 16.5251 3.33125 15.2174C2.82827 14.4988 1.59238 13.1336 1.21874 12.4294C0.949387 12.0015 0.871229 11.4805 1.00317 10.9924C1.22874 10.0643 2.1091 9.44866 3.05821 9.55527C3.79227 9.70273 4.46687 10.0625 4.99827 10.59C5.3693 10.9394 5.71059 11.3192 6.0186 11.7253C6.24854 12.0127 6.30602 12.1277 6.56469 12.4582C6.82337 12.7887 6.99582 13.1192 6.86648 12.6306C6.76589 11.9121 6.59344 10.7049 6.34913 9.62712C6.16231 8.80798 6.1192 8.67865 5.94675 8.0607C5.7743 7.44275 5.6737 6.9254 5.48688 6.22123C5.31611 5.52938 5.18179 4.82903 5.0845 4.12309C4.90336 3.22017 5.03514 2.28249 5.45814 1.46448C5.96025 0.992209 6.69681 0.86756 7.32635 1.14832C7.95952 1.61586 8.43161 2.26875 8.67721 3.01653C9.05382 3.93682 9.30516 4.90352 9.42449 5.8907C9.65443 7.32779 10.0999 9.42593 10.1143 9.85706C10.1143 9.32534 10.0137 8.20441 10.1143 7.70143C10.214 7.17707 10.5784 6.7419 11.0771 6.55176C11.5051 6.42045 11.9579 6.39092 12.3993 6.46554C12.8448 6.55868 13.2395 6.81496 13.5058 7.18408C13.8388 8.02246 14.0235 8.91231 14.0519 9.81394C14.0904 9.02439 14.2255 8.24253 14.4543 7.48587C14.6944 7.1475 15.0451 6.90355 15.4459 6.79607C15.921 6.7092 16.4079 6.7092 16.883 6.79607C17.2726 6.92631 17.6134 7.17189 17.8602 7.50024C18.1645 8.26239 18.3487 9.06715 18.4063 9.8858C18.4063 10.087 18.5069 9.32533 18.823 8.82236C18.9873 8.3346 19.3994 7.97156 19.9039 7.86996C20.4085 7.76837 20.9289 7.94367 21.2691 8.32983C21.6094 8.71599 21.7178 9.25434 21.5535 9.74209C21.5535 10.6762 21.5535 10.6331 21.5535 11.2654C21.5535 11.8977 21.5535 12.4582 21.5535 12.9899C21.5011 13.8309 21.3858 14.6667 21.2086 15.4904C20.9585 16.2192 20.6104 16.9106 20.1739 17.5455C19.4761 18.3214 18.8996 19.1984 18.4638 20.1466C18.3556 20.6177 18.3073 21.1005 18.3201 21.5837C18.3186 22.0301 18.3766 22.4747 18.4925 22.9058C17.9049 22.9679 17.3125 22.9679 16.7249 22.9058C16.1644 22.8196 15.4746 21.6986 15.2878 21.3537C15.1954 21.1685 15.0062 21.0515 14.7992 21.0515C14.5922 21.0515 14.403 21.1685 14.3106 21.3537C13.9944 21.8998 13.2903 22.8914 12.8016 22.9489C11.8388 23.0639 9.85562 22.9489 8.2892 22.9489C8.2892 22.9489 8.54787 21.5118 7.95867 20.9945C7.36946 20.4771 6.76589 19.8735 6.32039 19.4712L5.11324 18.0916Z" stroke="white" stroke-width="1.07781" stroke-linecap="round" stroke-linejoin="round"/>
<path d="M17.3005 18.8761V13.9156C17.3005 13.6186 17.0592 13.3779 16.7616 13.3779C16.4639 13.3779 16.2227 13.6186 16.2227 13.9156V18.8761C16.2227 19.173 16.4639 19.4137 16.7616 19.4137C17.0592 19.4137 17.3005 19.173 17.3005 18.8761Z" fill="white"/>
<path d="M14.4542 18.8742L14.4255 13.9112C14.4237 13.615 14.1811 13.3762 13.8835 13.3779C13.5858 13.3796 13.3459 13.6212 13.3477 13.9174L13.3764 18.8804C13.3781 19.1766 13.6208 19.4154 13.9184 19.4137C14.216 19.412 14.4559 19.1705 14.4542 18.8742Z" fill="white"/>
<path d="M10.4732 13.9226L10.5019 18.8754C10.5036 19.1744 10.7463 19.4154 11.0439 19.4137C11.3416 19.4119 11.5814 19.1681 11.5797 18.869L11.5509 13.9163C11.5492 13.6172 11.3065 13.3762 11.0089 13.3779C10.7113 13.3797 10.4714 13.6235 10.4732 13.9226Z" fill="white"/>
</svg>
