<svg width="140" height="33" viewBox="0 0 140 33" fill="none" xmlns="http://www.w3.org/2000/svg">
<path d="M47.0233 18.8095H45.9009V23.4147C45.9009 24.0355 46.025 24.4313 46.2921 24.6143C46.6375 24.8043 47.0318 24.8868 47.4244 24.8512H47.9506V25.4609H40.8662V24.8512H41.4734C41.9081 24.8929 42.3448 24.7949 42.7198 24.5713C42.852 24.4116 42.9502 24.2267 43.0086 24.0279C43.0669 23.829 43.084 23.6204 43.059 23.4147V12.3869C43.059 11.6272 42.8939 11.1464 42.5648 10.9625C42.1589 10.8367 41.7334 10.7866 41.3094 10.8145H40.8672V10.2238L47.0243 10.2128C48.4575 10.1379 49.8825 10.4722 51.1327 11.1764C51.7003 11.5301 52.1623 12.0298 52.4703 12.6232C52.7783 13.2165 52.9209 13.8817 52.8833 14.5491C52.9134 15.1994 52.7678 15.8458 52.4617 16.4204C52.1556 16.995 51.7004 17.4767 51.1437 17.8149C49.8963 18.5384 48.4659 18.8855 47.0253 18.8145L47.0233 18.8095ZM49.9573 14.5591C49.9573 12.1054 48.9793 10.8772 47.0233 10.8745H45.9419V18.1148H47.0233C48.98 18.1128 49.958 16.9282 49.9573 14.5591ZM62.1214 16.0365C62.1253 16.2045 62.0955 16.3716 62.0336 16.5278C61.9717 16.6841 61.8792 16.8263 61.7613 16.9462C61.6326 17.0826 61.4755 17.189 61.3011 17.2581C61.1267 17.3272 60.9392 17.3572 60.752 17.346C60.4216 17.3496 60.1005 17.2363 59.8457 17.0262C59.741 16.9491 59.6552 16.8494 59.5948 16.7344C59.5343 16.6194 59.5007 16.4922 59.4965 16.3624C59.489 16.1614 59.5231 15.9609 59.5966 15.7737H59.5756C58.9519 16.5169 58.5806 17.4389 58.5152 18.4066C58.3424 19.3787 58.2564 20.3642 58.2581 21.3515V22.9529C58.2046 23.4776 58.2788 24.0074 58.4742 24.4973C58.6082 24.6972 58.9484 24.7972 59.4745 24.7972H60.4829V25.4609H53.4005V24.7972H54.0697C54.7389 24.7972 55.1511 24.6682 55.3161 24.4123C55.5068 23.9401 55.5776 23.4281 55.5222 22.9219V18.8535C55.585 17.9486 55.5156 17.0394 55.3161 16.1545C55.1721 15.8446 54.822 15.7047 54.2658 15.7047H54.0297V15.0289H57.839L57.952 17.6959H57.982C58.023 16.9888 58.2584 16.3067 58.6623 15.7247C58.8758 15.4095 59.1646 15.1526 59.5026 14.9771C59.8406 14.8017 60.2171 14.7133 60.5979 14.7201C61.6173 14.7201 62.1214 15.1589 62.1214 16.0365ZM74.4256 25.4599H70.4663L70.4243 23.8426C70.3942 23.8855 70.3942 23.8855 70.3942 23.8426C70.2063 24.3605 69.8602 24.8064 69.4049 25.1171C68.8436 25.5454 68.1555 25.7748 67.4492 25.7688C66.9865 25.8143 66.5196 25.7497 66.0865 25.5805C65.6535 25.4113 65.2666 25.1422 64.9574 24.7952C64.5041 24.0728 64.2938 23.2245 64.3572 22.3741V17.8758C64.4058 17.2235 64.3572 16.5676 64.2132 15.9296C64.1201 15.7776 63.863 15.7027 63.4509 15.7027H63.3068V15.0279H67.1261V22.653C67.1261 23.7986 67.5793 24.3754 68.4856 24.3754C69.2859 24.3754 69.813 23.8626 70.0711 22.812C70.1847 22.2594 70.2331 21.6954 70.2152 21.1316V17.8758C70.283 17.2414 70.22 16.5998 70.0301 15.9906C69.8651 15.7906 69.4839 15.7027 68.9077 15.7027H68.6807V15.0269H72.9431V22.9499C72.8917 23.4749 72.9822 24.0041 73.2052 24.4823C73.3068 24.5973 73.4351 24.6858 73.5787 24.74C73.7224 24.7941 73.8771 24.8124 74.0295 24.7932H74.4296V25.4599H74.4256ZM86.1296 25.4599H82.1212L82.0802 23.8416C81.9145 24.3324 81.5998 24.7594 81.1799 25.0631C80.6075 25.5282 79.8899 25.778 79.1522 25.7688C78.481 25.8095 77.8119 25.6603 77.2216 25.3384C76.6314 25.0164 76.1439 24.5347 75.8151 23.9485C75.1975 22.8107 74.9021 21.5261 74.9608 20.2329C74.9337 18.9085 75.3304 17.6099 76.0932 16.5264C76.4621 15.9618 76.9682 15.4999 77.5642 15.1839C78.1602 14.8678 78.8267 14.7079 79.5013 14.7191C79.9503 14.6535 80.4087 14.7173 80.8227 14.903C81.2366 15.0888 81.5889 15.3887 81.8381 15.7677V12.5229C81.9 12.0482 81.7744 11.5681 81.488 11.1844C81.1948 10.9588 80.8255 10.8556 80.4577 10.8965H80.2726V10.2218L84.5741 9.9009V23.4577C84.5741 24.0475 84.6671 24.4123 84.8521 24.5703C85.1483 24.751 85.4951 24.8306 85.8405 24.7972H86.1286L86.1296 25.4599ZM81.8361 21.2296V19.0764C81.8361 16.7543 81.2079 15.5957 79.9625 15.5957C78.6851 15.5957 78.0378 17.1491 78.0378 20.2339C78.0378 23.1248 78.659 24.57 79.9015 24.5693C80.23 24.5809 80.5536 24.4861 80.824 24.2992C81.0943 24.1122 81.297 23.843 81.402 23.5317C81.7025 22.8021 81.8526 22.0195 81.8431 21.2306L81.8361 21.2296ZM96.065 19.9001H89.5548C89.5223 20.6891 89.5777 21.4793 89.7198 22.2562C90.0279 23.9915 90.7792 24.8702 91.9846 24.8702C92.7821 24.8694 93.5479 24.5577 94.119 24.0014C94.6902 23.4451 95.0215 22.688 95.0426 21.8913H95.9279C95.9052 22.8383 95.5119 23.7387 94.8325 24.3994C94.4237 24.8464 93.9234 25.2002 93.3655 25.4367C92.8076 25.6732 92.2052 25.7868 91.5994 25.7698C90.8901 25.81 90.1808 25.6894 89.5247 25.4171C88.8685 25.1449 88.2824 24.7279 87.8102 24.1974C86.9378 23.0661 86.4996 21.6601 86.5747 20.2339C86.5166 18.7708 87.0299 17.3424 88.0062 16.2505C88.4435 15.7565 88.9832 15.3636 89.5879 15.0991C90.1925 14.8346 90.8475 14.7049 91.5074 14.7191C92.1712 14.6739 92.8362 14.7896 93.4457 15.0562C94.0553 15.3228 94.5914 15.7325 95.0086 16.2505C95.7649 17.3129 96.1387 18.6001 96.069 19.9021L96.065 19.9001ZM93.262 19.1843C93.313 16.5933 92.7158 15.2978 91.4804 15.2978C90.6971 15.2978 90.152 15.8216 89.8649 16.8492C89.6802 17.6139 89.5868 18.3977 89.5868 19.1843H93.262ZM108.252 25.4609H104.036V17.6979C104.036 16.6043 103.583 16.0595 102.686 16.0595C102.432 16.0596 102.182 16.1293 101.964 16.2611C101.746 16.3929 101.569 16.5818 101.451 16.8073C101.09 17.5072 100.926 18.2918 100.977 19.0774V22.9229C100.915 23.448 100.969 23.9801 101.135 24.4823C101.272 24.601 101.433 24.6899 101.607 24.7436C101.78 24.7973 101.963 24.8145 102.144 24.7942H102.452V25.4579H96.7412V24.7942H97.0713C97.2488 24.8121 97.428 24.7936 97.5981 24.74C97.7682 24.6864 97.9256 24.5987 98.0606 24.4823C98.2287 23.9797 98.285 23.4465 98.2257 22.9199V17.569C98.2845 17.0402 98.2212 16.505 98.0406 16.0046C97.9259 15.8932 97.7879 15.8086 97.6366 15.7567C97.4852 15.7049 97.3243 15.6871 97.1653 15.7047H96.7422V15.0289H100.735L100.786 16.6673H100.797C101.001 16.0581 101.405 15.5351 101.943 15.1823C102.48 14.8294 103.121 14.667 103.762 14.7211C104.208 14.6717 104.66 14.7304 105.08 14.892C105.499 15.0536 105.873 15.3134 106.171 15.6497C106.635 16.4194 106.845 17.3153 106.772 18.2107V22.9549C106.72 23.4728 106.783 23.9956 106.957 24.4863C107.065 24.6041 107.2 24.6938 107.351 24.748C107.502 24.8021 107.663 24.819 107.822 24.7972H108.254V25.4599L108.252 25.4609ZM115.809 21.5844C115.867 22.5602 115.738 23.5382 115.428 24.4653C115.178 24.9171 114.798 25.2833 114.337 25.5161C113.876 25.749 113.356 25.8377 112.844 25.7708C111.083 25.7708 110.209 24.7972 110.209 22.8589V15.7247H108.325V15.0249H108.5C109.083 15.0006 109.649 14.8199 110.138 14.5017C110.627 14.1835 111.022 13.7396 111.28 13.2166C111.883 12.33 112.219 11.2893 112.248 10.2178H112.939V15.0249H115.049V15.7247H112.98V23.1898C112.98 24.1325 113.268 24.6033 113.855 24.6033C114 24.6029 114.142 24.5653 114.268 24.4941C114.395 24.4228 114.5 24.3203 114.575 24.1964C114.928 23.3731 115.066 22.4736 114.975 21.5824H115.81L115.809 21.5844ZM122.306 25.4609H116.664V24.7972H116.994C117.436 24.7972 117.725 24.6972 117.858 24.4973C118.054 23.9932 118.128 23.45 118.074 22.9119V17.3211C118.074 16.5933 117.961 16.1315 117.744 15.9506C117.422 15.7692 117.053 15.6901 116.685 15.7237H116.458V15.0239H120.841V22.9059C120.787 23.4398 120.856 23.9789 121.041 24.4823C121.149 24.5976 121.283 24.6859 121.431 24.7401C121.58 24.7943 121.739 24.8128 121.896 24.7942H122.308V25.4579L122.306 25.4609ZM121.08 11.7202C121.073 12.1694 120.89 12.5978 120.571 12.9142C120.252 13.2305 119.821 13.4097 119.372 13.4136C119.148 13.4176 118.926 13.3753 118.719 13.2892C118.513 13.2032 118.326 13.0754 118.171 12.9137C118.009 12.7619 117.881 12.5775 117.795 12.3727C117.708 12.1679 117.666 11.9473 117.671 11.7252C117.668 11.5032 117.71 11.283 117.796 11.0783C117.882 10.8737 118.01 10.6892 118.171 10.5367C118.492 10.2237 118.924 10.0505 119.372 10.0548C119.594 10.0508 119.815 10.0914 120.021 10.1741C120.227 10.2569 120.415 10.3802 120.572 10.5367C120.734 10.688 120.863 10.8714 120.95 11.0752C121.038 11.2789 121.083 11.4986 121.08 11.7202ZM132.645 25.4599H128.864C128.875 24.8955 128.862 24.331 128.823 23.7666C128.657 24.3154 128.294 24.7837 127.804 25.0821C127.228 25.5233 126.523 25.7638 125.797 25.7668C125.346 25.7944 124.895 25.7246 124.474 25.5621C124.053 25.3996 123.671 25.1482 123.356 24.8252C122.926 24.3473 122.691 23.7256 122.697 23.0829C122.695 22.5265 122.852 21.9812 123.15 21.511C123.447 21.0407 123.873 20.665 124.377 20.4279C125.721 19.7835 127.154 19.3432 128.629 19.1214V17.353C128.629 16.0895 127.919 15.4538 126.517 15.4538C126.02 15.4509 125.531 15.5769 125.097 15.8196C124.786 15.9481 124.53 16.1835 124.378 16.4834V16.5244C124.457 16.4297 124.558 16.3559 124.673 16.3094C124.788 16.2629 124.912 16.245 125.035 16.2575C125.911 16.2575 126.353 16.6643 126.353 17.468C126.348 17.6366 126.307 17.8021 126.232 17.9534C126.157 18.1048 126.051 18.2385 125.921 18.3457C125.63 18.6077 125.251 18.7505 124.86 18.7455C124.47 18.7523 124.091 18.6197 123.79 18.3717C123.623 18.2242 123.49 18.0406 123.404 17.8348C123.317 17.6289 123.278 17.4061 123.29 17.1831C123.302 16.8123 123.414 16.4516 123.613 16.1387C123.812 15.8258 124.092 15.5723 124.424 15.4048C125.282 14.9202 126.259 14.6835 127.245 14.7211C129.982 14.7211 131.362 15.9206 131.362 18.3277V23.4467C131.362 24.0465 131.455 24.4203 131.649 24.5703C131.874 24.7303 132.146 24.8102 132.421 24.7972H132.648V25.4619L132.645 25.4599ZM128.632 21.4545V19.7941C127.809 19.8943 127.02 20.1801 126.324 20.6298C126.044 20.8919 125.827 21.2141 125.69 21.5723C125.553 21.9304 125.499 22.315 125.532 22.697C125.502 23.1753 125.641 23.6489 125.924 24.0355C126.021 24.177 126.152 24.2922 126.305 24.3707C126.458 24.4493 126.628 24.4886 126.799 24.4853C127.114 24.4877 127.422 24.3991 127.687 24.2302C127.951 24.0613 128.162 23.8194 128.292 23.5337C128.556 22.8744 128.672 22.1634 128.632 21.4545ZM139.082 24.7962V25.4599H133.646V24.7962H133.779C134.068 24.8155 134.356 24.7354 134.594 24.5693C134.779 24.4113 134.872 24.0465 134.872 23.4577V12.5229C134.934 12.0598 134.82 11.5903 134.552 11.2074C134.441 11.1001 134.308 11.0171 134.163 10.9638C134.018 10.9104 133.863 10.8879 133.709 10.8975H133.309V10.2218L137.61 9.8999V23.4577C137.555 23.8519 137.658 24.2519 137.897 24.5703C138.198 24.7506 138.548 24.8301 138.898 24.7972H139.073L139.082 24.7962ZM23.2802 9.21716L16.0588 5.04276L13.4299 4.56894V6.47821L15.4636 8.35449L12.6566 8.09659C12.6776 8.16156 13.4809 9.03423 15.0875 10.7186L25.7211 12.4869L27.5997 13.7074L22.7261 13.9543L20.7334 21.2695L14.1491 25.6599H9.84769L11.2882 22.801L11.0581 22.701L7.20279 25.6609H6.27147L10.2258 20.093C10.2668 19.7161 10.3719 18.4746 10.5389 16.3834L9.94372 15.5417L8.35818 21.6774L5.05206 25.6609H4.20177L6.16644 22.8829L8.91037 14.4462L8.26415 14.8L7.02273 18.1287L6.18845 18.5946L3.18743 25.6919C1.09278 22.7587 -0.0225074 19.24 0.000344275 15.6367C-0.00279822 13.6581 0.389717 11.6988 1.15484 9.8739C1.91996 8.04899 3.04227 6.39524 4.45586 5.00977C5.96868 3.41581 7.79787 2.15504 9.82635 1.30816C11.8548 0.461275 14.0379 0.0469306 16.2359 0.0916491C20.2563 0.0268711 24.1417 1.5412 27.0565 4.30904C29.2324 6.17377 30.7779 8.66539 31.481 11.4423L23.2802 9.21716ZM29.8015 9.94188C28.7854 7.40179 27.0115 5.23583 24.7207 3.73825C22.2299 2.01356 19.2661 1.10117 16.2359 1.12625C14.1822 1.08382 12.1425 1.47198 10.2483 2.2657C8.35401 3.05943 6.64727 4.2411 5.23812 5.73449C3.93392 7.03344 2.8994 8.57709 2.19401 10.2768C1.48862 11.9765 1.12625 13.7987 1.12773 15.6387C1.1076 18.4078 1.81248 21.1339 3.17242 23.5467L7.2318 12.6868C8.08709 12.244 8.50523 12.0601 8.50523 12.126L10.3208 7.51981L11.4782 6.88905L12.9397 3.83422L16.1218 4.33403L22.539 7.91566L29.8015 9.94188ZM28.435 26.4156C26.9705 28.2498 25.0736 29.6923 22.9141 30.614C20.7926 31.5843 18.486 32.0842 16.1528 32.0794C13.7994 32.1584 11.46 31.6876 9.32069 30.7043C7.18138 29.7211 5.30118 28.2526 3.82964 26.4156H28.438H28.435ZM23.3533 21.2685L21.0075 25.6609H18.7727L22.9151 20.4629L23.3533 21.2725V21.2685ZM29.3423 16.5973L27.8418 20.096L26.4743 21.2735L23.7614 25.6639H21.9758L23.7604 22.5231L25.1609 21.3685L27.1846 15.7277L29.3443 16.6003L29.3423 16.5973ZM26.6514 15.5387L24.6897 19.2163L23.6354 19.4013L23.9075 17.2541L23.6354 16.8123L23.9075 14.4132L26.6514 15.5387ZM32.0782 17.538C31.8733 20.4754 30.8343 23.2936 29.0832 25.6619H25.504L28.8952 20.2769L29.9385 16.7933L32.0782 17.538Z" fill="#CBCBCB"/>
</svg>
