<svg width="80" height="43" viewBox="0 0 80 43" fill="none" xmlns="http://www.w3.org/2000/svg">
<path fill-rule="evenodd" clip-rule="evenodd" d="M44.3157 16.975L43.6137 20.2789H45.0345C45.8444 20.2789 46.3743 20.2418 46.624 20.1676C47.3428 19.955 47.7849 19.4454 47.9503 18.6354C47.9874 18.4599 48.0077 18.3047 48.0077 18.1697C48.0077 17.6466 47.7546 17.299 47.2483 17.1235C46.9446 17.0257 46.4384 16.975 45.7331 16.975H44.3157ZM56.7618 22.8066H60.474L59.9239 17.1775H59.8666L56.7618 22.8066ZM30.0978 22.2734L29.4161 25.4896H31.5186C32.8212 25.4896 33.5839 24.9631 33.81 23.9102C33.8472 23.7482 33.8674 23.5963 33.8674 23.458C33.8674 22.6683 33.2735 22.2734 32.0855 22.2734H30.0978ZM31.252 16.8569L30.6074 19.8672H32.3893C33.0575 19.8672 33.5131 19.8098 33.7527 19.6985C34.2825 19.4352 34.6099 18.9965 34.7381 18.3823C34.8528 17.8559 34.7617 17.4543 34.4715 17.1775C34.2454 16.9649 33.8607 16.8569 33.3173 16.8569H31.252ZM25.1909 27.97L28.0763 14.4507H35.4772C35.7134 14.471 35.9159 14.4946 36.0846 14.5216C36.9553 14.6836 37.6201 15.0109 38.0724 15.5003C38.4875 15.9525 38.6967 16.4958 38.6967 17.137C38.6967 17.3631 38.6697 17.596 38.6225 17.8322C38.2816 19.3981 37.0869 20.4274 35.0418 20.9168L35.0216 20.9539C36.8035 21.2812 37.6944 22.1216 37.6944 23.4748C37.6944 24.3286 37.4548 25.1015 36.9756 25.7967C36.4964 26.4919 35.8551 27.0285 35.052 27.4064C34.2488 27.781 32.9765 27.97 31.2351 27.97H25.1909ZM0.990502 23.5795H4.73986C4.68924 23.8191 4.66562 24.0148 4.66562 24.17C4.66562 25.1116 5.30007 25.5807 6.56898 25.5807C7.89864 25.5807 8.67821 25.0913 8.90094 24.116C8.92456 23.9979 8.93806 23.8832 8.93806 23.7786C8.93806 23.3365 8.62758 23.0327 8.00325 22.8674L4.88835 22.0473C3.11998 21.5816 2.23916 20.6839 2.23916 19.3509C2.23916 19.0876 2.26954 18.8075 2.33366 18.5106C2.59351 17.3665 3.24822 16.4317 4.29439 15.7061C5.47556 14.8861 7.01445 14.4743 8.90431 14.4743C12.0665 14.4743 13.6459 15.4497 13.6459 17.4036C13.6459 17.7242 13.5952 18.1191 13.4974 18.5814H9.70413C9.76488 18.3418 9.79863 18.1427 9.79863 17.974C9.79863 17.1877 9.31266 16.7962 8.3441 16.7962C7.80752 16.7962 7.34855 16.9244 6.96383 17.1809C6.57911 17.4374 6.34962 17.7614 6.272 18.1528C6.24838 18.2608 6.23488 18.3621 6.23488 18.4566C6.23488 18.9459 6.60273 19.2834 7.33505 19.4757L9.70413 20.1001C10.7368 20.3734 11.459 20.6468 11.8674 20.9201C12.5659 21.3724 12.9135 22.0271 12.9135 22.8842C12.9135 23.1711 12.8764 23.4782 12.8022 23.8123C12.5018 25.1926 11.702 26.2455 10.396 26.9745C9.20129 27.6427 7.7164 27.9734 5.93453 27.9734C3.63294 27.9734 2.1143 27.4604 1.38197 26.4379C1.03437 25.9587 0.858887 25.3748 0.858887 24.6864C0.858887 24.3995 0.902759 24.0317 0.990502 23.5795ZM13.305 27.97L16.2039 14.4946H26.4733L25.9232 17.0763H19.4066L18.7991 19.8841H24.9378L24.3708 22.4658H18.2322L17.6247 25.3478H24.2932L23.7263 27.9666H13.305V27.97ZM66.2921 27.97L69.191 14.4946H79.4604L78.9103 17.0763H72.3937L71.7862 19.8841H77.9249L77.3579 22.4658H71.2193L70.6118 25.3478H77.2803L76.7134 27.9666H66.2921V27.97ZM30.1518 4.59305H54.9833L55.908 0H31.0731L30.1518 4.59305ZM28.6332 11.7239H53.4646L54.3893 7.13087H29.5578L28.6332 11.7239ZM23.6655 35.354H48.497L49.4217 30.7609H24.5902L23.6655 35.354ZM22.1469 42.4849H46.9784L47.903 37.8918H23.0716L22.1469 42.4849ZM50.0359 27.97L58.3311 14.5587H62.9545L65.4552 27.9734H61.1726L60.8115 25.2803H55.3376L53.8224 27.9734L50.0359 27.97H45.9254C45.8984 27.4705 45.9693 26.4581 46.1347 24.926C46.1853 24.3894 46.2123 24.0249 46.2123 23.8258C46.2123 23.4141 46.1077 23.1239 45.8984 22.9585C45.6892 22.7898 45.2842 22.7054 44.6768 22.7054H43.0839L41.9466 27.97H38.1399L41.0388 14.4912H47.3665C48.4531 14.4912 49.172 14.5148 49.5263 14.5655C50.3835 14.6903 50.9977 14.9873 51.3655 15.4632C51.7064 15.885 51.8785 16.4148 51.8785 17.0493C51.8785 17.3733 51.8414 17.7141 51.7638 18.0752C51.5107 19.2328 50.91 20.0663 49.965 20.5759C49.3474 20.91 48.6016 21.1429 47.7309 21.2677L47.7107 21.342C48.6961 21.3656 49.3643 21.5613 49.7187 21.9191C50.0224 22.2194 50.1743 22.7223 50.1743 23.431C50.1743 23.6672 50.154 24.0722 50.1169 24.6459C49.9988 26.313 49.9751 27.4199 50.0359 27.97Z" fill="#CBCBCB"/>
</svg>
