<svg width="83" height="22" viewBox="0 0 83 22" fill="none" xmlns="http://www.w3.org/2000/svg">
<path d="M47.8216 0.17627C48.2616 0.17627 48.3496 0.229069 48.3496 1.77784V3.20342C48.3496 4.6818 48.2264 4.8578 47.8216 4.8578H42.8761V21.5247C42.8761 21.8943 42.4009 21.9823 40.7465 21.9823H39.8666C38.177 21.9823 37.8954 21.8943 37.8954 21.5247V4.8578H32.9499C32.5451 4.8578 32.4219 4.7346 32.4219 3.20342V1.77784C32.4219 0.17627 32.5099 0.17627 32.9499 0.17627H47.8216ZM56.6919 0.651462C56.6919 0.334667 56.2343 0.17627 54.6327 0.17627H53.6999C52.0104 0.17627 51.7288 0.317067 51.7288 0.651462V21.5423C51.7288 21.9119 52.0104 21.9999 53.6999 21.9999H54.6327C56.2343 21.9999 56.6919 21.9119 56.6919 21.5423V0.651462ZM80.8387 0.17627H79.3779C77.5124 0.17627 77.4068 0.387466 77.2484 0.704261L74.362 7.62095C73.394 9.92652 72.4084 12.3905 72.0388 13.6753C71.6868 12.3905 71.0533 10.6833 69.7157 7.49775L66.8469 0.704261C66.6709 0.299468 65.9493 0.17627 64.3654 0.17627H62.7462C61.1446 0.17627 60.8278 0.317067 60.8278 0.651462V21.5423C60.8278 21.9119 61.1446 21.9999 62.799 21.9999H63.6966C65.3334 21.9999 65.7909 21.9119 65.7909 21.5423V9.13453H65.9141C65.9141 9.13453 66.0549 9.71532 66.3013 10.2433L69.6101 18.0048C69.7509 18.3568 69.9269 18.4976 71.4756 18.4976H72.4612C74.0276 18.4976 74.1508 18.3744 74.2916 18.0048L77.3188 10.5249C77.6004 9.82092 77.8115 9.13453 77.8115 9.13453H77.9347V21.5247C77.9347 21.8943 78.2515 21.9823 79.9763 21.9823H80.8563C82.4579 21.9823 82.9155 21.8943 82.9155 21.5247V0.651462C82.9155 0.317067 82.4403 0.17627 80.8387 0.17627Z" fill="#CBCBCB"/>
<path d="M25.3289 4.8578H1.72763C1.37564 4.8578 1.05884 4.717 0.830044 4.4882C0.601247 4.25941 0.460449 3.94261 0.460449 3.60822V1.44345C0.460449 1.09146 0.601247 0.79226 0.830044 0.563463C1.07644 0.317067 1.37564 0.17627 1.72763 0.17627H25.3289C25.6809 0.17627 25.9977 0.317067 26.2265 0.545864C26.4553 0.77466 26.5961 1.07386 26.5961 1.42585V3.57302C26.5961 3.92501 26.4553 4.22421 26.2265 4.453C25.9977 4.6994 25.6809 4.8578 25.3289 4.8578ZM10.9147 8.74733H1.72763C1.37564 8.74733 1.05884 8.88813 0.847643 9.11693C0.618847 9.34573 0.478049 9.66252 0.478049 9.99691V12.1441C0.478049 12.4961 0.618847 12.8129 0.847643 13.0241C1.07644 13.2529 1.39324 13.3937 1.74523 13.3937H10.9323V8.74733H10.9147ZM26.2265 9.13453C25.9977 8.90573 25.6809 8.76493 25.3289 8.76493H16.1418V13.4289H25.3289C25.6809 13.4289 25.9977 13.2881 26.2265 13.0593C26.4553 12.8305 26.5961 12.5137 26.5961 12.1793V10.0145C26.5961 9.66252 26.4553 9.34573 26.2265 9.13453ZM26.2265 17.7056C25.9977 17.4768 25.6809 17.336 25.3289 17.336H16.1418V21.9999H25.3289C25.6809 21.9999 25.9977 21.8591 26.2265 21.6303C26.4553 21.4015 26.5961 21.0847 26.5961 20.7503V18.6032C26.5961 18.2512 26.4553 17.9344 26.2265 17.7056ZM10.9147 17.336H1.72763C1.37564 17.336 1.05884 17.4768 0.847643 17.7056C0.618847 17.9344 0.478049 18.2512 0.478049 18.5856V20.7327C0.478049 21.0847 0.618847 21.4015 0.847643 21.6127C1.07644 21.8415 1.39324 21.9823 1.74523 21.9823H10.9323V17.336H10.9147Z" fill="#CBCBCB"/>
</svg>
