<svg width="88" height="30" viewBox="0 0 88 30" fill="none" xmlns="http://www.w3.org/2000/svg">
<path d="M81.3234 19.4579C79.3161 19.4579 78.1286 18.237 78.1286 16.1759C78.1286 14.1148 79.3399 12.7979 81.3473 12.7979C83.2245 12.7979 84.5183 14.0235 84.5183 16.1759C84.5183 18.3282 83.3308 19.4579 81.3234 19.4579ZM84.3835 10.4378V12.3342C83.9457 11.6075 83.3203 11.0121 82.5731 10.6105C81.8258 10.2089 80.9842 10.0159 80.1366 10.0518C76.5462 10.0518 74.4034 12.3342 74.4034 16.2004C74.4034 20.0666 76.7293 22.3872 80.0018 22.3872C82.0091 22.3872 83.356 21.7403 84.3453 20.2763L84.2922 21.9316H87.8588V10.4385L84.3835 10.4378ZM68.365 21.9289H72.0379V10.4385H68.365V21.9289ZM70.1892 3.76832C69.652 3.74961 69.1285 3.94057 68.7295 4.30081C68.3305 4.66106 68.0872 5.16235 68.0511 5.69871C68.0952 6.23864 68.3408 6.74222 68.7391 7.10937C69.1375 7.47652 69.6594 7.68035 70.2011 7.68035C70.7428 7.68035 71.2647 7.47652 71.6631 7.10937C72.0614 6.74222 72.307 6.23864 72.3511 5.69871C72.3175 5.15709 72.0717 4.65058 71.6669 4.28915C71.2621 3.92772 70.7311 3.74057 70.1892 3.76832ZM61.4054 21.9289H65.0735V3.76832H61.4054V21.9289ZM51.8359 19.4579C49.8286 19.4579 48.6411 18.237 48.6411 16.1759C48.6411 14.1148 49.8572 12.7979 51.8652 12.7979C53.7377 12.7979 55.0314 14.0235 55.0314 16.1759C55.0314 18.3282 53.8432 19.4579 51.8359 19.4579ZM54.9007 10.4378V12.3342C54.4618 11.6075 53.8355 11.0122 53.0875 10.6106C52.3395 10.2091 51.4973 10.0161 50.6491 10.0518C47.0586 10.0518 44.9206 12.3342 44.9206 16.2004C44.9206 20.0666 47.2418 22.3872 50.5095 22.3872C52.5168 22.3872 53.8875 21.7403 54.853 20.2763L54.8047 21.9316H58.3665V10.4385L54.9007 10.4378ZM46.006 4.77743L38.9824 21.9337H35.1522L28.1831 4.77743H32.6499L36.32 15.4766C36.4262 15.7905 36.7156 16.8711 37.1112 18.7198C37.265 17.573 37.5219 16.4424 37.8786 15.3418L41.595 4.77743H46.006Z" fill="#CBCBCB"/>
<path d="M15.7616 22.0064L18.8884 15.0918H12.6778L15.7616 22.0064ZM25.0349 4.78211H13.7393L18.9033 15.1054H25.0349V4.78211ZM25.0349 29.5884V15.1102L17.8656 29.5884H25.0349ZM9.59392 8.17986L6.45696 15.1006H12.6778L9.59392 8.17986ZM0.317871 25.4042H11.6155L6.45152 15.0918H0.317871V25.4042ZM0.317871 0.588379H7.48923L0.317871 15.0918V0.588379Z" fill="#CBCBCB"/>
</svg>
